<mxfile modified="2022-04-17T02:04:25.532Z" host="app.diagrams.net" agent="5.0 (Windows NT 10.0; Win64; x64) AppleWebKit/537.36 (KHTML, like Gecko) Chrome/100.0.4896.88 Safari/537.36" etag="XHojJgw9cGw9rBlFpeHH" version="17.4.5" type="github">
  <diagram id="WI9T0HZ2pTsCkuznbFz-" name="Page-1">
    <mxGraphModel dx="1422" dy="794" grid="1" gridSize="10" guides="1" tooltips="1" connect="1" arrows="1" fold="1" page="1" pageScale="1" pageWidth="1169" pageHeight="827" math="0" shadow="0">
      <root>
        <mxCell id="0" />
        <mxCell id="1" parent="0" />
        <mxCell id="AcxdMaKK0mU5kZiv2lnr-49" style="edgeStyle=elbowEdgeStyle;rounded=0;orthogonalLoop=1;jettySize=auto;elbow=vertical;html=1;strokeColor=#808080;entryX=0;entryY=0.5;entryDx=0;entryDy=0;exitX=0.855;exitY=0.145;exitDx=0;exitDy=0;exitPerimeter=0;" parent="1" source="tSnX5RXje4xO9rxQiIv1-6" target="tSnX5RXje4xO9rxQiIv1-2" edge="1">
          <mxGeometry relative="1" as="geometry">
            <mxPoint x="845.5" y="45.5" as="sourcePoint" />
            <mxPoint x="1105.5" y="45.5" as="targetPoint" />
            <Array as="points">
              <mxPoint x="530" y="442" />
            </Array>
          </mxGeometry>
        </mxCell>
        <mxCell id="RLjyjs_sm2IHfBNOWAbh-37" value="&lt;b&gt;Response&lt;/b&gt;&lt;br&gt;- Header&lt;br&gt;&amp;nbsp; &lt;font color=&quot;#00ff00&quot;&gt;&amp;nbsp;&lt;/font&gt;&lt;font color=&quot;#007fff&quot;&gt;Cookie&lt;/font&gt;&lt;br&gt;&amp;nbsp; &amp;nbsp; + &lt;font color=&quot;#007fff&quot;&gt;JSESSIONKEY&lt;/font&gt;&lt;br&gt;&amp;nbsp; &amp;nbsp; + USER_ID" style="edgeStyle=elbowEdgeStyle;rounded=0;orthogonalLoop=1;jettySize=auto;html=1;strokeColor=#808080;align=left;" parent="1" edge="1">
          <mxGeometry x="0.4" y="50" relative="1" as="geometry">
            <mxPoint x="440" y="560" as="sourcePoint" />
            <mxPoint x="240" y="560" as="targetPoint" />
            <Array as="points">
              <mxPoint x="320" y="620" />
            </Array>
            <mxPoint as="offset" />
          </mxGeometry>
        </mxCell>
        <mxCell id="RLjyjs_sm2IHfBNOWAbh-28" style="edgeStyle=elbowEdgeStyle;rounded=0;orthogonalLoop=1;jettySize=auto;html=1;strokeColor=#808080;exitX=1;exitY=0.5;exitDx=0;exitDy=0;entryX=0.5;entryY=0;entryDx=0;entryDy=0;" parent="1" source="tSnX5RXje4xO9rxQiIv1-2" target="tSnX5RXje4xO9rxQiIv1-5" edge="1">
          <mxGeometry relative="1" as="geometry">
            <Array as="points">
              <mxPoint x="726" y="460" />
              <mxPoint x="909.5" y="295.5" />
            </Array>
            <mxPoint x="909.5" y="354.5" as="targetPoint" />
          </mxGeometry>
        </mxCell>
        <mxCell id="tSnX5RXje4xO9rxQiIv1-2" value="WAS-1" style="shape=image;verticalLabelPosition=bottom;labelBackgroundColor=#ffffff;verticalAlign=top;aspect=fixed;imageAspect=0;image=data:image/png,iVBORw0KGgoAAAANSUhEUgAAATwAAAFDCAYAAACncbISAAAgAElEQVR4Ae19B5cc1bX1988etoEH2MIG2yQbMGCDeYAQyjlLo5xzzkISipNzzjlnTc45amY0mvOtfUYtVfd0T6fqiqfW6tW5wr737rr3hH3+H8kmCAgCgoBNEPh/NrlOuUxBQBAQBEgITzqBICAI2AYBITzbNLVcqCAgCAjhSR8QBAQB2yAghGebppYLFQQEASE86QOCgCBgGwSE8GzT1HKhgoAgIIQnfUAQEARsg4AQnm2aWi5UEBAEhPCkDwgCgoBtEBDCs01Ty4UKAoKAEJ70AUFAELANAkJ4tmlquVBBQBAQwpM+IAgIArZBQAjPNk0tFyoICAJCeNIHBAFBwDYICOHZpqnlQgUBQUAIT/qAICAI2AYBITzbNLVcqCAgCAjhSR8QBAQB2yAghGebppYLFQQEASE86QOCgCBgGwSE8GzT1HKhgoAgIIQnfUAQEARsg4AQnm2aWrsLnaM5Gpzsoc7RJmofaXB6lHVnUG5bjNtHUUcS1fQVUNtwvdN/usaaaer5BL2Ye6HdRciRLImAEJ4lm1X9iwKJzcxOM5G1DtdSXX8xVfRkU25bNGW2PKHExjsUWXuJHlWdpoeVp+hmyV66UrSDLhduc3qcyF5OhzJ+cPs4mrWUzuSuoUuFW53+c7VoB90rP0oPK0/y/qPrrlJG82N+lHdnUnVvPjUNVdLAZDdNzIwKMarf/JbZoxCeZZpSnQt5MTdLz56P08BEF3WMNFLjQBlV9uQQZl/ZLZEUU3eN7pYfpitF2+ls3jran/4t7U75F21K+DutjH6Hfgr/n5A/Vsf8kXYlf8EPEOTFgs10q3QfRddeodSn9ymvLY7JuGGglFqHa6hnvJVGpvrp+YtpdUCSvZgWASE80zZd8Cc+N/eCZl5M0+TMGI1MDTDJYQkKgktouE13yg7RqZxVtDP5n7Qi6n9DTmRqkuW2xE/oePYvhNlhRM0FymqNpKeDFdQ30UFDz/pobHqInj2foNkXzwmzV9nsgYAQnj3a2e1VYibXMlTNS9I7ZQfpQMZ/aV3sn2l51Nv0S+SbtCzyD/RzxO9pacQbpiI7EOfS8Dfo54jf0bKI3/O1/BL5Fq2Iept2Jn9Olwo2U3j1eSruTKG+8Q6Z+bntHdb8UAjPmu264Kqev5ihoclequktoMTGX+lmyR46lr2M9qR+Q9uSPqP1cX/hWdzSiN+Zjtz8mRmCyNfELKFN8X9j8tuf9i1dLNhEUbWXqbQrnbrHmml69tkC/OQDayAghGeNdlxwFVimYanaNlJPBe0JFFlzia4X7+YlaljKVzyTWxbxB0uTm69EuCr6XdqR9E++AcDJ8qjqDGU0P6H6/mIanRqQJe+C3mXeD4TwzNt2C84cDgfYpuBFLevKoJSn99nBcCRzKROcrwRg99+tinmPwlK/ZvtffMNNKupMJjhA+ic6aXp2cgHu8oF5EBDCM09buT1TxKbBFjf0rJfj1/LaYjkkZHvSP9gGZ3fyCvb6YcPcEP8hncldS/H1N6m2r5CJb2x6mGAmEIeH225p2A+F8AzbNL6dGOLOSrvS6FbpXtqa+MlLJ8Pv2Ggf7GCX/78OsYHjBk4QOHWOZy+n5Kf3qHe8jUnPt5aSXxkBASE8I7SCn+cAo3ptXxGHW5zMWUmYza2LfZ+9kUJSr0kqFFhgxgeb3+aEj2hP6tfs/Mlvj6PByW4/W1F+rgcCQnh6oB7AMUFy8CAiLeu3iqN0MmcFe1fNFh8XChLSc5/wbh/M+J5uFIdRUuMd9oKPTg0G0MLyFy0QEMLTAuUgjjE+PUzNQ1WU0xpF9yuP06HMH2hllDYZDXoSidmOjTg/eHovFmyhhIZfOScY+cSyGQsBITxjtQefzezcLOeEIiWqoCORrhfvoi0JH0sIiQZpa2oQLVLfkDOc8vQ36hx9ylkscHDIpj8CQnj6t4HTGcDrhzQv5K5i0KyKfk+IziRE50qWCHJGUHd8wy3qHW8Xj65TT9fnjRCePri7PSpmdKlN9zkpHzO6ldHvsmfQdSDJ+9A6JtTCF+ltIL2N8R+yOszj6rP0dKDcbdsb9cO6/iKepRr1/Pw9LyE8fxFT+fdY6sDDh/g5ZELA84clkVqDTvZjDHKEjW9r4qd0Nm89K860DNeweIHK3Um13SG+c/hZHwtIIOvEKktyITzVuoh/O4JKB/TbKnqyKLLmIh3J/FGWryZduvpzU8GMb0viJyxnBR3BtuE6mp6d8q/zaPBrnFNRZxLfgO+WHeZgaw0OG/JDCOGFHGLnA8zNzdHEzBinfyF4FXF086El5lMk8Wegy28XzjQRKH6v/Ah7dDGbMkrmBmTDRp71c2odAq1P564mCK1aYRPC07AV0ZGgwQaZcxAdcjaFCBYSgd0w2Zb4KcXWX6f+iQ7WJ9Q7XQ0xn9AORDA72gKSWnH1NzQcKaE7lBBe6LB12jNqMtT3l9Dt0v20PekzVge2uhST3Ygr0OuF7uCGuA/pSNZPHFiO2Z6eG0QSoB6NjBJcE5bhUJGZeg7hBHOLpQrhadCz2kbqWEH4VO4q9tghJzPQwSH/s+aMEB5dmDb2pX3LdTsgUjDDtj1tCQa25bq+ItqX9h8n8YkjmT9R40A5IUbUzJsQXohaD1JNyJKA7QN2mt0pX9GyyDeF6GzgmAj2poSQJMyosloiWJJey1ocqGWCuEF4lX8Kf21X3pXyJaU2PeAld4iGjCa7FcILAcy4M0NJA6EmqMS1WoKHhej9JHoQDkQhYNuDPQ2qOKHeEIrisC+7kvaGuA/oZunel8vaUJ9J6PYvhKcqtnPsaUMhnIiai2wDMWM9CNfOLu/1XUajOlx5dxYvceH4CtUGhWyESLkTpIA6dljqVwQdQL2dKsFcvxBeMOi5/BdGXdRpRelA1E0QstOXKKxC1Cui3uHaI+E153mJi9CmUGw5bdF0OPNHD1qKb9DG+L9SSVeaJrPNUFwf9imEpwKysLFgCRtVe4UOZ/5Aa2L+JEs4P5dwViGnUF3H8pdL3BslYVx4HLMxtTbM2ManR1jiarEsH3z3oPIkk65ax9Z6P0J4QSKOjtcwUEIPKk/QjuTPCR0zVJ1e9mvvGSO8+2tj36fz+RvZPqyW/BRu2IUdibQ37d+L9l2EpxxI/y8HzQc5bHT7uxBeENCjmj2MvLdK9r0scfjaqyXkZG9yCnX7I0wEXlMITiAiINBtdu4553Kfz99Aa2OXvCI8kCtKWaJGseNaHKEzKGdp1lKWQngB9BQsAWCvy2wJZxUMR4eQZyE5LfsAgpV/Kz/GBZzmSc9/2x6cEAUdCVyX2HHuIDaYZe5XHOcgecfnjmeU/OwZaw1g5Oj/FyE8P9sArnuHNwv1XefjlWSgOwaDPGvXFzALQ7jIhYLN1DHa+DJQ2b8OjZKecFQoTTEgOzjekHFxLn/DglopVwq3UUN/iX8HMsivhfD8aAhEmXePtdCdssOcX6ic7stA126gC9avsUZRoXVx8wn+8KD6U08DfTmy9tKC8Kk9qd9QSWcqBxkjvAq5vkrMEYSc3x7vx8gxzk+F8HxsC9R+hRji3fLDtD7uAy6HqOwE8vr1IBQstMViXmj0LTqVs4pyWqNpaLLXa6+GDS6vLY72p3/nRGYoSoR8bxR0R8wfipAfy17m9JuV0e+wmICanmKvJ6zSD4TwfAByanaSQwGuFe9yMuLKwNZ2YAve3vE+nvUL25aHvAgQtAxVsybf8qjXUQVYIp/IWc4k5xgWmAXCKYfvlPjfKt1HCLA32yaEt0iLwTmBNLGmwUq6WLCZlJ1D2fjy2vtAFIy0wwiJ/+nNjzhAGDZn1w2zu/Dqc7Ql4SMnEoOXNrL2IueAK/8T33CTVrvElh7LWsYFppS/M8NrIbxFWgnadVU9uXQ06+eXUjkSdiLEpR1xBYo10sC2Jn7MZT1dpaZghy7sSKJDGf+3YNaG+L6q3lxeyiqHBZa1cGwoz2dzwt85fVL5OzO8FsLz0ErDz/opty2W5XqgCyZpYsYf6MoBaffX0NjblPA3elJ9ljpHm7iXQ/ppcKKbPa9IfXRgBF3GzQkfsRYfMi5cNyx/fy07+Or3+B+CkK8W7Xg5G/Q/HMb1GFq9F8JzgzSMvtktkXQkc6mHvEIZ/I7BIs/G7gtQXIGntX2knovyQLkYAcVK8VlEGzysPMkRCG6GA5NaWtPDBeEpx7J+5vAUd8tmd/sxwmdCeC6tgJqw2a1RdDx7udMdTQa2sQe2tI/n9oFEOwgtvfkh7Ur+wom4oIyCdLHmoapFsyeqevNoS+LHTkS5O+VLQl0WZGuYZRPCe9lScFA4XPWu9goZTJ4Hk2BjDmwQSoJ4PWV7wfMK0kIZRoRdLbY1D1XTufz1TirICHq+VbKXZmanF/urob4TwnvZHCA7GGzh4UIwp7JjyGtzDGppp8Xa6Y0F5hkU6blZspcgHoAb/mIbsi6wHFZq5cGujSBkBDsHk8+72HHV/k4Ij4jzYhsHygiudkfhEhk8iw0e+c7s/QMpkZCRR8iVLxtyxxF4v8pFvRuhLdW9eV5niL4cQ4vf2J7wMJWv7s2nK0XbCUKL4o0VMjM7mfly/sezf6GC9oRF7XZKAkLWBWZ5CGdRzvJQtzaq9jILGCh/b9TXtiY8TMNx17pevFsyKESw0xZmDNzQdyT9k+B1HXrmPQVNSVwoSgXdRygfO0h1ZdQ7XGO5a2w+9EX5eyO+ti3h4Y7VN97B8UUiAiCzOscAtvIzCw28nJFBodvfDbWV89pjWTjDgRP2uTH+Q2ocLCczhKfYkvBQEwBL2Ttlh7gAsqPx5FmIz8p9AF5a5MAOPevx6qRwR4bI0hiY7OJlrRIniBfktsUsSElztw+9P7Ml4aHkHewOiE9CGo6y8eS1kJ4V+wDqUZzNW8sJ/4HWuYUn9/mLGbpatHNBbm149XnqGmvWm8+8Ht92hIeUMRQ43p3yL7Hbid3OFjc7CHpC/AKlHkFY3kJQvLEGilXBDqi8MZzJXUu1fQXe/qr797YiPOQJFnemEuoBINdQ2WDyWmZ2VuwD6Ocnc1ayskmgMztXliruTCGklSnxQngKSpQaPR7PNoQ3+2KGavsKeTqubCh5LURn1T4AhwICg7Nawv1SQnYlONf3qGdxvXjXghCumLqrhq9ZaxvCQwwRipIgxcaqHVyuS8jb0QeQNrYmdgkVdyZzzVlX0gr2fUTNBad4PBwXSsltw3XB7jqk/7c84XGO7PNJLpKNxGmlSoSjc8izEIWV+gCWsSgwVdSRRBDDCMUyM6ctmvanf+s0ecAyF/VtjbxZnvCgWJzfHjdfmUlRY9NKHVyuRQjb0QdAdsiGyGh+zDO7UJAdCK22v5AuF251IrytiZ9QbP11I/MdWZrwIAgA8cLTuWu4zqajU8izEIQV+4CD7FKb7qtqs3PHYCgADnFRJY5IOUNsK8adUTfLEh6ivrvHmulR1RkRBJDwE6eBqRykVng9X7XsTQpL/Zpndv6UagyUmFD+IKPliVM9W2B5Lm+9RyHRQI+l5v8sS3iTM6OU1xbL6g7oEFbo2HINMjN11wcgt7416VNCuIg7iXY1CUO5r8qeHNoJu7hifEFMFCakYGP9lMdR87VlCa+sO4NOZP8iTgqZ3Vn6Zge5phPZy1nmaWJmJCQOCk+EA5VkBDQr9SO3JX1KyLoQwvOEWgg+R73Me+VHxG4nZGdpskORHtRKxkzLFxFPtYcaQr3i6286BfEjhe18/gYhPLXBdr+/ORbzTGi4zfYMd9N/+UyWhVboA8hsuFt+iIPp1cqgcD+mPH8K9RSohENM1IEpZnv70r41rAqypZa0UHOAcvGJnBVOhUocjSHPQnZm7wPwxG5L+ox+qzjGEQie6Uibb+CtXR/3gdOydnvSZ1TXX8yTD23OwvejWIbwYDOYnBnj2CBo9Zu9Y8v5Czm79gFkT2xJ+JiyWiNCHnbiK4UMTnbT6dzVtFoh/Q6B0MTGXw1zjsprsQzhjU0PUX5bPHcIdAzXziLvhUDM3AdWxbxHZ/PWcf0IrZ0TSsJwfY0QGDgpNilUkOFIgRRV33i76891f28JwkNdTBQjQeFsUS8WYjMzsbk79x1J/2BpdSwT58spLl5hTEtWQTxeSWcK7Uh+LRcFO976uL+w9p6W5+LLsSxBePAWJTTcouVRbznFBLnrPPKZEKJZ+gCcAaiRjPKISMqffWG8gtc4J4w/lDd1xbWiJ5umZid94SHNfmN6wgPgJaxxt3QB4K4NIO+F7MzQBxBIvCH+Q46vy2uPM6QtzJWhTuWsWuAohB0PkvBG2kxPeKi89KjqtJCdxNxZog+wFzbxM44j7Rlr0TSQOBhigvTa5oS/O7UBiny3DNUEs1vV/2t6wkt5+hvtSf3aCWgz3MXlHGW26a4PwDEBDbux6WFDLmE9MVB686MFy1qotlT15Hr6iy6fm5bwEIbSO95OVwq3E2pjuus88pmQihn6ABxtu5K/pOi6K1TfX8xkpwsbBHFQ1HdGeIoSbyzLjaaPZ1rCg84X7ipQiFCCLK+F5MzSB7B8hYbcpYItlNkSwcZ/vbImguA6/uvIs34uaK/EHrbI5Kf3CJ5co2ymJDyQHZRcMf1H7p4SZHkthGf0PgB1kbWx79OhjB/Y/oxaK1bYHledXSD7/rDyJCEbwyibKQkPdWVLutIWGEmN3tHl/OxNxksj3uC80/Wxf+ZZHfJQJ5+PG4ULgj6PtKYHvDRX9nOoqVT35ge9b7V2YErC6x5roTO5a6Qgj3hmTTW7Xxu7hFC/tawrnRBdMPNi2rCqIoEQTFFHMh3PWubUJqh7gTrQRtlMR3gQOCzoSCR0Hkkhs/eMSTmTMO5rLF+X0Ln8DZTa9IBah2toPjXshVE4QLXzeDpYQTeKw5wIDxJWMfXXVDtGsDsyHeE1D1UT4nuM28GFhKRt/odvxuti/0zHs3+hmLprnAM7/Kwv2PFq6P8jyDi85oLT2IQH+m75EYKUlBE2UxHe1PNJnh5vS/zUCVQZYEKyRukDyCPdGP8hOyR+LTtARZ3JL/NfjTDcQ3sOIDXY8ZT6eGgXeKF7x9tCe3Af924qwoOS8a9lB4XsxHZnqD7gKKKDpev2pH9wH4VDwsjVu3zkB79/hroamxM+cmqfE9krqKavwO99heIPpiK8zJYntD/NufivUe7sch72nWWuiH6Hi1LDRtc+Us+FdJ6/mLGUQ8JX8qnpy6ejWT85Ed6e1G/YfunrPkL5O9MQHpwVmN2tjH7XCUwhGvsSjd5tD2VfFKNOabpPKGgDGx0Kv8/NGUe+KZTk4W7fwAF1Nn5SVDKDaOmjylPufq75Z6YhvMqebDqa9bOQnSxndesDyyJ+TxviPqAjmT/SvfKjhBUHUsEQYiLbPAIQ/YSTRlm6cWX0O1zYxwgYmYbwHlSeIBQu0fuuLse314wSoU8oGRCW+hWdzl1DUAXJa4uh/okOwrJVNmcEEHJT1JHkRHgYM4jHQwmGF3P6huMYnvAAEFReobyA3EMhHHsRjh7tvSziD7Qq+l2eze1M/pwuF26jjJbH1Dn6lJeszkNc3ikRgD7l08Hyl9p4b7war7tT/sVFh7Dk13MzPOEhjSy/LY62JH78Cjw9BoEc0z5Ei74GO1RuWwz1jLdw9S3M5vSenehJFP4cu3O0icercoKyLfEzrjmDWZ6em+EJD/LRuMOuifmTEJ7Y71TvAygLgLKH5/LWU0TNRcpvj6OGgRJC+iIKQ8my1X966pvooJM5K3iW7JgooJJZVM0l3dWbDU146GxPB8ppU/zfZDkrZBc02WHGgeyHsBTY41bTr6UHKL7+JkFGHXFiILnJmVHTqAz7T0Xa/ANOnHvlRxhrB+GtjVnC2pWDkz3anISHoxia8ODmz2h+HHRHd4Auz/ZYlsIGtybmj+zkgu0IMkynclfxMvVh1SnWaCvrzqCOkUbDpDx5GJ+m/Bgz45Sn92mTQvIdKWZ7Ur/SPePC0ISH0otXinYI4cns7lUfwCxtRdT/slLOmpgl7EFFKhfqKUBME8rB+9O/o/P5G+lBxQlCCQAmt9FGQwlRmpLJfDxpCH4i0wRxispJBtqubaRe1zhFQxNeUWcSQW1BCZq8tscszVM7w952NHMpncpZycumJ9XneBUAUsMNEmYQPOAtRL1iiMXC2YCSALJpg8Dsixnqn+wkzK6V7QjCgzbe9PNn2pyIm6MYlvAwLY5vuCm2O5PP7lbH/IkQ2rEv7d9Oj2NZP9Otkn1OD6hqRNVe5jSktKaHhEdBewJBdsjxQH3WrtEm6h5rpoGJLoJNaHRqkGO87Ji76mZM6/4Rbi646exN+7cT4UFYIbMlnCAHr9dmWMJrGCila0U7nQBT3i3ktTYzPdyVIUeOpHg8IHeEAFx4Na8UbedAXATj4gGychCV4zm7NZIVQ0q70kn5QDUrSH0pHyAzyIHD6A37LR4IS5LNnAjArLAq+r1XYxiEF159nnrG9JN8NyzhZbQ8WXCHEJJTn+SQAoTkd9jBdiZ/QQfTvyeoW8CLiVi0O2UH6XH1WUpouM2Pwo4ktomhqnx9fwl3XnRgPDDTkk0QcCAwX6v2dXbU0ojf0dWiHRyA7PiN1s+GJDzYXh5VnZECPaovZ9+g5ZFvcUwjQn0wY8OyAx5MaLfF1d+g/PZ4JjIUUDaKaKPWg0KOpw4CsfXX2ZzhmKjg5nok8yfSs2iRIQkPa/xrRVBcUH9GY+d9YkkBL+bVop2U3HiPYDaYnBmnOc5vFKO+OsNc9uJAIKP5iVNxbhDejuTPqaI7y/ETzZ8NSXhYLsFWZGdyCv7a3+DwjYMZ39Pd8sNsLG7oL+F8UGSvYPkJBWlJl9J8zNnmgAhNOeZS1AdqyHBE6bUZkvAgLwPPXvCD3l4zxGWRb3Kw7UkO2ThKsINW9uRw7BPq+CJUgyQ8Q6+xZrvjIkwItmDXcZze9Eg3NWhDEt6lwq1iv/NxOY9lKuSLoCZzrXgna5GVdKVSx2ij5IHajmKMdcGDk910qXDLAsKDrViv0BRDER5sSYjSPpD+3QKQXO8Sdn+PbINN8X9lyfvrxbvZ2QDxRcQ/ySYIGAUBOMNQgFw5Xu9XnmDTih7naCjCQ+BoXX8x7Ur50gkgJVh2fw3XPnJFkT4VXXeF2ofr9Og3ckxBwCcEfqs4zrZk5bhFfB7se3pshiK88elhSmq8K8rGHpazq2P+SOfy17OEUcdIAzseZman9eg3ckwTIgAHFUKN5r3y2lwAlq/IcVYSHux6ZV0Z2pyAy1EMRXiIsEd2BSL7lQDZ/TUS42ELgXIM1GSRdjc7N+vSlPJWEPCMAIhOD8cVxBtcc2pReTCnNcrzyYbwG0MRHor17kr+goNj7U5yqKUA4oeQYmTtJdZrg9S9bIJAIAgg57hluDqQvwb1n7y2WDqc+aPTBAYqKiBCPTbDEB5CJuDG/iXyTSdw7EZ8sNEh/xAilTeKwzisZGx6WI++Ice0CAJYwqKIfVl3uuZXVN6dSWdy1zqN6fVxf6HYuuuanwsOaBjCw3QbieZIVrcbyTmuF2QHOx1mdQUdCaK8q8uQsN5BEWBe11dEOa3Rml8csirO5q1bMKaRZ6vHZhjC6xlvo8jai4S4MgcB2O0ZwdYxdVepY7SBK7Xp0SHkmNZDoGW4hhVr9MhhRaU3yL27jmVk/+gh52UYwmsdrmF1DtiuXMGx+nsUKobUEhL3JZbOeoSj9xUlP71HiY132Nml9blARQc1pV3HMPK5e8fbtT4d4yxp6/qLWEnBNUjRFSgrvUdeISSZUMUed1+9S9hp3vvkgCFHAKSC/gUxXT02OEvCq88tILyLBVs45VHrczLMDA9xOSj6AUUFK5Gap2vBrG4+ePgqIQVHy9gorTuZHE8fBKA8nNUawZqGeoWBILIgvuHWgjGNeFKoWGu9GYLw5ubmuOixJ3Kw1udvsGMGua9w2ethx9C6k8nxtEfAIbOOtMOHladYCkz7s5g/YnrzowWEdzRrKdsVtT4nQxDe6NSA27uAtYhuXrkFhZ/P5q0lLOHhPZPiMlp3eXscD30LQeq7U77ksYUoCL02d4SHG35uW4zmp2QIwoM+G4JrrUhwymvakvgxPa4+Q40DZeKF1byr2+uAA5PdvJRFPGdBe/xLaTB9MMhpi2aVbeVY2Jf2LYEItd4MQXgtQ9UsMa4ExGqvdyT9k1AEGm56SQvTupvb63hwfiHgFzmsFwo2U8NAma4AFHUmczkB5ZjekfxPiq69ovl5GYLwIFKJKlhKQKz0GjM7kF37SL3mDSwHtB8CqP52p/wwyzLBO4sVlJ4bagajTKdyTKOmyv2KY5qfliEIr6QzlStlKQGxwmt4nFdFv0soFo2ZnWyCQKgRgB4iPLIb4j+g5VFvU01fvu6OMSE8l1aHCoirooIVCA8inbBNdo01EyqxySYIhBoB2IfhmUU+9pHMH7l8pt6OMSE8l1ZPbry7QDPL7IS3Mf6v9FvFMZ7ZzcxOuVyxvBUE1EcA/QypiTChoP+hTKIRagVX9mTT4cwfnJa0WPlA8kzrzRBLWsyClBXKzU52UINAqljrcK1Irmvdo218vPr+YlYmQQbPntRvqHmoSvflLJqjYaCELuRvdCI85MyfyFmheWsZgvDc5dqZlfRWRL1NZ/LWUmlXmuaNKQe0JwLztWDGeUWxJeEjVty5WLCZyc4IGTwo6n6rdJ8T4WF8I/hY6013wnsxN8veGrMSnPK84aTYk/o1ZbVEaN2OcjwbIzA1O8mB7I7SprCHJzXeMQwiQniKpoDLHEZWJXGY9TXyYzObn4gIgKJ95WXoEeib6ODZEvofxg5sYwOTXaE/sI9HEMJTAIX6qZcLt5qe8FAEO7zmPHWPNYsQgKJ95WVoEQDZxdXf5GUsBGQR3xZVe8lQtmMhPEUfaBupp0sFC4v1mmmWB5ViyFgjY0TEABSNKy9DisD07BTbig9mfP9KZQgB/PCKGsS2XqgAACAASURBVGkTwlO0htkJDzU4IPNU2pXOJfAUlyYvBYGQIgAigXIwBCkwQcBzTN01GnnWH9Lj+rtzITwFYs1D1XQhf5Npl7SbEz5i+R3FJclLQSDkCEBnLrLmEm2I+/DV2IHTorgzJeTH9vcAQngKxEq6UulY1rJXjWampey8gXgrdY01Ka5IXgoCoUcgry2Og3mVgrlPas4RsnqMtgnhKVoEIpiHMpyjsM1CeljKwisrmRSKBpWXIUUA5UzhqICmIrIVMFYQxLs+7gMuE2DEviiEp+gSKB0HMUCzkJzjPGG7e1x1hr2yisuRl4JAyBB4MfeCUCMCyjtIHXP0xTUxS+h22X4amDBOKIoSBCE8BRpmJTwEGCObAndc2QQBLRCAMwK1mzcl/I2WRczXb8bsDoHGdf3FhnWaCeEpeofZCA82E8zuImouUPdYi+JK5KUgEDoEEO4EUc9DGd+TspTp2tj3OW8bGUtG3YTwFC1jNsID2W1N+oQ6R5ukHoWiHeVlaBFoHCynGyV7XsXbOZazsH+XdKURCmEZdRPCU7SM2QgPkeyx9TcMIbujgFFeWhiBoWe99KjqNK2Lff+V3Q6Eh74IO/LEzKihr14IT9E8ZiI82Ev2p39LPeOthkrdUcApLy2EAIQ74XWNr7/pViAXtV2renIMf8UQJUV+r2NW6ni2pVqKmQhvQ9wHLHNj+B4mJ2h6BCDrhGI8RR3JhApfyyJ+70QY6IsocK1n+UVfQa7uzaNj2QtjbYXwwudrtzruAEZ7Ppz5IxV1JPnazvI7QSBgBJBJgdrFIDuUCnAdCxcKNhEEP82wuZN4h/MPCQdab7rr4Zlphne1aAeNTBkrT1HrDiPH0wYBqGVDxBPqxa5kh/dFnUn07PmENicT5FHcER6cf2fy1gS5Z///LoTn46wSdTQTG25LMR7/+5j8w08EGgfK6Xbp/nnJp/A3nAgPyjw3S/YSUsiMoGbsy6W5Izwsye+UHfTl76r+RnfCQ03akzkrnRrV3R1N78+whKjuzVcVfNmZIOCKAIgMntfNCX9fMCYwK0LA+9PBcpp6Pun6V8O+z2+Pd8oMwVi2bV3apqEqOu9S4ENvcnM9/rLIP1BU7WVCeIBsgkAoEEDgcO94O0XXXaGw1K8WkB365NbETyi8+jw9fzEdilMI2T4zW8I5WF85rlB741HVqZAd09OOdZ/hmUEPD3mLBR0JnjCUzwWBoBBAjuzY9BAlNv5KMJ0oicHxemXUO2zT60LA+9yLoI6n9Z/Tmx8tuCZIWaGkpNabEJ4PNryzeetM4xHTugPJ8YJHAOEn1X35tC3p0wXhJw7CO5D+HWW0PAn+YBrvAbGE6U0PFxAeVJrhsNR6E8LzgfCwnO0Zb9O6beR4NkBgfHqECjuSOLB43iPr7KQA4S2PepueVJ+j4Wd9pkMECi6Pq84K4TlaDmkxv5YdXACI485mhOfizmSpROZoMHlWDQEsY3Nao7jiGOzEnvr6pcKtrHVnZIEAT6D0jLWSu7rTRzJ/0sVMpPsMD0C5A8RT42v5OSR44E1CBXczdjZPnVA+1xcBLPMmZkaY7E5kL19g0Hf0cfQ/2LoK2hPYxqfvWQd29KbBSrpREraAzE/lrqaavoLAdhrEvwxBeI+qztBidzhHB9D6eVX0e4QqUL2ynA2ii8lflQjAQYFVDWpPIHMH5T3d9WuUXFwf9xcu/YnazWbdUNzqdO7qBdd4sWALwWGp9WYIwoutv07r4v68ABR3HUHLzyCbDfudGW0nWnckOZ53BOZndqNU05fPM7fFbvIoqn0062canOw29eoCs9NjWT8vGNtYpneMNHoHTeVfGILwUpvu044k9+54LQnO9VioSIYGg2FZNkEgWASwjIU9eGfyFy9TxhY6KBx9EPVSKrozTV8vJfnpPdqV/MUCwrtXflQXxSFDEF5uWwwdSP/vAlAcja/X847kz7lmxYzJAj2DHZjyf/URGJseppy2aIKxfn5m55nsdqV8yfVlcaM1srCnLyhF1l6iDfGvS0k6xvL9yhO+/F313xiC8LDOP2Ww9DLIaO9L+w+n8Ji906nea2SHfiAwR+PsoIimEzkrPNrsHESwLvbP9FvFMWofafDjGMb9Ka5lRdTbTpOZtbFLKLr2ii4nbQjCg8zNlaIdTqA4OoBez5DkOZmzwtT2E116lBz0FQKzL2Y4HTG/PY6OZP3k0Rvr6OMQmD2fv4GgH2eFDRJX14t3LRjXKDqE7As9NkMQXufoU8OFpkDN4XbpPoJXTTZBwF8EHCUVk57eJfQlB6l5esaKAiFQ5d0Zuti2/L0+X36PcK7TuWsWXDuyRrC812MzBOEhaRqR5J46gx6fb0v8lMKrz5kub1GPTiTHXIgAimVDkRg1Y5VVxjz1Zcg+FbTHc60UeHOtsBV1JtPhzB8WjGukalb0ZOtyiYYgPJSgc5dg7KlzaPE5pt3JT+8K4enSLc190IaBUrpfcdznyIN5qaTjXGR71sDlFv1tFYghYBy5jtfbpQeoZaja392p8ntDEB6uBNLpK6PfXQCOK1havUdYQF57nOm9ZKr0EtmJVwQwK4NsE2TZfy07wFJOvvRVBBdDSRsKx89fzHg9jpl+cLvsgFsPLSSu+sbbdbkUwxAepriQxoHWvS8dJdS/QYERGI+tsrzQpXfZ5KDw4k9MjxDEbK8UbaeNbsIw3PVXiAKczVtLpV1pFkNqjpXBkTaHa3S99qTGO+y51uOiDUN4WAYgNAUpNa4A6fEe54J6mkJ4enRL8xxzPlVsnux2JX9Jyz3UoHDtw7DrhaV+Tdmtkea5WB/PFHnno1ODrM7set2IQYQCsl6bYQivfaSelwK+GHhdQQzFeyE8vbqkuY6Lok7IJkBWDsJKfvJhhbI04g1e6kEPzuhFtANpDYSjYLa7Pekzp8kLVm97U7+hqt7cQHaryn8MQ3iDkz3ccaAQEQoC83efQniq9C9L76R5qJruV847J+bJznuZUdzQ18a+TwkNt6hvot2STrHRqQFWM3Zd2mP1diF/Iz0drNCtXxiG8HBXqOjOMoxqihCebn3S0AfGEhY6drC7oXrYlsSP/bpBozhPeM15gk6c2WpT+NowCMk5lbOKoDaknGiA7B9UnKDO0SZfd6X67wxDeFj3tw3XEVJrjLCsFcJTva+ZfoezL54TBjNEO2GQdx3QysHt7jU8steLw1gBxUrhJ8qGxThuGa5haSvXWS/epzU91LUYlmEID6BB9wvJ1ZDGcddhtPxMCE/ZjeU1BCSgiwgPI4LS/Y0mQMjV5aLtVD9QYmkwUZ+jpCvVDT5vsMe2tq+QEHer12YowoMBGAGbvqTihJr8hPD06pLGPO68cu8etr8FEklwvSSMEIkwO/fcmBeo0ll1jzVz1pTrDQE1dVGkCN+TjpkkhiI83B0gFbUt0dm7E2pyc7d/ITyVRoCJd4PlGcRf4YWF0gmWpP6aW/B7xOahiPuz5xMmRsO3UwepQyXc1Vu9JuZPXGYSgqZ6boYiPBhxISSA6uruSEjLz4Tw9OyW+h8b5NQ4UEYPKk/S3rRvCOo5/vY/1JI9lPF/VNGTpVugrZZIwsYJwVw4Zlyx2pTwd4KyORw+em6GIjxErGN9v1hhE1cgQ/VeCE/PbqnvsfsnuliZ+GbJHloT+yc39ijv4SdwaKBmRVZLuCVj7dy10PCzfoquu7qA7DBGUYyoqieXpnSe5RqK8BwgomzjhriFKqmhIjd3+wXpNg6USqaFo1Es/jw394JvtgOT3YSk931p37oduO76iutnSKcC2eml+aZXUyGP+HLhtgW4YVl/MP17Ng/o7Z02JOFltjwJqsO5dsBA3iMiPKP5iSUDQ/UaEEY+LpawDQMldCJ7RcCOCUc/O5jxPWW3RlneQeHangkNt2lLwsK4xLUxS+hq0U5DTB4MSXitwzUvDZ/elw6OTqb2857Ub/gOjTu/bNZGAOUCI2ouUljKVxxb569jQtn3oP+W1xaru61K6xaDjP2dskNuVZ2xnI2pu6b1Kbk9niEJD95aSOwsVsZO2clC8Xpr4ifsXhfCc9tvTP8hMiYGJrooqzWSZx/BVs2DUwOFqBBlYMeynsidhRnI3VjE5/BSG2EzJOEBGHh0IIzoDkAtPkPGx7XiXSLxboRequI5OFLDavsLuZAMCjUF4oFV9kGEq5zLX09ZrRE0Pj2s4tmaZ1ePqk67TbNDdsWNkjBCfq0RNsMSHuShj2f/ohvhwct2Nm+9FPExQi9V6Rxgp0O2REFHAp3OXe1Wq01JZL68RnwZikrXDxSrdJbm2g1uIFiRHcta5nZFtiZ2CecOG+WqDEt4kIu6W3ZYN8JDZ0c8IIJPZbMGApW9uXS5cCutinkvoFATdwR4tXgnZ1DYVTdx8vk469ttT/qH27GKOEQs842yGZbwHHUugl1uuOukvn6GRoT2vp65f0bpKGY9j6nnk+RIC8MNDDOyQFLDlH0GenbI975Vup+wNMYx7LoNTHbRsexltMpDeQaEmLUO1xkGHsMSHhCCUOChjIVVj5SdL5SvYUPMaH5sO4+bYXpnECcyNTvJMy9Uvj+Tu8atekcgfQc2KWQSYL9PB8t5ORfEaZr6rwgiRhkE6Pu582yvjnmPUpru0+TMuGGu09CE50hEDqRjqvEfNOTd8sOEYFTZjI8A7Emw0zUNVXKGw7WinW7TnALtG1hthKV+RQ8rTxJmNlYruuNvC3ePtdDjqtPkSbQXDiGk1RlpMzThQRS0rDudY3tc1RcC7bT+/A8dHMV80LCyGRcB2Fkhld412kSl3el0vXi36h7+FVFvc9hJXP0NJju72uwcvQBkDxHU3SlferSH3is/QrDFG2kzNOEBKKijIiYO8jL+kJWav0UFddmMiQCIBwnpRZ1JdCZvYZV7NfoBbrb70v7NAcViz53vByizGFFzYdExCQVzo9k3DU94SEiGJPb6uA8WBVeNju1pH+lNj2wZTGpMips/K+jKDU/1U2rTfbbRIaXJk+HcU7v68jmcE5cKtlJNXwHPIiFwIRtRVkskIRvJHYaYnCCQG7M7owXuG57wcEeFpxQ1a92Bq8Vnt0r3sWy1dHT9EcDSFTY6aNRdKtzCoUP+Sq370meQ5YM+d7/yBDUMlBHMK7LNIwAJN9TzgPyVOyzXx/6FHlae1lXK3VNbGZ7wHJJR5/M30OqYP7oF2B3oan62O+VfLBckMXmeulFoP4fOGuT/4RFMfnqXbXRwHriKTKrV5lA7QfwY8j8xS5F2d7TvHDtq4htucd6xO7wR8rMr+Quq7y823HIWV2F4wnNAjTv6fCfXR1Agtu4ajdk0bcjRBlo+OyL4UTQHdSCgxHEyZwUXeXI30NT4DPF1iNM7krWUMloeE0oOyPYagdkXM+wYOpr1s9usCrTBfIbSWp4RG205iysxDeG1DtfSmby1Hj1CanT4xfaBvNrGwbLXrS+vVEcADggQHWZ0yEmt6Mmm26X7aWP8X0Pe7iA72ACRE4v4OquWUAym0XDDR87sYjnuWA0lNd41hBSUu2s1DeGhalRU7WXakvCRLsta1B9FSIJsoUMA3lZ49hDUeyTzR9qc8BHPuFzL/S12YwrkOxjZsXrAEha5trAb2z3sxLWVEWQMgU+MP09xd8Ae9SyMHMZlGsJDA5R2pXPSdyCdOtj/YFBcLNhCbSPGSZNx7ZRme4/Z3NCzXp7JwS4EVY3DGT/Q9qTPVEns96XNoYqDdoWGXd9Eu9jrPHQi1Iy+WrRj0fCwbUmf8U1jZnbKw170/9hUhAf9MsT+6JVfuzP5C5at0r/ZzHsG8HYiQBgzOUigY4l0Nm8te0S1rEeMWSOWXw8qT7AzZGJmxLyghvjMUWkMy1TIYC2WAADHItJBjbyZivAAJGZ5e9P+o8uyFt47SFaNTA2Q3tr8Ru5UynObt8eNUM94KyGAu7AjkZ5Un6Xj2ctoXdyfg07k92UWp/wNiA4pg/DCJjTcYu+v8nzltTMCCBzOb48nOCqUOLq+RqFxmCIGJ3ucd2Cwd6YjvJ7xNoqqvUIwMruCrsV7BLimtzy2rdCjt/4LzxxIDssa5LUiIr+4M5luleyjHcmfa7ZUddcXEFu3If5Djt8D+do9F9ZrW9Icx8C6K8zjiu/B9P9SeXeGt13q/r3pCA+DCcV+4blbFvF7zUkPtjzIRsFrjHOR7TUCwAPy5ijHBwfTqdxVvFTdEPcBhyuAcBZbErkOIrXfQ/QTxXX6JzrYCyuOiddt5/oK2GB2h1KVa2OXeB1ncOghhMjom+kID4BCvQQFkn1pCLUHDQYsSO+3iqPUMdJg9PYN6flhhgS7am1fIaU2PWBlGZDKwYz/IxiwEZPlTjZI7TZZbH+w9yIFKrLmItX2FXBsnQQSe+8WmJ2DxJBtsph+IMYCAo3hwTWys8JxxaYkPIQNQNQxLPVrjwGQiw0CNb7blvgpa+WNTulbSd3RkKF+xh0fsWkwKSCKHra4xMY7BEWMC/kbaW/av3W5AXlqS4ROYCZ+vTiMclqjeGk9Mzsdapgssf/RqUG220EwFSoxnjDG5+ti3+diV3BsmGEzJeEBWER9I58Py6XFGiSU353P30jl3ZmWVURG3mr/RBe1jzRQfX8JlXSm8lIVNh1onaFeQSjxDXTfEOiErFdk7UXJgfaThTCzQwWyI1k/LRqCgrbB7G5v6r9NpQpuWsJDDBc3TObSRafcgQ4aX/4Hr+214p3zqhBkbhUNLPMwA0KAKYgOQcAgc9jiQOxYouppf/PWHlg6Y/mKuDqEukBwQmZ0/rEdbLBPByu4RKo3vPE9Mi7ulh3iyYd/R9Lv16YlPECGDg1bnl7SUSCATQl/Z9sV7oxGzB30tWtBXbqwI4nCq8/T2bx1HFEP8lgd/R4va0Kd7eDLAFvsN9uSPmW7avNQJZM1VgDilPC19ed/1zhYzsHfvsZDnspZRV2jzWQmySxTEx6aCQV+MQNZbDCE8juH1/Z+xXE24JvBIA57CxwNGc1PeDYEGxzirPamfkNbEz+eL3QTrk/Yj79tBVsqPIl57XEE0obhXIjOP6KDtiDIDvniG+I+9GksIRsmuu6K6WbRpic8JDQnNd5RtXaBv4MO4Rab4v9OETUXCVphRiE9eFERCNo0WEVl3RmU3RrJqT93yg4RouIPpP+XlyV6e1L9xRszEGRJ3CgOYwFQLMPGpyVTwj+am/81TBjAD2l9G+N9Izv0dziDmgYrAjmkrv8xPeEBvcaBMtZI0yMuzzFYeXkb/zeuZg8NNa2lwCGuAO8aMhpgv6rtK6KijiSKr79JEDA9kb2cdiZ/vmjit+NajPqM1Kb96d/SlaLtlNhwmzpHG00RCqHrCF/k4DDDQNz017IDfqlFI8USnm8zBm5bgvBwlyrryuBgZL1tTTDk3is/+spoHorlFYzLIFRUfIdzAQn4LcM1lNcey0tUlCVkcov8g0/LE6MSHG4iyyLfZOFXLLWw5IIjBU4V2YJDAEt/TBRQN9b39n+Db5hwCnWMNgZ3Ajr92xKEB1KBrM9vFcd0U0V2dBoEaUJEEgZd1EEIRTAmAp6LOpN5Ngn7Gwz27GCIgYPhfzlcQG/id+ARzPMvkW9x+EtM3VW+gYDcMasIxU1Ep/Gn22HLu7PY9o1IA1/bCEtZzO6Q6WTWXHJLEB56DYgFS0kEwGKg+NqIofgd8nwhRw8b2eOqM9Q2XO93GhrsgKPTg2xMLmhPYMVfBPmeylnJmQxhKV+9dDAsoXlyM4eTwRveuBbkK18r3k1pTQ85/g81YFmjbu6FbgRhhQM7VKSzWiP4hgwRBW/tofwev4dqCtIHzbpZhvDQACA9pMMgwl7ZUHq9hjMAJSZh4M1sCef823kl3dcxe+iEyFlEihaUdmF3S3n6G6dCoQj4hYJNHEQLI72eQdahxBAzB3hbsRR/WHmKsYK6NCTWJV9ZHWrBDQMB5BgfhzN/9HslhDROOLq6xppNrQZtKcIDeWBpi0LMeuTZeiIFhK4gTQe2vaKOZGoZquHKWwgNQTHjrJYIwrINnrIjmT9xDJw/Sw1PxzXy55iFIyPiYPr3LMCJAGdo5MEeaeZ4RnXoSd29wJlV3ZfP9l2oSC+mWOyuz+CGBDmtwvZEUzoqlGhaivAcFwY5opPZK3RPXHftPFiurYv7C10p3M7BvUhqN2p6luu5q/EeJI7rhdLNgfTvCLGLcEJIcSRHz1XzGfVBZtlzjxhFBJMHKpwLRxwC/LESMbv91JKEB+8lpu4QmFRjoKq5D4fnEXdNLHnxXs39G3VfmFVA9BMikTV9+SyiOj07xUtWsw8iNWlKrX2xks1kF4ecwKyC/hZoWUt4x1uHUdrgtSlGrfPUej+WJDwsbbFshJHfqARg9fPCbGJ3ypd0uXAr33xQgQz1QCDtBZl3tJFsoUEANXwhn4/YSwQTz5NdYOVND2f8SPntcZrHlYYGGROVafQXAIfqA1Km9PbaWp3ccH0gOKSlQaUEKjaJjb9SQUcC15TFAJRwEn97sP+/h/0Tsl3IpEGANmzHga4gEF6FHPXkxnsEL7lVNkvO8ByNMzo1QDmt0ewp9ddQaweSCuYaMZgQ+4cAZ8wkbpTs4dxK1D/A8geZH7KFHgEIaDhyo1GjAzccX5P/PbU/SBJhVXD+IVXSSpulCQ8NBXsewkIQ0hHo3c5TxwCJonPBI4zB73gg8NibcKKnfRr1c9zxUagF14g4OcQYXivaxalrqA8BnGXTDgFHKiGwRy45vN2BOiVc+9yKqHfYK4tc2anZSe0uSoMjWZ7w4KnCkupM3lrVl7YQDDids5q9jSgf6XggNxFufNeOZOb3q6LfZQzhdKjuzePgU0gwIeJewkg0GKkuh0C2Dfobwp1go1OzqBWC2jFT1zof3OUSQ/LW8oQH1GA/Ku5M4aVXsKSDuyjUfhE3B2kqSBIhaBiqJI4HisQg6wMhF4i9m89rfdM0BIjBg5nr4cwf6HbZfkppus81C1BRHnaieafDbEg6pOzUMwIIxIZmIWykBzO+p03xf1W9Chxkn55Un+OqfGbSufOMmvM3tiA8XDJqyaY23WeyCpT04N6/XXqAa+P2jrcvegdEZ8Edsm2knj1m5/LWcz3UQI8d6v9hBgevKuK1QNIZzY+poieLRQlAcpLx4DxwtHgHTzZIDjnZyY13WfUGWRJQjQmFTXptzBK6Xbqf6wdrcX16HMM2hAdwMUPBzAyBr4tVYnJHLiA7hLnAZuLvNj49zBkVCNEIJkTA3XkF+hmCgBGygCXR2by1rNqc/PQeZzt0jTbJMtXfRlbp91D+QegOilRhWRlTd40uFWzhdEk4igJtb2//Q7901GjBisiqm60ID43YMdLICrmrY/7kM+lheQdXfyBk5+g46ESwfSEnVg8lExA8luOQWUKu8bGsn+nX0gNcXhFSP1a01ziwN/Iz+gXESzGLxg0ZdVqSnt6ly0XbeCanpm3OE+khAH5Xypds9gHhWnmzHeFhaYaOhZxVeB09dQLl53D1V/XmBt0PMNND2hu8uMr9a/Ea13og/XueMUDhFppyyHCQLIegmzWoHaDsJYqD44YK0sFNaT6aQLsMHJgzoMgD+S2rb7YjPAxwzGZQdhD2EF+WmJktT9iWEmxngMcYDg7k+aJIdSiJDjODLYmfsDow1FdgB4KDBTYhhBpIpkOwrenf/x3xcqjpiywIFHI/kb2CZ/wI80G4z/LIt1T1tvrSv2Cqiau/yTNM9E+rb7YjPDQoSA+J0LltMZzfCVVdd50DhmEkTkO2CYVO1NhwXBigQyFhtSZmCcfHwYsX33CLo+4xm4P3OBRCpGrgYbV9TD4f40BgmD+ghAMpdBAK7L+w4Z7MWcGajVCKAcG563dafQblFEiQ9Y23q9a/jd6etiQ8R6NgCo/ZD4oJu+tkmIXBuwrJKbU2LKnbhutUidPD7BQCCfvTv6OLBZtZ/geFejDYJmZGxPGgVqO93A/CcSB+OTTZwxLnrcO1hBlbZU82FymHZxs3GoR1oJIaVK8RPoJZlFpBwe76aSCfwWF1q2Qvr3RUhsnQu7M14aFlsMyLrr3CVcdcDcTIzoitu0bDz/pVa0ReUj+f5Dt9IB0VBmbYAJG3isF0vSSM9fSQmA/dMxAdQnAwMPHA3Rs2S+Wjc7SJSRfEGMgDQa/K/S32um+i49W5OM7J3TPSAHHuyIEO9QNZIUqMHOcDxwHCjXpe4gVvNcKKmoeqGaeSrlQO18FNEnJJqAdxLn89Hc74gXYlf+H2phlIG4f6Pyuj3mFTB1Rr7LbZnvDQ4LCrJTTcXnAXRpFtGJRDodd2One13wME3t01sX9i5VnMJkDWWGrD04c0oNq+Al7GYpYRWXORH5j5wemifOxL+zao4uVYjiv3t9jrq0U7Xp2L45zcPSM9CmIDuIZQP0q70lncIKr2ktO5Pak+ywrTJ7J/4etDAv58CJN2DoRQkx36ELKA6vqL7MZ1fL1CeEQcVIv0s/j6W6w27Oh0WIrAO4uljNqbv4SH5SsIGAndlwq3cGwW7EFIA9qd8hVtS/qMl06wDWFmiuBUPFZHzxf2wZLK8UAMXjChMYgHc+zL2zOS0B3nstjzhvgPWQEZmIf6AScBwnNczweOA5gxEIaE6wJOoQjwdfQvrZ9xPWGpX1NVT45tc5+F8F4yGWxrWH49qDzB9RXQGUEeMDojnETtzV/Cm0/ef4eXTlsSP+agYYQTaD1o5HiB6crpjRvCko5mLuVYOzvbd4XwXJgMNi0k/2MpgxkAai3AxqPWNu8hnqATOSuErMLNSR56k5e/xwfZQcIL5hl469EH7boJ4blpeRhzUVAHhuirRTt55ufmZwF9BJtbx2gDHcr4QQhPCC/kfQDLWMzsHGQXUKe10J+E8Dw0JlLQHladoh3J/2SPplp3RQT9pjU/YgUVf+/U8nuZEfrTB2AGCUv5mpexEoc5P9CF8DwQx6fpzgAAChdJREFUHjyfiL+b9x4msqaeh5/69TFi/07kLCexvwl5+UNe/v4WQc27kr+k8u4sztVV64btV2c34I+F8BZpFAhcwnuL+rGIzwIJBrMhrQs1aGEfRDydv51Yfi8k6UsfgLcZMl8lnWkvde2kYJJj3ArhOZBY5BkBqXggIDbQDTO7os4kju8KpcyPLwNCfmNd4kQGBWIfIT6L/F0ringGOgbxPyE8H9FDLN58PN58gWN/anQiAwKKyxcKNsmsThwVIesDWDnA2VbVm+djr7bfz4Tw/GxzKEpAWglGYMTuebqDQo0ES2CQJPJbIUclMyvrzqz0bFukRCJQ+reKY5wK52eXttXPhfD8bG7Y9QYnuqmoM5lrriIn03UD0cH2l9ceRwgwNoIyhp4DUo4dWqJHZg2yhOBkC9bO7NqXrfZeCM/PFkWFLujpIWEeNTKginGtaOernEwklEOSG2lfe1K/odUx74mDQpaxIZndQ9YMmo5whPVPdAnZ+TCWhfB8AMndT3AnresvpgcVJ1heypH/CSWTYPJUZTYU2tmQVfBFPzuTu5ZTH0MhbuGuz1vhMyG8IFsRldkhLwVNPRQwVrvYt1UGqFyHOkSOmymcE5cLt7EnNhTCFkEOCUP/XQhPheaBE6OsK4Nld6C24W9FNCEDdcjA2ji+weUIYA9mleKJDhV6rv12IYSnQps7atBCGBM2PYgOWHvwCUFp3b6/RL7F+dfZLZFcbMcO9SdUGJoLdiGEtwCSwD9AoCeWuImNd1SRcNd6UMnxjEnk8MKiADy0GREVIGligY9RIbzAsfP4T4SkoEAQIt5hb/GlMpqQjTHJRs92wawOXljYiFGYW2oHexxyPn8hhOczVP79ENXJWoZqOBj0QPp/dalFq+dglWMHTuAgOlQUQz5sTms0od6HbOogIISnDo5u94KlB4gvvz2eO+98yIqIBggZeiZDZEzsTvkXPaw6zYHEYqtzO7QC/lAIL2DofPsjSO/5i3nbXmz9dVFKkSDkRR1ayLeu6MmSYum+DS+/fyWE5zdkgf0BDg3Y9lCcGQZo2PZkpuN5pmMnbKCNiEpi6U2P2AyCMCfZQoOAEF5ocHW7V6SlTT2f4BqnEBZFpLyEsNiX9FZEv0N70/5N98qPcCFvqOrMzs267TvyoToICOGpg6Pfe5mcGaeK7izu7Li74y4voqDWJz9k4sApsSPpnywXhqLeKCcgmzYICOFpg7PHo2D5UtmTQ6dyV3M9VlSFl/Q0axIfhF/Xxf2ZUOA7tu46E52om3gcGiH5QggvJLD6vlM4NbCMQYxVaVc6e3NRacpONiy7XOvO5C8ovOY8K+2gmBNMHLJpi4AQnrZ4L3o0zPbahusoo/kJL3dWibSU6YkfedVHMn+kuPobVNdXRAOTkHGalmyJRUdC6L4UwgsdtgHtGXFXSB+q7Sui5Ma7dLlwK5d0RHyWXWZCVrhOOKOgiRhVc4k9830THUx0AXUK+ZNqCAjhqQalujuaFySYorr+IkpovM0FwVmCKvodUWMxYCwf7K5IIYQu4rGsZXS/4jjXMRmfHiYJHlZ3bASzNyG8YNDT8L8Dk92sbHsyZyXP+FCKD94+K8yGzHwN8KyvjH6XZfz3p39Hj6vOUkN/CU3OjGnYO+RQviIghOcrUjr/Ds4NR2Ggp4MV9KT6LIWlfiWEp/Nsb03sEvawZ7dGEeLo2D4nzgidR4vnwwvhecbGsN9MzT6jockeVtBAPQPU0NiW9BmJd1ebcJaV0e9wcabwmgtU1p3BXlfIrM8vXecM22/kxKQuran7AMpEYlbROFBGhR1JFFFzkb27u1K+kJmfyjM/mBAOZ/5Ad8oOUlrTA6rtK6DuseagirObuvOZ9ORlhmfShnN32rDzVffmUVLjXa6kdjz7F9qV/AWtjvmjEKCfBIjZ8paEj1iPDjPoR1VnWOOwfaSBkBctmzkREMIzZ7stetaw9cFoXtNbQHH1N+liwWYKS/mKPYjrYt+nFVFvSxqbCwEui/g9axZC1GFH8ueEm8WDypNU0pVGg5M9UgJx0R5nni+F8MzTVkGdKZa+WPbeKTtE+9K/lVmfC+FBRh0xjwkNt1ncAbnOslkPASE867Wp2ytC+hoyOTBbQRHx2r5CSm9+xIrMJ3KWv5Sif9MWS18INRxM/55ulOxhgivvzqKO0UaW78KNAWl+mCXLZj0EhPCs16Y+XdHM7BQNP+sj2KRAfpj9wRgfXn2BrhXt4iyBPalfm1qaHvFxCATel/YfupC/kcsbIsUrry2WqnpyqGWomkkOqtSy2QMBITx7tLNPV4mZzcBEN3t9SzpTeQYYXn2ebpfu54JE5/I3cKlA2AO3JX5KWAaCVPSswwvvKZwLcM5g1gbbG2pB3CgJY0cDlqiZLeFU1ZvH5I7wEdnsi4AQnn3b3ucrx2wQS+HW4ToqaE8giJc+qT7HRHg+fyMdyfyJDqR/R3tSv2HiAfkgLhCFaDbF/83psTH+Q1ob+z7r/2Fp6Xig3gfyT11/j8LTmKVhn3ig3gNEMw9mfM+PG8Vh9KDyBEE+H5XiKrqz2QY3Pj3i8/XJD+2DgBCefdo6pFcKUuwbb6f6/hKq6y9+RYwxdVdJ+UCGyLWinXQye7nT41LBZvqt4qjTb/G/+IablNHyhPeJfTcPVXPQdUgvRnZuWQSE8CzbtNpeGMQOZl/MsMEfS2N4OZE4PzY95PSAU2DoWS8NTHQ5PTCDHJnqd/rt/H+H2dmCfeIBYp2de67txcnRLIOAEJ5lmlIuRBAQBLwhIITnDSH5XhAQBCyDgBCeZZpSLkQQEAS8ISCE5w0h+V4QEAQsg4AQnmWaUi5EEBAEvCEghOcNIfleEBAELIOAEJ5lmlIuRBAQBLwhIITnDSH5XhAQBCyDgBCeZZpSLkQQEAS8ISCE5w0h+V4QEAQsg4AQnmWaUi5EEBAEvCEghOcNIfleEBAELIOAEJ5lmlIuRBAQBLwhIITnDSH5XhAQBCyDgBCeZZpSLkQQEAS8ISCE5w0h+V4QEAQsg4AQnmWaUi5EEBAEvCEghOcNIfleEBAELIOAEJ5lmlIuRBAQBLwhIITnDSH5XhAQBCyDgBCeZZpSLkQQEAS8ISCE5w0h+V4QEAQsg4AQnmWaUi5EEBAEvCEghOcNIfleEBAELIOAEJ5lmlIuRBAQBLwhIITnDSH5XhAQBCyDgBCeZZpSLkQQEAS8ISCE5w0h+V4QEAQsg4AQnmWaUi5EEBAEvCEghOcNIfleEBAELIOAEJ5lmlIuRBAQBLwhIITnDSH5XhAQBCyDgBCeZZpSLkQQEAS8ISCE5w0h+V4QEAQsg4AQnmWaUi5EEBAEvCEghOcNIfleEBAELIOAEJ5lmlIuRBAQBLwhIITnDSH5XhAQBCyDgBCeZZpSLkQQEAS8ISCE5w0h+V4QEAQsg4AQnmWaUi5EEBAEvCHw/wEHK41qHBNwtQAAAABJRU5ErkJggg==;" parent="1" vertex="1">
          <mxGeometry x="554" y="400.75" width="81.2" height="83" as="geometry" />
        </mxCell>
        <mxCell id="tSnX5RXje4xO9rxQiIv1-3" value="User" style="shape=image;verticalLabelPosition=bottom;labelBackgroundColor=#ffffff;verticalAlign=top;aspect=fixed;imageAspect=0;image=data:image/svg+xml,PHN2ZyB4bWxuczpjYz0iaHR0cDovL2NyZWF0aXZlY29tbW9ucy5vcmcvbnMjIiB4bWxuczpkYz0iaHR0cDovL3B1cmwub3JnL2RjL2VsZW1lbnRzLzEuMS8iIHhtbG5zOmlua3NjYXBlPSJodHRwOi8vd3d3Lmlua3NjYXBlLm9yZy9uYW1lc3BhY2VzL2lua3NjYXBlIiB4bWxuczpyZGY9Imh0dHA6Ly93d3cudzMub3JnLzE5OTkvMDIvMjItcmRmLXN5bnRheC1ucyMiIHhtbG5zOnNvZGlwb2RpPSJodHRwOi8vc29kaXBvZGkuc291cmNlZm9yZ2UubmV0L0RURC9zb2RpcG9kaS0wLmR0ZCIgeG1sbnM6c3ZnPSJodHRwOi8vd3d3LnczLm9yZy8yMDAwL3N2ZyIgeG1sbnM9Imh0dHA6Ly93d3cudzMub3JnLzIwMDAvc3ZnIiB4bWxuczp4bGluaz0iaHR0cDovL3d3dy53My5vcmcvMTk5OS94bGluayIgdmVyc2lvbj0iMS4xIiBpZD0ic3ZnMTAwNzM2IiBpbmtzY2FwZTp2ZXJzaW9uPSIwLjkyLjMgKDI0MDU1NDYsIDIwMTgtMDMtMTEpIiBzb2RpcG9kaTpkb2NuYW1lPSJ1c2Vycy5zdmciIHg9IjBweCIgeT0iMHB4IiB2aWV3Qm94PSIwIDAgMTkyLjEyIDIyNC45MSIgc3R5bGU9ImVuYWJsZS1iYWNrZ3JvdW5kOm5ldyAwIDAgMTkyLjEyIDIyNC45MTsiIHhtbDpzcGFjZT0icHJlc2VydmUiPiYjeGE7PHNvZGlwb2RpOm5hbWVkdmlldyBib3JkZXJjb2xvcj0iIzY2NjY2NiIgYm9yZGVyb3BhY2l0eT0iMSIgZml0LW1hcmdpbi1ib3R0b209IjAiIGZpdC1tYXJnaW4tbGVmdD0iMCIgZml0LW1hcmdpbi1yaWdodD0iMCIgZml0LW1hcmdpbi10b3A9IjAiIGdyaWR0b2xlcmFuY2U9IjEwIiBndWlkZXRvbGVyYW5jZT0iMTAiIGlkPSJuYW1lZHZpZXcxMDA3MzgiIGlua3NjYXBlOmN1cnJlbnQtbGF5ZXI9InN2ZzEwMDczNiIgaW5rc2NhcGU6Y3g9IjIwMS40NDcwNiIgaW5rc2NhcGU6Y3k9IjczLjk2NDI1MyIgaW5rc2NhcGU6cGFnZW9wYWNpdHk9IjAiIGlua3NjYXBlOnBhZ2VzaGFkb3c9IjIiIGlua3NjYXBlOndpbmRvdy1oZWlnaHQ9IjEwMTciIGlua3NjYXBlOndpbmRvdy1tYXhpbWl6ZWQ9IjEiIGlua3NjYXBlOndpbmRvdy13aWR0aD0iMTkyMCIgaW5rc2NhcGU6d2luZG93LXg9Ii04IiBpbmtzY2FwZTp3aW5kb3cteT0iLTgiIGlua3NjYXBlOnpvb209IjEuNDQ1NTY5IiBvYmplY3R0b2xlcmFuY2U9IjEwIiBwYWdlY29sb3I9IiNmZmZmZmYiIHNob3dncmlkPSJmYWxzZSI+JiN4YTsJPC9zb2RpcG9kaTpuYW1lZHZpZXc+JiN4YTs8ZyBpZD0iZzEwMDczNCIgdHJhbnNmb3JtPSJ0cmFuc2xhdGUoLTQuOTkwNTY4MWUtNywwLjAwNDQ1NzEzKSI+JiN4YTsJPHRpdGxlIGlkPSJ0aXRsZTEwMDU4NCI+UGFnZS0xPC90aXRsZT4mI3hhOwk8ZyBpZD0iZ3JvdXA1NTkzLTEiIHRyYW5zZm9ybT0idHJhbnNsYXRlKDAuMTQ5OTk5LC0wLjE0OTk5OSkiPiYjeGE7CQk8dGl0bGUgaWQ9InRpdGxlMTAwNTg2Ij5Vc2VyczwvdGl0bGU+JiN4YTsJCTxnIGlkPSJzaGFwZTU1OTQtMiIgdHJhbnNmb3JtPSJ0cmFuc2xhdGUoMjguNDk5MiwtMTM2LjY4MSkiPiYjeGE7CQkJPHRpdGxlIGlkPSJ0aXRsZTEwMDU4OCI+U2hlZXQuNTU5NDwvdGl0bGU+JiN4YTsJCQk8cGF0aCBpZD0icGF0aDEwMDU5MCIgaW5rc2NhcGU6Y29ubmVjdG9yLWN1cnZhdHVyZT0iMCIgc3R5bGU9ImZpbGw6IzZENDgyOTsiIGQ9Ik0wLDIyNC45MXYtMjguNDRoNDcuMzR2MjguNDRIMHoiLz4mI3hhOwkJPC9nPiYjeGE7CQk8ZyBpZD0ic2hhcGU1NTk1LTQiIHRyYW5zZm9ybT0idHJhbnNsYXRlKDAuMTE5OTk3LC0zMC42MDAyKSI+JiN4YTsJCQk8dGl0bGUgaWQ9InRpdGxlMTAwNTkzIj5TaGVldC41NTk1PC90aXRsZT4mI3hhOwkJCTxwYXRoIGlkPSJwYXRoMTAwNTk1IiBpbmtzY2FwZTpjb25uZWN0b3ItY3VydmF0dXJlPSIwIiBzdHlsZT0iZmlsbDojNDBDNUFGOyIgZD0iTTIyLjAyLDExMC4zMWg2MC4yNCAgICAgYzEyLjEyLDAsMjIuMDIsMTAuOCwyMi4wMiwyMy41MnYxOS42Mkg4Mi4zMnY3MS40NkgyMi4wOHYtNzEuNDZIMHYtMTkuNTZsMCwwYzAtMTIuNzgsOS45LTIzLjUyLDIyLjAyLTIzLjUyVjExMC4zMXoiLz4mI3hhOwkJPC9nPiYjeGE7CQk8ZyBpZD0ic2hhcGU1NTk2LTYiIHRyYW5zZm9ybT0idHJhbnNsYXRlKDg3LjE3NzYsLTQzLjA4MDMpIj4mI3hhOwkJCTx0aXRsZSBpZD0idGl0bGUxMDA1OTgiPlNoZWV0LjU1OTY8L3RpdGxlPiYjeGE7CQkJPHBhdGggaWQ9InBhdGgxMDA2MDAiIGlua3NjYXBlOmNvbm5lY3Rvci1jdXJ2YXR1cmU9IjAiIHN0eWxlPSJmaWxsOiNFMEJCOEQ7IiBkPSJNMTQuODIsMjI0Ljg1aDI0LjY2di0xOC44NEgxNy4yMnYtNDAuMDhIMCAgICAgdjQ0LjE2bDAsMGMwLjA2LDguMTYsNi42NiwxNC43NiwxNC44MiwxNC44MlYyMjQuODV6Ii8+JiN4YTsJCTwvZz4mI3hhOwkJPGcgaWQ9InNoYXBlNTU5Ny04Ij4mI3hhOwkJCTx0aXRsZSBpZD0idGl0bGUxMDA2MDMiPlNoZWV0LjU1OTc8L3RpdGxlPiYjeGE7CQkJPHBhdGggaWQ9InBhdGgxMDA2MDUiIGlua3NjYXBlOmNvbm5lY3Rvci1jdXJ2YXR1cmU9IjAiIHN0eWxlPSJmaWxsOiNFMEJCOEQ7IiBkPSJNMCwxMjIuODVoMTcuMjJ2MTAyLjA2SDBWMTIyLjg1eiIvPiYjeGE7CQk8L2c+JiN4YTsJCTxnIGlkPSJzaGFwZTU1OTgtMTAiPiYjeGE7CQkJPHRpdGxlIGlkPSJ0aXRsZTEwMDYwOCI+U2hlZXQuNTU5ODwvdGl0bGU+JiN4YTsJCQkmI3hhOwkJCQk8cGF0aCBpZD0icGF0aDEwMDYxMCIgaW5rc2NhcGU6Y29ubmVjdG9yLWN1cnZhdHVyZT0iMCIgc3R5bGU9ImZpbGw6bm9uZTtzdHJva2U6I0ZGRkZGRjtzdHJva2Utd2lkdGg6MC4zO3N0cm9rZS1saW5lY2FwOnJvdW5kO3N0cm9rZS1saW5lam9pbjpyb3VuZDtzdHJva2UtbWl0ZXJsaW1pdDozOyIgZD0iICAgICBNMCwxMjIuODVoMTcuMjJ2MTAyLjA2SDBWMTIyLjg1eiIvPiYjeGE7CQk8L2c+JiN4YTsJCTxnIGlkPSJzaGFwZTU1OTktMTIiIHRyYW5zZm9ybT0idHJhbnNsYXRlKDExMi40OTcsLTY4LjQwMDUpIj4mI3hhOwkJCTx0aXRsZSBpZD0idGl0bGUxMDA2MTMiPlNoZWV0LjU1OTk8L3RpdGxlPiYjeGE7CQkJPHBhdGggaWQ9InBhdGgxMDA2MTUiIGlua3NjYXBlOmNvbm5lY3Rvci1jdXJ2YXR1cmU9IjAiIHN0eWxlPSJmaWxsOiMzRjU3NjU7IiBkPSJNNzkuMzIsMTg2LjUxbC0yMC44OCwzOC40SDBsMjAuNTgtMzguNCAgICAgTDc5LjMyLDE4Ni41MXoiLz4mI3hhOwkJPC9nPiYjeGE7CQk8ZyBpZD0ic2hhcGU1NjAwLTE0IiB0cmFuc2Zvcm09InRyYW5zbGF0ZSgxMTIuNDk3LC02OC40MDA1KSI+JiN4YTsJCQk8dGl0bGUgaWQ9InRpdGxlMTAwNjE4Ij5TaGVldC41NjAwPC90aXRsZT4mI3hhOwkJCSYjeGE7CQkJCTxwYXRoIGlkPSJwYXRoMTAwNjIwIiBpbmtzY2FwZTpjb25uZWN0b3ItY3VydmF0dXJlPSIwIiBzdHlsZT0iZmlsbDpub25lO3N0cm9rZTojRkZGRkZGO3N0cm9rZS13aWR0aDowLjM7c3Ryb2tlLWxpbmVjYXA6cm91bmQ7c3Ryb2tlLWxpbmVqb2luOnJvdW5kO3N0cm9rZS1taXRlcmxpbWl0OjM7IiBkPSIgICAgIE03OS4zMiwxODYuNTFsLTIwLjg4LDM4LjRIMGwyMC41OC0zOC40TDc5LjMyLDE4Ni41MXoiLz4mI3hhOwkJPC9nPiYjeGE7CQk8ZyBpZD0ic2hhcGU1NjAxLTE2IiB0cmFuc2Zvcm09InRyYW5zbGF0ZSgwLC05Ny4wMjA4KSI+JiN4YTsJCQk8dGl0bGUgaWQ9InRpdGxlMTAwNjIzIj5TaGVldC41NjAxPC90aXRsZT4mI3hhOwkJCTxwYXRoIGlkPSJwYXRoMTAwNjI1IiBpbmtzY2FwZTpjb25uZWN0b3ItY3VydmF0dXJlPSIwIiBzdHlsZT0iZmlsbDojQzM5ODZGOyIgZD0iTTE3LjIyLDIyNC45MXYtNS4wNEgwdjUuMDRIMTcuMjJ6Ii8+JiN4YTsJCTwvZz4mI3hhOwkJPGcgaWQ9InNoYXBlNTYwMi0xOCIgdHJhbnNmb3JtPSJ0cmFuc2xhdGUoMCwtOTcuMDIwOCkiPiYjeGE7CQkJPHRpdGxlIGlkPSJ0aXRsZTEwMDYyOCI+U2hlZXQuNTYwMjwvdGl0bGU+JiN4YTsJCQkmI3hhOwkJCQk8cGF0aCBpZD0icGF0aDEwMDYzMCIgaW5rc2NhcGU6Y29ubmVjdG9yLWN1cnZhdHVyZT0iMCIgc3R5bGU9ImZpbGw6bm9uZTtzdHJva2U6I0ZGRkZGRjtzdHJva2Utd2lkdGg6MC4zO3N0cm9rZS1saW5lY2FwOnJvdW5kO3N0cm9rZS1saW5lam9pbjpyb3VuZDtzdHJva2UtbWl0ZXJsaW1pdDozOyIgZD0iICAgICBNMTcuMjIsMjI0Ljkxdi01LjA0SDB2NS4wNEgxNy4yMnoiLz4mI3hhOwkJPC9nPiYjeGE7CQk8ZyBpZD0ic2hhcGU1NjAzLTIwIiB0cmFuc2Zvcm09InRyYW5zbGF0ZSg4Ny4xNzc2LC05Ny4wMjA4KSI+JiN4YTsJCQk8dGl0bGUgaWQ9InRpdGxlMTAwNjMzIj5TaGVldC41NjAzPC90aXRsZT4mI3hhOwkJCTxwYXRoIGlkPSJwYXRoMTAwNjM1IiBpbmtzY2FwZTpjb25uZWN0b3ItY3VydmF0dXJlPSIwIiBzdHlsZT0iZmlsbDojQzM5ODZGOyIgZD0iTTE3LjIyLDIyNC45MXYtNS4wNEgwdjUuMDRIMTcuMjJ6Ii8+JiN4YTsJCTwvZz4mI3hhOwkJPGcgaWQ9InNoYXBlNTYwNC0yMiIgdHJhbnNmb3JtPSJ0cmFuc2xhdGUoODcuMTc3NiwtOTcuMDIwOCkiPiYjeGE7CQkJPHRpdGxlIGlkPSJ0aXRsZTEwMDYzOCI+U2hlZXQuNTYwNDwvdGl0bGU+JiN4YTsJCQkmI3hhOwkJCQk8cGF0aCBpZD0icGF0aDEwMDY0MCIgaW5rc2NhcGU6Y29ubmVjdG9yLWN1cnZhdHVyZT0iMCIgc3R5bGU9ImZpbGw6bm9uZTtzdHJva2U6I0ZGRkZGRjtzdHJva2Utd2lkdGg6MC4zO3N0cm9rZS1saW5lY2FwOnJvdW5kO3N0cm9rZS1saW5lam9pbjpyb3VuZDtzdHJva2UtbWl0ZXJsaW1pdDozOyIgZD0iICAgICBNMTcuMjIsMjI0Ljkxdi01LjA0SDB2NS4wNEgxNy4yMnoiLz4mI3hhOwkJPC9nPiYjeGE7CQk8ZyBpZD0ic2hhcGU1NjA1LTI0IiB0cmFuc2Zvcm09InRyYW5zbGF0ZSg0MS44Nzg5LC0xMzcuNTgxKSI+JiN4YTsJCQk8dGl0bGUgaWQ9InRpdGxlMTAwNjQzIj5TaGVldC41NjA1PC90aXRsZT4mI3hhOwkJCTxwYXRoIGlkPSJwYXRoMTAwNjQ1IiBpbmtzY2FwZTpjb25uZWN0b3ItY3VydmF0dXJlPSIwIiBzdHlsZT0iZmlsbDojRTFCQzhGOyIgZD0iTTAsMTkxLjQzaDIwLjI4djI3Ljg0bC0xMC4zMiw1LjY0TDAsMjE5LjI3ICAgICBWMTkxLjQzeiIvPiYjeGE7CQk8L2c+JiN4YTsJCTxnIGlkPSJzaGFwZTU2MDYtMjYiIHRyYW5zZm9ybT0idHJhbnNsYXRlKDIzLjM5OTQsLTE4MC40MjEpIj4mI3hhOwkJCTx0aXRsZSBpZD0idGl0bGUxMDA2NDgiPlNoZWV0LjU2MDY8L3RpdGxlPiYjeGE7CQkJPHBhdGggaWQ9InBhdGgxMDA2NTAiIGlua3NjYXBlOmNvbm5lY3Rvci1jdXJ2YXR1cmU9IjAiIHN0eWxlPSJmaWxsOiNDNDk5NzA7IiBkPSJNNTcuNzIsMjIxLjc5YzAsMS42Mi0xLjIsMy0yLjgyLDMuMTJIMi44OCAgICAgYy0xLjYyLTAuMTItMi44OC0xLjUtMi44OC0zLjEydi02LjI0YzAtMS41NiwxLjMyLTIuODIsMi44OC0yLjgySDU0LjljMS41NiwwLDIuODIsMS4yNiwyLjgyLDIuODJWMjIxLjc5eiIvPiYjeGE7CQk8L2c+JiN4YTsJCTxnIGlkPSJzaGFwZTU2MDctMjgiIHRyYW5zZm9ybT0idHJhbnNsYXRlKDQyLjExODksLTEzNy41ODEpIj4mI3hhOwkJCTx0aXRsZSBpZD0idGl0bGUxMDA2NTMiPlNoZWV0LjU2MDc8L3RpdGxlPiYjeGE7CQkJJiN4YTsJCQkJPHBhdGggaWQ9InBhdGgxMDA2NTUiIGlua3NjYXBlOmNvbm5lY3Rvci1jdXJ2YXR1cmU9IjAiIHN0eWxlPSJmaWxsOm5vbmU7c3Ryb2tlOiNGRkZGRkY7c3Ryb2tlLXdpZHRoOjAuNDg7c3Ryb2tlLWxpbmVjYXA6cm91bmQ7c3Ryb2tlLWxpbmVqb2luOnJvdW5kO3N0cm9rZS1taXRlcmxpbWl0OjM7IiBkPSIgICAgIE0wLDE5MS40M2gyMC4yOHYyNy44NGwtMTAuMjYsNS42NEwwLDIxOS4yN1YxOTEuNDN6Ii8+JiN4YTsJCTwvZz4mI3hhOwkJPGcgaWQ9InNoYXBlNTYwOC0zMCIgdHJhbnNmb3JtPSJ0cmFuc2xhdGUoNDIuMTE4OSwtMTUzLjU0MSkiPiYjeGE7CQkJPHRpdGxlIGlkPSJ0aXRsZTEwMDY1OCI+U2hlZXQuNTYwODwvdGl0bGU+JiN4YTsJCQk8cGF0aCBpZD0icGF0aDEwMDY2MCIgaW5rc2NhcGU6Y29ubmVjdG9yLWN1cnZhdHVyZT0iMCIgc3R5bGU9ImZpbGw6I0M0OTk3MDsiIGQ9Ik0wLDIyMy43MWMzLjMsMC45LDYuNjYsMS4zMiwxMC4wMiwxLjIgICAgIGMzLjQ4LDAuMDYsNi45LTAuMzYsMTAuMjYtMS4ydi0xNi4zMkgwVjIyMy43MXoiLz4mI3hhOwkJPC9nPiYjeGE7CQk8ZyBpZD0ic2hhcGU1NjA5LTMyIiB0cmFuc2Zvcm09InRyYW5zbGF0ZSgyOC43MzkyLC0xNTcuMzIxKSI+JiN4YTsJCQk8dGl0bGUgaWQ9InRpdGxlMTAwNjYzIj5TaGVldC41NjA5PC90aXRsZT4mI3hhOwkJCTxwYXRoIGlkPSJwYXRoMTAwNjY1IiBpbmtzY2FwZTpjb25uZWN0b3ItY3VydmF0dXJlPSIwIiBzdHlsZT0iZmlsbDojRTFCQzhGOyIgZD0iTTAsMTc5Ljk3djM3LjE0YzYuNzgsNC45OCwxNC45NCw3LjY4LDIzLjQsNy44ICAgICBjOC41OC0wLjEyLDE2Ljk4LTIuODIsMjQtNy44di0zNy4xNEgweiIvPiYjeGE7CQk8L2c+JiN4YTsJCTxnIGlkPSJzaGFwZTU2MTAtMzQiIHRyYW5zZm9ybT0idHJhbnNsYXRlKDI4LjQzOTIsLTE4OS4xMjEpIj4mI3hhOwkJCTx0aXRsZSBpZD0idGl0bGUxMDA2NjgiPlNoZWV0LjU2MTA8L3RpdGxlPiYjeGE7CQkJPHBhdGggaWQ9InBhdGgxMDA2NzAiIGlua3NjYXBlOmNvbm5lY3Rvci1jdXJ2YXR1cmU9IjAiIHN0eWxlPSJmaWxsOiM2RDQ4Mjk7IiBkPSJNMzMuNjYsMTkxLjQ5Yy0zLTEuNS02LjMtMi4yOC05LjY2LTIuMjIgICAgIGMtMTMuMi0wLjEyLTI0LDEwLjU2LTI0LDIzLjc2djExLjg4QzE3Ljc2LDIyMi42OSwzMS44LDIwOC45NSwzMy42NiwxOTEuNDl6Ii8+JiN4YTsJCTwvZz4mI3hhOwkJPGcgaWQ9InNoYXBlNTYxMS0zNiIgdHJhbnNmb3JtPSJ0cmFuc2xhdGUoNDIuNDc4OSwtMTg5LjEyMSkiPiYjeGE7CQkJPHRpdGxlIGlkPSJ0aXRsZTEwMDY3MyI+U2hlZXQuNTYxMTwvdGl0bGU+JiN4YTsJCQk8cGF0aCBpZD0icGF0aDEwMDY3NSIgaW5rc2NhcGU6Y29ubmVjdG9yLWN1cnZhdHVyZT0iMCIgc3R5bGU9ImZpbGw6IzZENDgyOTsiIGQ9Ik0wLDE5MS40OWMzLjA2LTEuNTYsNi40OC0yLjI4LDkuOTYtMi4yMiAgICAgYzEzLjA4LDAsMjMuNywxMC42MiwyMy43LDIzLjc2djExLjg4QzE2LjE0LDIyMi43NSwyLjI4LDIwOS4wMSwwLDE5MS40OXoiLz4mI3hhOwkJPC9nPiYjeGE7CQk8ZyBpZD0ic2hhcGU1NjEyLTM4IiB0cmFuc2Zvcm09InRyYW5zbGF0ZSg0Mi4xMTg5LC0xNjYuMDgxKSI+JiN4YTsJCQk8dGl0bGUgaWQ9InRpdGxlMTAwNjc4Ij5TaGVldC41NjEyPC90aXRsZT4mI3hhOwkJCTxwYXRoIGlkPSJwYXRoMTAwNjgwIiBpbmtzY2FwZTpjb25uZWN0b3ItY3VydmF0dXJlPSIwIiBzdHlsZT0iZmlsbDojRkZGRkZGOyIgZD0iTTAsMjE5LjkzYzIuNDYsMy4yNCw2LjMsNS4xLDEwLjMyLDQuOTggICAgIGMzLjk2LDAuMDYsNy42OC0xLjgsMTAuMDItNC45OEgweiIvPiYjeGE7CQk8L2c+JiN4YTsJCTxnIGlkPSJzaGFwZTU2MTMtNDAiIHRyYW5zZm9ybT0idHJhbnNsYXRlKDQ5LjAxODcsLTE3NS4zODEpIj4mI3hhOwkJCTx0aXRsZSBpZD0idGl0bGUxMDA2ODMiPlNoZWV0LjU2MTM8L3RpdGxlPiYjeGE7CQkJPHBhdGggaWQ9InBhdGgxMDA2ODUiIGlua3NjYXBlOmNvbm5lY3Rvci1jdXJ2YXR1cmU9IjAiIHN0eWxlPSJmaWxsOiNDNDk5NzA7IiBkPSJNMCwyMjMuMzVjMC44NCwwLjk2LDIuMSwxLjU2LDMuNDIsMS41NiAgICAgYzEuMjYsMCwyLjQtMC42LDMuMTItMS41NkgweiIvPiYjeGE7CQk8L2c+JiN4YTsJCTxnIGlkPSJzaGFwZTU2MTQtNDIiIHRyYW5zZm9ybT0idHJhbnNsYXRlKDM5LjU4MzksLTE4NS4xMDEpIj4mI3hhOwkJCTx0aXRsZSBpZD0idGl0bGUxMDA2ODgiPlNoZWV0LjU2MTQ8L3RpdGxlPiYjeGE7CQkJPHBhdGggaWQ9InBhdGgxMDA2OTAiIGlua3NjYXBlOmNvbm5lY3Rvci1jdXJ2YXR1cmU9IjAiIHN0eWxlPSJmaWxsOiMzMzMzMzM7IiBkPSJNMy40MywyMjMuMzVjLTAuMDYsMC45Ni0wLjksMS42Mi0xLjg2LDEuNTYgICAgIGMtMi4wOSwwLTIuMDktMy4xMiwwLTMuMTJDMi41MywyMjEuNzMsMy4zNywyMjIuMzksMy40MywyMjMuMzV6Ii8+JiN4YTsJCTwvZz4mI3hhOwkJPGcgaWQ9InNoYXBlNTYxNS00NCIgdHJhbnNmb3JtPSJ0cmFuc2xhdGUoNjEuNzgzMywtMTg1LjEwMSkiPiYjeGE7CQkJPHRpdGxlIGlkPSJ0aXRsZTEwMDY5MyI+U2hlZXQuNTYxNTwvdGl0bGU+JiN4YTsJCQk8cGF0aCBpZD0icGF0aDEwMDY5NSIgaW5rc2NhcGU6Y29ubmVjdG9yLWN1cnZhdHVyZT0iMCIgc3R5bGU9ImZpbGw6IzMzMzMzMzsiIGQ9Ik0zLjQzLDIyMy4zNWMtMC4xMiwwLjk2LTAuOTYsMS42Mi0xLjg2LDEuNTYgICAgIGMtMi4wOSwwLTIuMDktMy4xMiwwLTMuMTJDMi40NywyMjEuNzMsMy4zMSwyMjIuMzksMy40MywyMjMuMzV6Ii8+JiN4YTsJCTwvZz4mI3hhOwkJPGcgaWQ9InNoYXBlNTYxNi00NiIgdHJhbnNmb3JtPSJ0cmFuc2xhdGUoNDYuNDk4NywtODYuNzYwNykiPiYjeGE7CQkJPHRpdGxlIGlkPSJ0aXRsZTEwMDY5OCI+U2hlZXQuNTYxNjwvdGl0bGU+JiN4YTsJCQk8cGF0aCBpZD0icGF0aDEwMDcwMCIgaW5rc2NhcGU6Y29ubmVjdG9yLWN1cnZhdHVyZT0iMCIgc3R5bGU9ImZpbGw6I0ZGRkZGRjsiIGQ9Ik0wLDIwNS45NWgxMS41MnYxOC45NkgwVjIwNS45NXoiLz4mI3hhOwkJPC9nPiYjeGE7CQk8ZyBpZD0ic2hhcGU1NjE3LTQ4IiB0cmFuc2Zvcm09InRyYW5zbGF0ZSg0My4xMzg4LC0xMDUuMzYxKSI+JiN4YTsJCQk8dGl0bGUgaWQ9InRpdGxlMTAwNzAzIj5TaGVldC41NjE3PC90aXRsZT4mI3hhOwkJCSYjeGE7CQkJCTxwYXRoIGlkPSJwYXRoMTAwNzA1IiBpbmtzY2FwZTpjb25uZWN0b3ItY3VydmF0dXJlPSIwIiBzdHlsZT0iZmlsbDpub25lO3N0cm9rZTojRkZGRkZGO3N0cm9rZS13aWR0aDowLjc4O3N0cm9rZS1saW5lY2FwOnJvdW5kO3N0cm9rZS1saW5lam9pbjpyb3VuZDtzdHJva2UtbWl0ZXJsaW1pdDozOyIgZD0iICAgICBNMy45LDIyNC45MUwwLDE4Ny41OSIvPiYjeGE7CQk8L2c+JiN4YTsJCTxnIGlkPSJzaGFwZTU2MTgtNTEiIHRyYW5zZm9ybT0idHJhbnNsYXRlKDU3LjUzODQsLTEwNS40ODEpIj4mI3hhOwkJCTx0aXRsZSBpZD0idGl0bGUxMDA3MDgiPlNoZWV0LjU2MTg8L3RpdGxlPiYjeGE7CQkJJiN4YTsJCQkJPHBhdGggaWQ9InBhdGgxMDA3MTAiIGlua3NjYXBlOmNvbm5lY3Rvci1jdXJ2YXR1cmU9IjAiIHN0eWxlPSJmaWxsOm5vbmU7c3Ryb2tlOiNGRkZGRkY7c3Ryb2tlLXdpZHRoOjAuNzg7c3Ryb2tlLWxpbmVjYXA6cm91bmQ7c3Ryb2tlLWxpbmVqb2luOnJvdW5kO3N0cm9rZS1taXRlcmxpbWl0OjM7IiBkPSIgICAgIE0wLDIyNC45MWwzLjg0LTM3LjIiLz4mI3hhOwkJPC9nPiYjeGE7CQk8ZyBpZD0ic2hhcGU1NjE5LTU0IiB0cmFuc2Zvcm09InRyYW5zbGF0ZSg0OC42NTg3LC05Ni40ODA3KSI+JiN4YTsJCQk8dGl0bGUgaWQ9InRpdGxlMTAwNzEzIj5TaGVldC41NjE5PC90aXRsZT4mI3hhOwkJCTxwYXRoIGlkPSJwYXRoMTAwNzE1IiBpbmtzY2FwZTpjb25uZWN0b3ItY3VydmF0dXJlPSIwIiBzdHlsZT0iZmlsbDojRjA1MTI1OyIgZD0iTTAsMjIxLjQ5aDMuNDJ2My40MkgwVjIyMS40OXoiLz4mI3hhOwkJPC9nPiYjeGE7CQk8ZyBpZD0ic2hhcGU1NjIwLTU2IiB0cmFuc2Zvcm09InRyYW5zbGF0ZSg1Mi40OTg2LC05Ni40ODA3KSI+JiN4YTsJCQk8dGl0bGUgaWQ9InRpdGxlMTAwNzE4Ij5TaGVldC41NjIwPC90aXRsZT4mI3hhOwkJCTxwYXRoIGlkPSJwYXRoMTAwNzIwIiBpbmtzY2FwZTpjb25uZWN0b3ItY3VydmF0dXJlPSIwIiBzdHlsZT0iZmlsbDojN0ZCQjQyOyIgZD0iTTAsMjIxLjQ5aDMuNDJ2My40MkgwVjIyMS40OXoiLz4mI3hhOwkJPC9nPiYjeGE7CQk8ZyBpZD0ic2hhcGU1NjIxLTU4IiB0cmFuc2Zvcm09InRyYW5zbGF0ZSg1Mi40OTg2LC05Mi42NDA3KSI+JiN4YTsJCQk8dGl0bGUgaWQ9InRpdGxlMTAwNzIzIj5TaGVldC41NjIxPC90aXRsZT4mI3hhOwkJCTxwYXRoIGlkPSJwYXRoMTAwNzI1IiBpbmtzY2FwZTpjb25uZWN0b3ItY3VydmF0dXJlPSIwIiBzdHlsZT0iZmlsbDojRkRCODEzOyIgZD0iTTAsMjIxLjQ5aDMuNDJ2My40MkgwVjIyMS40OXoiLz4mI3hhOwkJPC9nPiYjeGE7CQk8ZyBpZD0ic2hhcGU1NjIyLTYwIiB0cmFuc2Zvcm09InRyYW5zbGF0ZSg0OC42NTg3LC05Mi42NDA3KSI+JiN4YTsJCQk8dGl0bGUgaWQ9InRpdGxlMTAwNzI4Ij5TaGVldC41NjIyPC90aXRsZT4mI3hhOwkJCTxwYXRoIGlkPSJwYXRoMTAwNzMwIiBpbmtzY2FwZTpjb25uZWN0b3ItY3VydmF0dXJlPSIwIiBzdHlsZT0iZmlsbDojMzJBMERBOyIgZD0iTTAsMjIxLjQ5aDMuNDJ2My40MkgwVjIyMS40OXoiLz4mI3hhOwkJPC9nPiYjeGE7CTwvZz4mI3hhOzwvZz4mI3hhOzwvc3ZnPg==;" parent="1" vertex="1">
          <mxGeometry x="150" y="474" width="76.8" height="90" as="geometry" />
        </mxCell>
        <mxCell id="tSnX5RXje4xO9rxQiIv1-5" value="Session Clustering" style="shape=image;verticalLabelPosition=bottom;labelBackgroundColor=#ffffff;verticalAlign=top;aspect=fixed;imageAspect=0;image=data:image/png,iVBORw0KGgoAAAANSUhEUgAAAo4AAAJ1CAYAAABXW3E6AAAgAElEQVR4AexdB3hU5ba975Z3731Xrw0IHVIgoSSg9KJYKAqKoqgIdsTee6/YsHdFRLEgKL0q0nvvLb333maSycys9609GY2BJJNk+ux8H9+EzJkz56y/rbP/vdf6C/RHEVAEFAFFQBFQBBQBRUARcACBvzhwjB6iCCgCioAioAgoAoqAIqAIQImjdgJFQBFQBBQBRUARUAQUAYcQUOLoEEx6kCKgCCgCioAioAgoAoqAEkftA4qAIqAIKAKKgCKgCCgCDiGgxNEhmPQgRUARUAQUAUVAEVAEFAEljtoHFAFFQBFQBBQBRUARUAQcQkCJo0Mw6UGKgCKgCCgCioAioAgoAkoctQ8oAoqAIqAIKAKKgCKgCDiEgBJHh2DSgxQBRUARUAQUAUVAEVAElDhqH1AEFAFFQBFQBBQBRUARcAgBJY4OwaQHKQKKgCKgCCgCioAioAgocdQ+oAgoAoqAIqAIKAKKgCLgEAJKHB2CSQ9SBBQBRUARUAQUAUVAEVDiqH1AEVAEFAFFQBFQBBQBRcAhBJQ4OgSTHqQIKAKKgCKgCCgCioAioMRR+4AioAgoAoqAIqAIKAKKgEMIKHF0CCY9SBFQBBQBRUARUAQUAUVAiaP2AUVAEVAEFAFFQBFQBBQBhxBQ4ugQTHqQIqAIKAKKgCKgCCgCioASR+0DioAioAgoAoqAIqAIKAIOIaDE0SGY9CBFQBFQBBQBRUARUAQUASWO2gcUAUVAEVAEFAFFQBFQBBxCQImjQzDpQYqAIqAIKAKKgCKgCCgCShy1DygCioAioAgoAoqAIqAIOISAEkeHYNKDFAFFQBFQBBQBRUARUASUOGofUAQUAUVAEVAEFAFFQBFwCAEljg7BpAcpAoqAIqAIKAKKgCKgCChx1D6gCCgCioAioAgoAoqAIuAQAkocHYJJD1IEFAFFQBFQBBQBRUARUOKofUARUAQUAUVAEVAEFAFFwCEElDg6BJMepAgoAoqAIqAIKAKKgCKgxFH7gCKgCCgCioAioAgoAoqAQwgocXQIJj1IEVAEFAFFQBFQBBQBRUCJo/YBRUARUAQUAUVAEVAEFAGHEFDi6BBMepAioAgoAoqAIqAIKAKKgBJH7QOKgCKgCCgCioAioAgoAg4hoMTRIZj0IEVAEVAEFAFFQBFQBBQBJY7aBxQBRUARUAQUAUVAEVAEHEJAiaNDMOlBioAioAgoAoqAIqAIKAJKHLUPKAKKgCJwEgSsZjPMhfkwJSfCeGAfyjauQ/GyhSic8x3yv5mOvM8/RM4H05A97RXkvPkKst94Wf7x95y3piL3o7eR9+UnKPhuJormzUHJL8tQvn0LjMeOoCorAxZD+Um+Vf+kCCgCioB3I6DE0bvbR69OEVAEXImA1QprZQWqsjJhPHII5Vs3oWTlUhT++K2NGL41FZkvPon0x+5D6t23Ivmma5B07WVIGDcKCZdeiPhR5yLuwoGIu2DAn/9dOADxF5+HhLHDkTh+NJInjkPK5IlIu/92ZDz1ELKmPofcD98WAlq8aB7KNqwRcmpKS4GlvAywWl1513puRUARUASajIASxyZDpx9UBBQBn0LAaoWlshLmwgJUJieh4ughGHZsRckvS1Hw9XRkv/YC0h+8U0he/MghiO4TjuORwTjes7Nr/vUKRczgKCSOG4XUO28Wgpr3+UcoXroAZVs3wnjoAExJiajKz4PVZFIy6VOdTS9WEfBfBJQ4+m/b6p0pAoGNAKOJVVWwGg0wlxTDnJeLipjjElHM/eAtpN0/BQljzrcRRFeRw6acNyoU8cMHIfWOG5HzzusoXrYIFbHRcv2W0hJYK4ywmqsCu2317hUBRcBjCChx9Bj0+sWKgCLgSgQsRgMqEuJQtGwRct5+Fam3TUT8qKGIHXo2Ygb2RHSfCBzvFeraqGJTiCM/ExUqhDZmQA+53rgRg5F62yTkvPsGSlatgCklSSOQruw8em5FQBGoEwEljnVCo28oAoqALyFgrTLBlJ6Ksk3rkP/1dGQ+9ziSb74WCVdejPgRg21kkUSxqWTOk5+LCpHrjxs5BEnjx0g0MuvFp1A4exYMe3bBnJ/vS02l16oIKAI+jIASRx9uPL10RSCgEbBaUZWbA8OBfShevhj5X36CrKnPIvXuWyRvMHZIb98kiY4QVOZHDumFpGsuRfrDdyP3/WkoWjAX5bu2S6GPtbIyoLuG3rwioAi4DgEljq7DVs+sCCgCTkbAWlEhZLEi+hjKt22SiBsjb0kTLkfMgJ6IjgrxX7JYD6GM6d9DKrgzHn9ACn1K1/xqq9JOSYKltBRWi8XJLaGnUwQUgUBFQIljoLa83rci4AsIVBe4UKKG1dAVx4+iaOFPyHjiAdl+jj6na0ASxYa225nHmXLLBNGSLNu+GVXZmZDCGkYiVerHF3q+XqMi4LUIKHH02qbRC1MEFAESxorooxJZTHvwTtFO5BZ0dN9uiO4V5p2FLfVEBhsifE57PyoEJNUsAoq7oD+SbhgvupGGXdslAqk9SxFQBBSBpiKgxLGpyOnnFAFFwOkI0K2FYtylm9Yjf8anyHjyQSTfeLVswzKKdrx3mEYYG0tMI4MR3a874kYORdLEcSJmnvv5hyjbvkWiuLqN7fRurCdUBPwaASWOft28enOKgPcjYDUaYUpNRtmWjSiY/S2y33gJqffcisTLR0jEzGlRuMYSLn88vppE0vWGLjY5772BovlzYNi9A+b8PEBzIb1/wOgVKgIeRkCJo4cbQL9eEQg4BOjgYjRU2/wdRMlvK8XeL+2BOxA/cqhtC9ofSZsX3lNM3wgh6LRBpM1i2dZNNrHxgnzAbA64rqk3rAgoAg0joMSxYYz0CEVAEWguAizIqKqCpawM5twcGA/tR8F3M5F272TEDesbsNXQ3hRNZc4o/bUzn3sMJSuXwJScBHNxkZB8phDojyKgCCgCRECJo/YDRUARcDkC1BU0Hj2Mwm+/ErJIL+iYQVGI6ROBaF8V5fbCCGJziSjJY0y/7og9rw8Srx6DrJeeRsmvy1GVk63b2C4fJfoFioBvIKDE0TfaSa9SEfA5BKryclG+fQvyZ35hK3K56Rqpio4Z3EvJoreTTuZC9glH3IUDkDh+NNIfuAO5n7yH0g1rhERqBNLnhqNesCLgNASUODoNSj2RIhDYCFhNJlRlZ4kFHl1Mct99QwhH4hWjQIHq45HBWhHt7YSxjuuL7huB+NHDkHrXLciZ9ooUMZXv2GJzqdFt7MAe+Hr3AYeAEseAa3K9YUXASQhUi3Ob83JREXMcZRvXouDbr5Dx9MO2iuh+3ZUo1kHEmrul7MnPSy7kyKFIe/hu5H/zJco2bwCdfNgP+PCgP4qAIuDfCChx9O/21btTBJyPgNkMq6Ec5oJ8VCbEoXjxPGQ+/TASRg/TIhc/JIr1kdTos7sg/uJzJRWB/aAyPhaWkmLQGlL1IZ0/9PSMioA3IKDE0RtaQa9BEfAVBKxWIYuFP/+IjMfuQ/yoc0FhbhZUaJFL58CLsDIXsleoraBmSG8kXXMZcl5/EaXr18BSXKzk0VfGtV6nItAIBJQ4NgIsPVQRCEQEqLlYmRiPkuWLkPXqC0i940YkXDESseeeg+io0MAjSwEWVawv4lj7PeZCxl00CMkTxorAeO5Hb6N07SqYMtKURAbi5KH37JcIKHH0y2bVm1IEmoEAcxcrKoQslq5fjfxvpiPzxaeQcvO1ormotn8BGFlsLFlmJPKcrrKNzQeN7DdfRuHPs1G+a7s41FirqprRQfWjioAi4EkElDh6En39bkXAixCwGMphykiH4eB+lKxagdyP30HqXTcj7qKBON5TK6JrR9f0/44TaEYiEy69AOmPP4DCH2fZCmpijttIpFZle9EsoJeiCDSMgBLHhjHSIxQB/0SguiraWm4rdDHs34P8WV+K5ErsoEgtdGlslE2PdyxtISpE9DwznnkExUsXyja2pbhIotzqle2fU43elX8hoMTRv9pT70YRcBgBS3mZyKgU/PAN0u65FQmXDBM3Fwo/R0eFOEYClCwpTk3pA9UONbSbTLzqEmSzoGbTOolAOtyB9UBFQBHwCAJKHD0Cu36pIuABBKxWWAwGsf4rmj8HWS8/I3mLCZddhNjBvXBcrf+UBDaFBDbnM3aHmosGIunay5D+8F3I/fhdlK1fI3JPVrPmQnpgptCvVATqRUCJY73w6JuKgO8jYC4qhPHoIRQvX4y8T99HxlMPIXnSleJHrG4ujufpaU6j67GirFP8JcOQRoeat19D0cKfYTywVyORvj8N6R34EQJKHP2oMfVWFAEiQB9hS1kZTKnJMOzdBdr/Zb/2IpInjRO9PSWLridASjKbiTEjkWd3kW3srBeeQOHc72HYtV0ExvkgBC2o0clOEfAYAkocPQa9frEi4EQEWOhiMsFSWoqqzHSU79yG3E/fR+KEsYgZ0EO3YJuznaqf9Xj/ienbDQljhyNr6nMoW/sbTCnJMJcUw1JRAVitThxIeipFQBFoCAEljg0hpO8rAt6OgOguGmE8uA95n32IlFsmIO6C/ogZ2FOiNlro0szolxJHjxNHRsmje4chpn8PxJ7XF0kTxyF72iso27oJlJFS8ujtk5Renz8hoMTRn1pT7yWgEKBXdPmOrcif8RnSH70XyTdebauMHtgTuh2tZNFvt8sjgyXlIn7EYCRPHIf0Jx5AwXczYdi/F5aSkoCaA/RmFQFPIKDE0ROo63cqAk1BwGyGubAAxsMHpdAl54O3kPbAHUi8fCSi+0QoWdTIoOcjg+5uA5LIAT2QOH400h+7T4q/WATGMUJtSNWFbMpEo59RBOpHQIlj/fjou4qARxGwWiySt1iZlCjRxaKff5Q8r6QJlyNmQE//JApRIYg+J1y2Jv02auZughUI30cSOTASHBvMhSxe+BMMu3fAlJwES7luZ3t0ItMv9ysElDj6VXPqzfgDAiSL1spKIYym7EyUbd+MnHffQNI1lyKmT7h/kkU7sYnsLHmZ8aPPF1kW6kvSru64CpL7d7vb29+Jr5T2SZowFrnvTxMCac7Jhrm0VIrINCfSH2ZKvQdPIaDE0VPI6/cqAnUgwDyt8t07pSo65carpdAltrrQJSByFyM7I+ed11C65ldQqDz9obsQO6Q3oqNClTw5kVj5fTS3WtKHRWJxFwxA6uRJyP/qMxiPHLJVY9cx/vTPioAiUD8CShzrx0ffVQRcjwAdXUqKpSq64NuvkPHkg0i+/irEX3weYvp3D8jcRRb6FC9ZgKqcLBEvJ4nM/eQ9pN59C+KGD1ICqQSyUX2AygIkkAljzkfyLROQ9dLTKJo3BxXHjojmqesHuX6DIuA/CChx9J+21DvxJQQsFpiLi2A8chDFKxaLzRqT+5PGj0bswMiAJIs1I2Axg6KQ89arMKWliNSK1VSJyqQElG5ci4JZXyLzuceRfMNViDuvj+ZC1kMio8/uCvpBkzBx67YmxoH6e3SvMMSee7ZUZGc89TDypn+MklUrUBkbDavRqNI+vjSP6rV6BAEljh6BXb80EBH4vdAlJQmG3TvF0SXr1eeRdN0VEg0J1IW8rvtOvukaiTrWroy1Gg2ojI9D8cKfkT31OaROuR6Jl49A7LnnqN82C0T6d0f8yCHi/Zx272TxJOd2f9z5/ZQ4noRkx57XB+xrTI8o+WU5jAf2wZSRDvYz/VEEFIETEVDieCIm+hdFwGkISKGL3dElKxPl27cg96N3hCxGn9NVF/KTLOR2IskK2YwnHpRt/Nrk0d5A1qoqsaEr/Hk2Mh67D/GjzoUU1LCIKFAKanqFihwTo7RxFw4QPc+cd19H2YY1qMrOEgmnzOcfV+JYT1+TPsft7AE9kDLlehTMmiGpI9RKtZSXwWqu0kikfdDpa8AjoMQx4LuAAuBKBGgBaKCjyyfvyYLOhd3u6BIQhS4NLdb1vR8ZLPp8xUsXwlJP9IfkkXIr5vw8VBw/isLZs5B2z622CGR95/eT9+IuGghGFvO//gKGfbtRlZMtZNtaUQH+Y3Q2YcwFuqXvQHszFzK6TzhiB0Uh4dILkfbQnSj88VuxOCSW+qMIKAKAEkftBYqAMxFgoYuhHMZDB1DwwzfIeOaRPxe6BEoUzIFF2h5ZrO+V0UOSQPpvw2yuv6VovVhZiaqsTBGA5rYjo7upd96EWG7T+klVdsygSMmFzXzmURT88DVKN6yRXFlTRhosBsOfImOMOBbO+Q6xQ3vjeKS66dTX12q/F312F8QOPVvSIFImTwLTSooWzUNlfAxgtdTfF/VdRcCPEVDi6MeNq7fmJgRIFouLUHHsMIqXLZLqX9qgJV59qWyb1l6Q9P+NIDC9QsCIGnFlRNHhH5JIgwGVifEoXb8G+V9PR+YLT0rUlzltvrSNLQUu3IK+YTxIFvM++wDFS+bDsHcXqvJybbqEdQDD4qu0+26zOQs5icwHZP+NDJaHj+QbxyPzxSeR/91XKNu4Dqa0VInq1gG//lkR8EsElDj6ZbPqTbkaAavZLLlPrPrlAl686Gdkv/aCuFbE9O0W8FXRziQXtFNMe+B2GA7steWaNaFxrZXcso1F0ZL5yHrlWaRMnoiEy4dLRCm6l5fpQ0quXU/EjxyKpGvHIu2+KciZ9gqKF89DRcxxh+VjGPku+XW5VFX7ElF2Zt9xxbkYiYy7oL+kB7Aiu3TdbzAeOyL5pKjSXMgmDE/9iI8hoMTRxxpML9eDCDCKZS90ycyAYc8u5H3+IZInjdOqaFdGsyjkfE5XFP40G+aCgmZ3gN8LauZ+L+Liopc5KEpy2zxFsKJ7hyGmXzcROo8bMRjcGs19702UbVoHc35uk+6ZRDnn/WlagOXivhk/aijSH7kHRT/NRmVCHMwFebaKbEsDqRVNalX9kCLgeQSUOHq+DfQKfAEBqxUwmSTqxShDym2TJJLDyl9GIJhU74rohp6zels7MhjpD96Bsq0bndBbrPi9oCYv15aP+t1MpNx+gy0X0JVE42TnjgpBwqUXiPA7yTELfKpyc0AHISnIsDQtn67kt5VIvvla7Zcnw9yJf6MuJHcZmA/JIiRqQ5YsX4yqzAwn9FU9hSLgfQgocfS+NtEr8iIEuHjToozRhEwWutx0DeJHD0PMgJ66IDtx8XWEIMcO64e8zz4EJVKc9sMostEoi7zx0H4Ur1giUTpqQ0pBiSseCJgvR+3AG8dLwUXhvDlCiCuij0lFNAt8muulTAmZvC8+FjLjCLZ6TCPybuvo99GMjPcOkwfKpKsukdxSRo25lc0iJaa36I8i4A8IKHH0h1bUe3AeAhYLrOXlMB4/KiQi97MPJBKUNOFyxA6KhNflw9WxiPklEYgMRurdt6Js41rntXetM1nKyiQXsnTtKvE1pv5h8vVXCtFrunxSMKL7dkP8Jech5bbrRZA7/6vPJf+QDyV0EHI2qTAe3I+MJx7QXFsPjo+YPuEixJ5yx43InvYKCud+j7Ltm2FKTwN0G7vWyNP/+hICShx9qbX0Wl2GgLmkBJUpSSjfsxMlyxbJRJ/E3MXBvTSy6MHFtzYBjh8+GNnTXraJgrtYEoX5rJVxMSha8JOQvZRbJiBh7EU2gfFeYfX3Cxa4DI6S6DR9x5kDR2mgklUrpZ+5VBPQakXBdzOROH5M/dfoRe1au5397f/M0Y0fcz7SH74b+TM/R9mWjaiIjbZFzzUS6bJ5XU/sGgSUOLoGVz2rtyNgL3QpK4M5Lxfl2zYj7+N3Ra7l+NldNVLjxaQiaeI4lO/aJpqN7upm1EdkRXNBtbg4o4d0aok+J/z3vvKnApeRQ5F69y3ig8yqe3NpiXsuldJQxnJkPP4AYvr3UOLohf2YOZEsyMp87jGUrFgi4uKWkuJm5bO6p3PptygCNgSUOGpPCEgEuCVpPHoYBV9PR8qt1yF+xGCbowttACODdcH1wgXXHoWKHdZXChDMRYXu67t80BCHmjKJEhn275HIUerkSYjpGyEe2b8XuMz7USKVfCCxlJXaCC6Lq9zww/zI8h1bpNJf+3Hz8xbtfc7Zr1JQ06+7pEAkXXsZst94CeVbNoo9pBu6iX6FItAsBJQ4Ngs+/bDPICBFEAYw94tOGpkvPIGUm66Valb60/qLq4izFzhvPB+r2Fm9yu0+Rmo88UONRDq1kECyernkl2Uo374Zvxe4mEzNLnBpyn0Rj5x3Xkf8iCH68OPFDz+/jysW1PSJQPzwQUiaMBbpj92HvC8/QdnWTbDwwaiJFfVN6Tv6GUXAUQSUODqKlB7nkwiwKroy5rgUItBxgwUDfMKndIZGZLw3IvP7wlrH4h/TvzuyXnwKlbHRHiFovw8GFlNVVtqiih5e5K1VJlQmJSB50pWI6dddiWMdfaehvuXJ9/kQmzB2uE30/d03ULRgrviPi2uSm6LWv/dt/UURqAMBJY51AKN/9lEELBZYystRmZosmovFSxcg5+1XRUZHIou6De0fhKJXKOIuGiQ5YhZ35Q96+ZAwFxagZNVyxJ57jn+0sQ8SP6eRzmrR+4TLRyDj2cekItuwewcqExNszkFaUOPlo9G/L0+Jo3+3b0DcnVXyz0xiAViVnQlOsJTRSbn5WsQOitJF1I8X4KyXnwH1F/UHUrzDggs60DiNwPhx3/EljFjolDh+NLLffhWGHVtRlZEOS6l782d1jCkCdgSUONqR0FefRUC26OJjUfD910i7ZzIo2RIzsKfY1HnKQs6XFiVfvtb4kUNQ+MM3Urjisx3YGRdusaBs8waJwh73Nu9tJZ/NJ/KMQJ7dBbEDe4LFYXSuYupN+e4dsJqaLxjvjC6o5wgcBJQ4Bk5b+9WdslrVeOQgiuZ+L1s5ybdeh4TLbBp7ShZ9N3exsSQ2+uyuItBu2L/Xr/p3Y2/GlJaCvBmfCrnQ3F0/7/90HhoYKZI+yTeMl/5fMGsGDAf2eaxYrLH9VY/3bQSUOPp2+wXO1VOfrrQUFbExKF3zK/Knf1zt6DLWth3tCms4jZQ0P1LiBgwpyp33xUcBHXlhtDHt/ik+0V6NfTjQ4+shwlEhiO7fHbQ4lIrszz6QCn9W91N71Orhgq3AWaAC606VOAZWe/vW3ZIsUvYkLVUqC4uXLRKpkZRbJ2pVtBsIma8s2HTlSL3zRsnxY9pCoP1YK4wo+PYrxI0YrMQxwMdF7JDeUlWf/dZUsUw1Htgr8yd1a/VHEXAWAkocnYWknsc5CFByoqpK/KIpoGzcv0fcN5JvvhYxA3rqwhjgC+NJyWxksOhx5s/8TAS3ndMRfecspuREkSbSLep6InOBNm6YE9mvG1KZCzn9YykYZNU9CSSF7KHSPr4zwL3wSpU4emGjBPIlWY1GVBw7Yit0uX8K4i4aiJiBkVLoEq3b0UqcT0IAKKDMilMukMx9DbSf4kXzwFy3k5Lqk+ClxwUIwYwMRkyfcJk/40edi9Q7b0LBN1+iIvY4LEZjoA0TvV8nIqDE0Ylg6qmahoDN/u+QOLpkPf8EUm6ZIIUuMUN6QwtdAmSRawzBYTSlbwSSrh6DzOefkH5TvmMrKpMSA6u6WvzWK5E19TnEDeurxLExfSjAjqXFIaXJaIvJVJ/s118ENW4rE+MDa8w0bYnST9VCQIljLUD0v25AgLmLFRXiclG69jex2Mp48iEkTxgL5uhER4XqIhhgC5sjUTD2jcTxY5D+6L3I/fhdFC+ZD1ZTV+XlBqQ1m9VkEr/1lMkTEd07TMeMjhnH+kBUKOIuGIDkG69G5otPomDWlyjbuBamlCRYKyrcsADoV/g6Akocfb0Ffej6bf6+6SIbUbJqBXI/eRcpU65H7Hl9HJvwdGEIKJxIhmIG90LCpRci+eZrkPnc45LCYNi32+aeEeB5WtyWz5/5ufh2O0K89RiN3tfuA9G9QkUXMvXuW0QXsmT1LzAeOgBTZgaslRWguYL+KAK1EVDiWBsR/b/zEOBWmrlKKqPptWo4sBfUGyNZpP2f5izqQlZ7IWNqQjTzsgZFIf6SYUi951bkz5qBirgYWIwG5/VNPziTubBQoq9xwwfZxO7VTjOgHqxOGDvNfbBmTuTQc5By+w0o+G4mKo4dhrkwX+Zvq1oc+sGM4bxbUOLoPCz1TLUQsFZWoio9FUXz5yD9obuQMPp8ybMhMVDSqKSx9sIn0Y9zz0HqvZNFXsZ4YB/MBflaCVprXNn/K1vVhw8gb/onkhccMyhSiVNzyVOgf77Gg1vCZRci44kHUbx4PmjlquTRPvL0VYmj9gGnIsDJhQnXxSuXIued18QaK/GKkaK7qHlYShZrk8XjkSGIv/hcpD1wu4h4l65bDePhg6jKzBABY6d2Tn87WQ2dU+r1laxcityP3pHq2bgL+oNE/AS8A50Y6f073CdocRh3Xh8kXnkxuJWd8+4b4Fa2KT1VSaS/zSWNvB8ljo0ETA8/EQFuIZpSk1G2cZ0kWme+9LRU7tFHWCOLShZrk5eYft2QMHoYUu+6GdlvvoKC2bNQtmWj9CGbgLfmVZ04yhr4C9NCDAZ5aCtdv0ZkV7I4DidPRNyIIVD/ah2Htcdho/7fKwycz5lmlP3aCyjkmN28AVVZmeDOkv4EFgJKHAOrvZ1zt1ykqqpAge6K40fFAjDv848kH42FLhpZ1EXqT4tSVAhIFuNHDEHShMuR/vDdyPvkPZSuXy0V0SJI7JyeqWepRoCLeWVSAkp+XY6cd19H6l23IPHqMZBI5DnhDked/tSOGq1T3Hp2Fj/0+BGDkXbfFOR/PR1lG9aCFofMY9ft7MCYgpQ4BkY7O+UupdDFaJC8M1NiAooXz0PG4/cjbuQQqGuFksU/kQxqLZ7dRdx+KOKePOlKITDlWzfJAuOUDqkncQwBiwVVuTko+W0lsl5+GolXXSKpIzH9e9ge8rSoRglhMx4K4kcOBeXUipYskG1sc1GhTdZHfbIdG58+eJQSRx9sNE9dMnNbSlYsQV/ECEsAACAASURBVNYLT4hESuy55yC6bzdQXPZPpKEZk5Cexw8IKEnjOV2RNHGc5EWVblyHqpwsWEqKdUHx1OC1WEBXJnNxkU0/dc2vyH7teSRcPgJ03tFx5wfjzkPzLud/rgPcbUoYNwo5r7+I0k3r9AHRU2PdDd+rxNENIPvsV1RViZ5XydpVyOZ21z23SrRCtrt6hyFaIxW64NoXq8hgWTiSb7oG2dNeQfHyxTDs2SluLubiYvXG9aJJQNJMigpRmRCH8u1bUPjjt+LAkzR+NKK5ja3jWse1fVw35rX6gZE7DEnXXob0h+8Sof6y9WtQVZAv0mxeNAz0UpqBgBLHZoDnjx9ljgqdOAy7d6Lopx+Q88ZLSLnjRjCnhVEkjUxoZMLeB6LP7io5c/RJpjh33oxPQWH3iuijtopo3ary/imC29gc7wf2iuxK7gfTkP7IPeL9TfF1e1vrq477xvaBmH7dRYs1jRXZ77wmsmyGvbskbcL7B4ZeYX0IKHGsD50AeY8RiKr8PFTEHJdKuYLZ3yDjqYdkOzq6dxddPBrz1O3Px9ojChf0t0l03Mmq6Jcl17WSAt2G8gAZMX56m1YLzCXF4OJe8P3XyHz2MbGlo3MPBdlV3kfJY2PJoxzPeaN3mKRFZD7zCApnf4vyXdtFAcBSWgJYzH46oPz3tpQ4+m/b1n9nzHmqqJC8s0oWuixfBA7q+OGDcFy9opUs1yDAYv3Xv7tsRSeOG4Wsl55C8dKFkitXfyfTd30ZAT4IMHqc/82Xog0ZP2qojUD2CQcdfppEImr0K/18YBJRRiKp7cuUlvItG6SghgTSQp9stTj0iSlDiaNPNJOTL9Jqlcro8i0bkf3GS0i6egxY6MIBraQxMCfzuhZxW6RgODJffArFK5aiMjUZrJq0GAyas+TkYel1pxPZLZM495jzc2Hcv1ccfejsEzuol2q0Kglu2sNDdQSStrOx5/dDyk3XIPf9N1G2dROstBVV8uh1U0HtC1LiWBsRf/2/xSILfvnObcif8alo6SVNGCsRxhhWVWpCfNMmQX9bPOhXO6Cn5LhlvvAkCuf+gPJtm8UrmvZ/qtPmrxNEQ/dlExino4/x8AGUrv4FeZ9/iLT7bxfnH50/9IGzrofPev/O+aZ/dxEXT544DhmPP4D8b6ajfO8uSZtoqFfq+55BQImjZ3B3z7faE9/370HRonnIee9NpD14JxIvH2GLLvob6dH7cQr5je7XHQmXXWQT6v7sA0lqL/llKUrXrhKHF8Pe3TAeOQTmNZrSUkUI3lJSog4S7hnVnv8WRiIrK2FKSZb+UPDDN8h69YXft7PpRV8vWdBxqvicrA8Iiewh+dMs0Mr95D2RfzMeOwJLWalGIj0/8n+/AiWOv0PhH7+ISHdpCZi3WL5jKwqqpTYSKbVxdleNLJ5swtK//XkhiwwRWZbYwb3E7YV5jcnXXym+42kP3IHMZx5F1qvPi0Zj/vSPUTj7GxQtmCsuJbSdLN+2CYxsG/btlugU3YUq4mJQmZwIU0Y6qnKyReONmoLMo2Of1e0p351/SCJpPUef8dz3pyHt/ilIuuZSUJZFlBh0N+PP40vnm4bxIIkcGImk666wFeAtXSjzCa1tLeXlOl94eLpQ4ujhBnDK1zMCYDLBUloqESDmLua8/aqIsaq4r24huS360ytUtp2o85kw5gIkXXe5RKHSH78fWS8+hZz330T+11+g8OfZovNIomHYt0uKbKqysyRySdsyc2EBzEVFUrjFPm0pLwP90FnMRZIiFoWU+tFcKKdMH047CduD2q9pKSj5ZRmynn8CLKiROUjJY8NkSQllnRiRRCbfOF50Icv37LQ9fJaWyrqn84DTRrDDJ1Li6DBUXnqgkMZK0WHLm/4xUiZPtBW6DFA7MbcRJp3w/5jwSRCiQsRNiJaD3LakqwTzmJg7SVkXRjJjh/SWfkq3CSGao88X0eCUyZOQ/tBdYH5lztuvIe+Lj1Awe5aNaG5cB26TV8bGyMIhifSqFekdE1P19jUfAIxHD6NswxoUzvleHmBpccg+oONRH2Kb2geiOaec0xUxA3si7sKBSJ08CflffQbj0UM28ugdoyBgrkKJo482NStbDfv3oGDWDGQ8cT9Sbroa8aOHyeLc1MGpn9OJ3VN9gBqBjEyRXMYOPRtx5/cX0fn4S4YhYexwcSxKunaseF6n3HwtUm67Hql33SzFGYxoCtGcNhV5n71vi2rO/d5GNtevEXcU46EDohsnkc2SYsCs2nENTn3VZJBRYFNyouS10mmm5NflkvfKuSf3o3ckbYG6r2n33oaUKdeD7kHcYiRhZOSZDwvHe4UqcdQHTKf0AZJIEsiEMecj5dbrkPnS0yia96PkXMvDZIMdWw9oLgJKHJuLoLs+T93F8nIYjx9F8Yolkjic/ui9SLrqEsT066a6ajopO2VS9hRxbPL3RtkIJ6OYjERwMWFOJhUDSDDt5JLVmpkvPIHs116wRTI/fR/5Mz8HCzuK5s+p3jr/DVW52f69BS76rUaR4zKlp8liazy4D+U7tqB0/WopRiAeBd/NRN6XHyP3g7ckx4ypBhlPPihEnbsayZOulCKG+IvPE31PRpRV21EfPJs8jps4f9Mnmw+arMime1X+zC9QumYVKuNjJbVFt7FdQ1CUOLoGV6ed1VxSAlNKkvj+UnSZoqnJk8bJdp+7B6l+ny4M/tIHGOFk3lTchQOQcNmFSJpwOVJvvwElv62UHEunDWB3nMie41xeJpJbJL/MM6QXdUX0MSlQom84o4WlG9ageMViFM75DvlffioFTlkvPQ0+hKbecSOSJ14hjlGx5/dFdN+IwHwYaSKJ8Zex4cv3wbQX7kbkvD9NxrLxyEFwl4H50frjPASUODoPS+ecqTrB3FJWJh6y1NDjdlDSpCvBnDHVS1Py5ssTu7dfe/qj9wnBgqdzJzkPMDpYVWUrCKowSjUpZUksJcVCEKmrSZ/pqsx0sQst37VN9BUZMWRuKMX9uYWceufNSBo/RirkKbqsc4jOId4+Dpt9fVEhiB3aWyLkhXO/R8Wxw/JAKLaotDjUwrpm8RUljs2Cz/kfZsemblX+19Ol0CV+5BDJ5ziupFGjHxoJcXkfiB0UhdyP3vVs1LE6gmjOy5GtZEYLqaHJBZAFcNx1EEI45QYpKOJ2MSMtLDTitl3skF4STY3p30PSWKRAiYVKzDPU6maX96Fmkx4d585pIxbU9ImQ3bnEscMlqk7ZMFNmhhbUNJO6KHFsJoDN/nh1AjrFlIsW/oSsl5+R3KyESy+wEUb1jXbOJKKTseLoSB+ICpGE++Lli5s9tBt7AsO+PSI3kvH4/Ui7ZzJSp1wvcwFTU5KuvhQJl4+QArj44YMRO6yvkEORulHfaO3bjvTtAD6Gu3V8qKJHdsqUGyTXmaYY1Je1enp3obEThRccr8TRQ43ArWgm8DKSQFkBJvYmX3+VRA00KqBbSRq18FwfYOSOIud0xXGXxaKltESs1qiMILmFGhn0KzJ4pGcnHA1g4uZV81lksHhkUxeSRV8F330FGheYUlNgNRo9xAh862uVOLqrvRhZrDBKmJzSICUrlkgCb8ptkyQXQysSPUcUvGpS08XFKwgDo3v06XaX1RnnhIwnHvCKe9fx0Py56FjPzjjSoxMOdO+I3d06YFPXNtjQpQ22dW2L/d064FiPTtrWXjDXRfcOQ9z5/ZB272TkffGxraDm8EGYsjJVXLwebqTEsR5wnPGWWAAaysVizXj4oMhcpNx+g4TNdYJu/gStGCqGrugDMX27iRZhZWK86/OhrFbRY6XuoSvuRc/pvjFCwni0Rycc7N4JuyI6YH2XtlgaEoSv2v4XH7X8N74M+g+Wd26B3eHtcLB7RyGX/Iy2kXdgEDesrxSTUaaLRgPUMKVzlbhVOYMQ+Mk5lDi6sCFJGumtWbTgJ6Q/dh/iLzlPxHCZrK4RRu+YKHTC1nY4aR/gdtaQ3sj78lOY0lNdN0tYrWDaSsaj94Jk9aTXosTCJ3A52qMz9nbriI3h7fBLWGssDmmFhcGtsCC4JWa0ORVvnPEPPH/q/+Dl0/6Kt874B75tcypWhwZJBFLb3TvmIZsRQbiMfa7XXLeLfvpBciFdNwn43pmVODq5zeily9zF4iULxFGBCe4JV4wUezV1T/COyUEnaW0HR/oAt7GYTF+67jdYDAYnzxS20zF9pXTtbyJYrrnNvtcvSRb3deuIreHtsbpLG6wMbY2loUFYGNIK84Nb/v6PxPH1M/6Op0/5i/x77tT/wdTT/oZ3zvxffBH0H/zU4QysryaRGoH0jn5AEhl77jlSlJZ6502iZlDyy3JbLmRlpUvmA185qRJHJ7QUxUXpwlC+eYNsOdH+LPnGq6XyUSQwNGLgExEDR8iEHuMdk7q72oHkMfv1F8UT1wlTxQmnoHUoBbjjLhigY8RH5kmSReYu7mTuYng7IYwrSBaD/0wW6yOOdgLJV0YhGY38vNX/4cd2p2FF5xbY0qWNbGUrifSO+YY+2TQLSLl1IrKnPoeCb78SP/bKpARJZbEGmC6kEscTpnLH/sBtaIrv0gKwdN1q5M34FOn3TZHOpZFF7xjs7iIX+j3+3d4slCmYPQusfHbmDx84K44fkagmFybtR97bj4716IxDPTpJdHFHRHts6NpWtqMX1Yos1iSLNX+vHXGsSRxr/k4S+faZ/4tZbU7Fss4tsCGsNXZW50MqifSO/hEdFYr44YPEzjT343dkR8J49BDMOdki1u/MOcJbz6XEsREtQ2kOTvaMEpiSk1C0eD7Sn3gAcSMG66TvI9ECXZy9Y/L1tXZIf/husf10puNEVVYGCr7/WvKefQ2PQLheEjVK6Bzu0Qn7ZTu6HVaFtYGjZLEpxLEmieR2Nknk923/i9UhQdgb0QGHuneU4hslkV4yj9Gh5rw+SH/wTlFhoMWnubDAVlBjroK/RiKVODaCODLCWLZpnYiHJl4+QvIfopnQriLdSpyVOPt1H+A2FS38rCaT0+zKjAf3iTtU9Dnhfo2dL5JMRhhZGc3o4poubbA0tJUQRha61CSEjv7uaMSxJnHk78+e+j944b9/lXzID1r8C3Pan46tXdrgcPeO2me8Zc6tdqiJGdwLCaPPR/oDd6Bw3o9SGGutMjWCYfjOoUoc62krbkczuli+cyvyPv8QjDokXXsZ4i8aqL7R3jJoHb2OXqGgBRuTneOGD0LCmPNlizBx/GiRXaH4evIN423/broGqbffgNQ7brT9o4PHTdf+8f4NVyFp4hWgfEriuFFIGHOBnJPnjunXXSvmHW0THzqOzhPsH6Xr18iuQz3ThkNvWUpKULx0odgDqsKCd0SPGMU7VC2js6GrLbq4PDRIqqObShjtxLKpxNFOJJ855S9CIF87/e94/6x/YmbrU7C405mSC0n5H18k5/54zcyJtjvU0CM+5+1XUbJyKSoTEwCz2aG5wRcOUuJYu5WsVphzc2DcvwdFi35GzrtvIO2BO5Bw6YWI7qdyGd4y2ClpRKJGyYTEq0YjedKVoJh62r23IeOx+8SJJ+vV55Hz9mvI/fBt5H32oTj0FHw7A4U/zkLhz7NRtPBnqX4vXrEEJb8ss/37dTlKVq2QvBXmrsq/tatQsmolSvie/bgVSyRVgbZVfLos+PFbKYzKn/Ep8j77QL4z553XkPXqC8h87jG5Jl4brzH5+iuReOUliL9kmC1qTXkmdQrx+sWPW1IZTzxoc5Spqqo9czTq/8Yjh5D12gtef8/eMt5deR3cit7brQO2RbTH+q5t8WtYaywJCRIZHTvxa+5rc4mjnUDaX1/671+lIntG0CmY1+EMrApphR3h7WQr25VY6bkb8ZBDcfHhg8TClAVw+Syo2bQOppQkn8+FVOIIQCKLJcWg2K9h5zYU/vitEA9GlBhp0EW9EYPFSVEkVqPHDOghqv4kWInjLkbSdZcj+eZrkXrHTWJYn/XKs+LtS8somteT8JVt2QjjgX0iiVSVlQlLSbHrBZxPQhm4pcliiqrsLNEA4zXx2niN1PUsmDVDrp33kP7ovaDcQ8rN18o98l55z3Q0IAZabOX+/nfSBTIqBHHn90fxskUiDHySZnfoTxQT5gNH4tWXKnF00nxx0vaq49yMLP7u6hLRAVvC28l29LLQICwIadpWdEPE0tnE0U4gGYl88b9/xYct/iUV2b8Et8SWrm2wN6K95EI2Bhc91oXzTFQoYi8cgNS7b5XdS0p8VRw7IuuDpaLC53IhA5c40gJQFvdSVKam2HIXp72ChLHDEd0nQif0OiZdp08uzA85uwti+nVDzMBIsV+MPb8f4kefj5RbJiDz+ceR98VHKF48H+XbNqMiPgbc5nOXh7BDTKC5B5nNQnCp/8l7ZNEV75n3nnLrdRJVJYmkIDUxIla2B5oQ7afu6qfV38N8RDo/GfbtbnIfNOfnSyQ8uncXbT83tp8Uu5zE1WVBPTI6DRFCR993FXG0E0j768un/Q2ftPw3FnU8E9vDbfaGjKjqdrYLSWFj+3CvUFFfYepbIcXFjx+FuTAfFkO5z2xnByxxZHW08eA+2cIkQbFHd5ijoBFG9w2y2MG9kHT1pch48iEhS/TwNh7YK24dtHtijqmltFQEmK2VFTbrJ6uluVTN+z5vsci98R4pNs175r0TA1NmBgz796Jk+WJ5WiVWiVePERKpfdV9fVUemiKDQfKY/9VnsmXdlI5UunaVRJiP9wxW4tjYRbeJx9fn6uIo+WvOce4ijoxAshqbW9mvn/53zGh9isj67Ixop32tiX3H6cESXkdUqDhFcf1LuOwipD/xoOxCVGVn+gR5DCjiaCkrhfHIQRTO+Q4ZTz2MlJuuRsIlwxAzsKeSRTcMqphBUUi88mKkPXinRFzYDlxEDXt2gTIGprQUmAvyYTEaAIsfksOmsAx+hrZ0BgMYqSJGxMqwZ6c4jjCtIuetV0UOgtjGDNC+7JKJvtb4YE5t8fLFjZ7krRYzct59XSW8auHpijZz1NWlOYTQ0c+6izjaI498JYlkBHLamf8rUUjK+qwMbonduo3tVSSau0fMn04YN0q0IbOnvSLpMEyd89aqbP8mjtyONpRL7mLpml8lopXx5INInjBWFtjoKN3qc8WELeeMChGMWXGcMuV60E2H269Fi+ehbNsmVMQcF5Io8iZNJVQB/jnmyjEiSSzLtm4SbPOmf4Ksqc9JkRBzdPlEq+5Fzo9KMvc065XnUBEb7XAvZHsxHSH1rpuhgt/ObxPOO01xdXGU/DXnOE8Qx5okkrI+tDikpA/FxbmVvTY0CHsi2kM1IV3TF5uytkb3CkPchQORfNM1yHzpadF5Ldu0HqaUZFiNRofnGlcf6H/EkdEZo0G2kbjlyVL4vI/eQerkiVImr1t7Lhok3MJjFdn5/USihtXDmU8/IhXGJb+tBK2ZXOX36+pB4kvnJxE3ZaRJIQ5tsTJfeAKpU26QNmHbaF6d8/p/0tVjUPDtTJs8jwOWY5byMhTOniV51E1ZVPQzJ2+75rq6NIcQOvpZTxPHmiSSkUjK+tDikBXZJJDbu9ryIY/2VGkfrxln1VXZVOOgKgiDX8Zjh1GVk+VUPdmmrG9+Qxz5NM+JmSLdhoP7QVkUFhawmMBrOoIbtmfcfa8kizH9u9tC7ZddhMxnH5PiDupW+VUBS1NGlzd8xmKRiHvxonnIfPZRyacRvcn+3YXou7u/+NP3se+TlFfGx9lyb+trb6sVVTnZEm1kyoY/4eCJe5FCFye5ujhK/ppznDcRx5ORyK9anwJWZO+KaCce2aw610jkyR9UPNHf+Z1xFw2UNK/Cud+jMi7GtmNXYfTIOusXxJEEhVtABDTtgdsRP2IwYgdFyXaQbke7sPNHBoM+vtSoKlmxVMLpYrdkMDS8kNa3yOp7TkVAHqqYI1lYgMqUZBSvWIrMF59CwtiLEN1L0zWasxDEjxwi+bqUfarvh/nV5Tu22LzsNUWmWcTZ2a4uzSGEjn7WW4mjPReSHtnMh3znrH/iu7b/lSjkAXWnaVY/bc68ctLPRoWK4gsFxuNHD5MdvdLfVoqkT31zjyve81niaDEaUZmcKO4L2a+9KE4fJDExQ3qrc4cLI5vRvUNtTz73TUH+N9PB/IsK+9OPHynju2KwecM5+ZDFAiS2WdnmDeB2dvpj9wmhEYkfF/adk06GPv59rLCme1DZts2i21lXGzPRPfutqTZdTh+/Z0+0I6NfrnJ1cZT8Nec4byaONSOQrMieevrf8e6Z/8SXQf/B/A5nYENYaxEW1wikC4MwjZgTomkW0SsUscP6InH8GJm/82d9CePhA24TFvcp4sjIiSk9TYorCr7/WqImKTddI3l1mrvlwk7N/MU+EUi65jLZiqZ4NUkHBbatlZV1rZX6dy9HgPmQFCgv37EVBd/NlLblRERrRk+QA1/9TtpMsviLRUqsgK/9w8pIFi+x6l3kvhqxSPgqJs66bne4ujSHEDr6WV8hjjVJJD2yp53xD3zR6v/EI5sV2RQX39+tg25je9EYjh0YKXMLC3/pjMb5nO53J5uLas9NTf2/1xNHEhNzXi6Mx46gbMNa5H/1OdIeuhNxo85VCR1Xd96oYImQUBQ97f7bUfDDNyJWqmSxqcPNez/HSCTHGAkkhWkZRRNpn6hQJZENjTM6ylwwQHTYmA5Q+4fknO5GShobfrhlVMvdri6Okr/mHOeLxLEmiWQk8t2z/olZbU/F0k5nYUNYG+ystjjUSGTD/dpZD1L1nifKthtIy12m7TECaSkucom0nXcSR4ohG41y03yKp6cwt9MYmlX7Nfd0UsqFxA7rI+4trBxlYj8jvvrj5whYLBJJZjFNyuSJiLugv0rHNEQcq99Pf/Q+lG/fcsJEXb51E9IfuksJeD04knzQ3eRg907YFdEB67u0xVLxi26F5hA2b/msrxPHmiSSkUjmQv7Q7jTZxqakz6HuHdWdpp7+XS/hc8HnmAeZfv/tKF23GlW5ObadwZPshjR1NfM+4sgcrMJClKxaiawXn4Ro0dFqrW830aOT/X0XAO3uhvXq74sMFh2pwjnfw5SaItXq0PzFpo4xn/sco4+W8nIhkIWzv0XyjVdrtMyBOYeamXmfvgczn/Krf4glo7iMSHr1mHfg/lx1/Z52dXEHufQn4kg5H+pCkkBOPf1v+Kjlv/FzhzOwuUsbHOuhcj6uGieNOi+tfPtESD1C5nOPi8mGWBraJ6ZmvnoNcWTCvmH3DtmKTn/gDrGhk2hHn3CdcN00qTPRP/6SYch9f5roAHKLzWrWKGMzx5jvfrw6+sj8vJwP3kLC5cOVQNY3FqNCJEpbvGLJ721eEXMMmc8/YfMWr++zAfaeN7m6KHH8C2pGFBvzO0kkCSTtDT9s8S983foU2cqmLiTzUxtFdgJsDLgDm+ioUMSe3w/JN1+L/K+/QGVC3O9zU3N+8RxxtFphLilGxZFDovuX+8FbolGUcMVIxJAssnJIO5LbMKA4dNo9k0ELO2pEqVh3c4aVf31WFAyq5a5S75kM6kDq2Dx5ygitw6hlaspIF321wp9nI+m6KxQvL3Z1UeLYdOJYk2SSRNIjm7mQM1ufIuLiv4W0klxI5q3qnHHyOcMduDC/mru3tDs17N3d7KJWtxNHkQPJzYHx8EGblM6rz8sNaSWnhzpVZDDihw9CxpMPiTK9zRvzxMpQ/6JCejdNQYB5x6XrVyPjiQcQP2KIWhnW8WCbeMVIkDBSdYDbRMw3csfi4I3f4QuuLkocnUMca5JI/v7KabZt7DntTgMJ5JaubbGvWwcpfvLGvhoI1xR34QBkPf8EjPv3wFJW1pRlQD7jHuJIz2g6u5SWwJSeiqIFc5F2322IHdo7YCdUr+ik1IIaejayX38RxkP7m9yJ9IOBhUBF9DHkTHtFxazrII6U56F0VfHSBUiaMDbg5jgpdPEhVxcljq4hjnYiaY9E0uJwSaezsK1rW1BcnFvZfLDwirWwjrHsj9fGehFWXhsP7LNZFzZh+XILcaReXGVcLPI+/0gm1LhhfSVx87g6KHhu0ESFiE0gt6ZNyUlN7kBN6HP6ER9HQPRU01Kk6EOiaTqO/zyOqXsq+cLniR2nPy4+dd2TL7q6KHF0LXEkgSR5pKQPt7LfPOMfmB70HyzrdBZ2hbcH813r6k/6dxdgExksxcbZb7wE45GDTVqNXEscrRa5sLyvPkPqXbdI4UVMnwioDaALOkNjnphoFTjmAuRN/1iqpq0mFfFu0ugJ4A/Jw2BiAuhYQA/V6F5hOvnXHIMkj2d3CQgXK0YYfdnVRYmj64mjPfrIV1Zkv1wtLv5Jy3+LrM+vwS2xN6K9CovXnENc/HvCJcNAMw9LaWmjVzKXEEdrhRG02GKeT8azj4EFL9FaHe01C2vCZRch5703UZmYoNqMjR4y+gE7AnzgMKUmg4Vt8RefpwVtLp7ovS364i+uLkoc3Usca5PIV0//Oz5q8S/xyF7c6UysD2ttI5EaiXQtZ4gKRfqj94pUj31Od/TVucTRYhGXl/IdW5D38TsS1VLC6OHoYq3FLHZQFLJeeQYVx4442kf0OEWgTgRY7GZKSUbm0w9rtXWtseZtRK+518PIoj+6uihx9BxxrEkiuZ392ul/l23shR3OxLrQIGwPbyf5kBSHb27/1c+fyEVog0qbwsb+OI04SrV0Qb4khKfecWNAbNH4XEeMDBYnmNLfVja2n+jxikC9CJSs/gWpd9ykzk5+SB793dVFiaN3EMeaJJL5kG+c8Q983eZUqcjeFdEeB7t31IpsJ88vdOPLfu2Feuf2k73pFOJI0khLuuw3X9Yoo5Mb1mnklAmx/buj8OcfQbF1/VEEnIkApR3yZ36BuIsGaWTAW+eAJlxXILi6KHH0PuJoy4X8C56vLqh576x/Yna7/2J9WBCO9Oioc0wTxvLJuER0/x7I//GKSwAAIABJREFUePqRRi8FzSaOtLGpOHZY9MqYbEmP45NdoP7txDCxOzFhykDqXTfDsH+PCBM3uqfoBxSB+hCwWlG+Yyvo1+zOfq3f5fx5JdBcXZQ4eidxrBmBJIFkLiQJ5JdB/8GCjmdiQ5fW2N+9g843zSGRg6KQ/sKT9c3sJ32vWcTRWlEh+n9ZLz0FkdjRykqv7cQxg6JQ8N1XqMrMOGlH0D8qAs1FgBaV9GWmFI06Pzmf0LmSJJMsUltvZ7cO2BTeDqu7tMGK0CAsDG4FdxArf/8Of/Kqrkno3P37M6ewIvtvmNH6FNgrsV05Lvz93NEjhyLtvTcbPfU3nThaLKAPa+6HbyFmQA9dKJrD+l382eheoYgfdS6MB/fDajQ0upPoBxQBhxCwmFG+daNUWLPP+fuk6+v3p64uLd1GipU4Ni+qebKI46YubeRhx9fHoaeun7nL0RPGImPOdw5N7zUPajJxtJSVIn/m56Lh5qkb1+91LKpBYp9yy3Uw5+fVbHv9XRFwOgLGY4eR9tBdiO4bocTRxQ+ETZn/pNBFXV3cRhjtkVQljo0njs+eqjmOTRnjjn7mYI+OOHr79chct6rR60CTiWPZpvVIv28KjkdpZMHRhvLUcUwjyHzmUZiLChvdQfQDikBjEKA2aPZbr9p2IbyQOHlqDHrD96qri/sijHbCaH9V4tg44qhV1Y4FhZozr2zs2hY7bpuEjPWrGzPFy7FNI45Wq030d+RQjSr4wOJIZw+W3JuLixvdQfQDikBjEDClpiDvsw8QMzBS5wYvmxsO9eiE7RHt8VtYaywOaYUFwZ4jUnZCFSivShwbJo6q4+h6skiiebRnZ+yMaI8lIS2xafJEZKxf05gpXo5tNHG0UuS7pBhpD96pbjBetjDU9fTxB3EsanQH0Q8oAo1BQIjjp0oc6xqLnvy73ella3g7rO/SFr+GtcYSJZBu2bZW4nhy4kj7wROdY4LUOcZF3IIC/ru6dcCK0FaYS5eeW69zD3GEuQoVCXEiJO3JSVC/2/GnE4p8Zjz9sG5VN4YB6bFNQoBWo9nTXtGtahdN/M6Y95jn+Ie3dFusCmuN5aFBEoUMlAigu+9TieMfxFG9qh1fu50x3u3nIGlkpPGXsCD82OlMfN/xDPcRR6vJhJK9u5A4aZxuRXnx4mDvLHyNGdATKZOvQ1VeLmC1NokQ6IcUAUcQMB49jHTuRmhxjE/MjySRB3t0wo6I9ljTpY1EIBdpFNLpUchAJ47chmbe4kv//SvePOMfYiu4rNNZ2BXeHpSCqrle6e/Ox4OWjSSNK0ODhDCSNLqVOFoqK1C4ewcSJipx9JkOHhWC+JFDUBkfCxJ//VEEXIUARcDjaQSgmq4+sxjWrLSmliO3shmFJIF0d2TOX78vkIkjSSMJ4+et/g9LOp2FbV3biowOUydYsOUz66iPBIpq43msZydsCW8nOY2zqyON7ieOpkoUHNqP6ElXgg1f+yL1/945EGKH9EbRvB/FGtJVpEHPG9gIUO6pcO73iO4TobquPrvIdAaLaPZ17yhRyA1d2+IXJZHNJtCBSBxfOe1v+KjlvzGn3WniN72la1vs7dZB/abdNDfwgZAPgmu7tMai4Ba/b0/bSaN7I45VJhQePYw9112O3d3aK3F0UydoLiHnYp52/xSbCLjFHNgMR+/eJQgYdu9AxlMP6ZzgI3NCQ3MKqy/tbjKbw9vJVjbdZBaFaDV2YyOjgUAcn62OLL571j8xs/UpmNfhDCGMO8PbKVl085zAhz9uTVNBYV7nszC7emu6Jmn0CHHccM2l2NC1jXYIN3eIhib7Ot+PCkHs0LNR+OO3GnV0CW0K7JOaC/LFECD+4vOUOPrKnNCI62Qe2v7qbWzmQq4Ma42ltCTU7WyHopH+Shy5Df3Cf/+K10//Oz5s8S983foULO10FrZ3bas7ko0YX3Wu2408B6OMHKebw9tieWgr1N6a9jhxXDV+NJaHtMKuiPbgxTrrxvU8rsUy9fYbULr6F1irqgKb6ejdOw8BiwWla1ch9Y6bdB4IgLmQkci93TtiY3g72camJiQ9rVUXsu5IrD8RR5JFVkaTME493bYd/XOHM7C5Sxsc0/Q1j8yB5GCsmiZpZJTx585n/akIpjZhtP/fbXI8luqtahJHlnRTD+hg945KHn1kwWC1a9bU51CZEOc84qBnClwEqOual4uMxx9Q0W8fmQOc8XDOhYqVmtwS292tg+hCLhMCWTd5auz2rj8d70/EkYTxnbP+iR/anYYNYa2xJ6I9DnXvKP3BGX1Lz9H44BHtAzeFt8XC4BaY0+lM/FDH1rSdMNpfPUIc+eVktr+FBSl59KFFg9uJ2dOmoio9DTBrvmPgsr7m3Tmj1lWZGch+82XEjzoXx6NCPPK0rQtN4xcaZ2Fmj3QwF3JPtw5Svcmt7GWhQVgQrFXZdvLr68SRUjrMXZzV9lTZit4Q1gbMXSRh1B1Hz40/SmmxYpoBPMll7GST2bETw4ZePUYcyWxJHjlZsGJKNZk814kcXgx6hSLh0guR98l7MKWnqURP8/hTQH7aajajMiEeeZ99iPiLz0X02V2VNPrQw6PDc0Uj78nuTrMtoj1Ykc1ts6UaiYQvEkdGFqed8Q980er/MKf96VgZ3BJburbB/m4dlCw2clw4c7yRqHOcbY9oh9VSMd3ypBXTDZFGvu8x4mi/uDmdzsJqhq213N4nFtDo3mGIHzEYBd99hYrYaFiNhoAkQHrTjUfAWlmByrgY5H/1OeJHDkV0r1Cf6PPOnLz1XA0/IHMrm+vBpmoCyYrsQLU49BXiyMji1NP/jnfP/Ce+DPqPVEZzO1ojiw33d1fPCSSMh3p0FDUbjqmlIS1lW9rOwZry6nHiyItmzuMvoUGS88JJw9VA6vmb2ZkjgxEzKAq5H72NimOHYa2oaDyL0E8EDgJWK6ymSlTExSLn3TdAD3Qdg80cgx6MXLiz7RghYS7kuq5tsSy0ldgbLgwOnHxIbyaOLHZ5/tT/wcun/U1yF79r+1+sDQ0SKSZ39hH9rrrnEvIppoNsCW+LZSEt65TXaSx59AriyItm+ffCkBbylMkqH+0MdXcGr8AmMhixg6KQ/sjdKNuwNnBIkN5poxEgaTTs3YX0h+5C7Lnn4LhGGnV+awTxtedDsphyezi32doEjD+2txJHksbXTv87vmp9Cn4JboldEe2kXoFrt+Yuen7ttm9Lb66OMM7tdKbTSCP5mtcQRzt5XBDcQrauJe+xEZOLV5CpQLteksdzz0HKbZNQMOtLVGWka95jo2mV/36ARTCVSQko+HYGUiZPtJFGLYRR0tjEedK+GFI6ZFe3DqC4+Co/J5HeRBztZJEWgBTpZnSRuovMXTzaU4M93sBBaMVI9yZuSS8PCcL8zjbnF0erpR2NPHoVceRF24tmuHXN8ConCW9oEL2Gup+iYvp1R+JVlyD79ZdQ+ttKmDLSAKvVfxmR3lmDCFTlZKF07W/IfuMlJI0frUUwTSRLOu+cfN4hibRL+pBArqW4eGiQ30UiPU0cqbs49bS/4YMW/8KsNqdiUcczhTBSSkcjiyfvm54Ys9ySZrCNhPFXCuwHt8Dsjmc6pMnoKFmseZzXEUf7xZFA8ubpl7g7ooNUA2lH9Z6OesLgiAwWcpA65XqJMBkP7UdVXi6gNoUNkix/OcBqroK5qAgVx4+icM53SLvrFtVoVMLo8gd/RlmYx7U9oj3WdWkj4uKU9VnkB+40niCOjCwyb/GtM/8Xn7b8N75v+1+pjN4d0V41F71oPNsj8CSM2xh9D2OEsW6bQDu3csar1xJH+82xcGZJcAvJbWGOixbPeDF5rB5UtChMvetmFC+ej6rMdFgM5aAMi/74KQJms7SxKS1Foozpj96L2GF9XU4YTnh48aJJXa/NM/MUF1MpBohoj1VdWks1Nu0NfdWdxl3EkWSRldEvVdsAzmh9ClZ0bgmSRe3LnunLdeHOPk4eRPHurRFtRYuRPMnOmdzx6vXEkSDQaHtuZ5vbDJOjtXjGuzryCR08KgTRfcKFPKTcfj2KFv4kuo9+SpsC/rYo5l00bw5S77pF8hhj+nZTUW8lsR4jHLKwVm9l22V9KOlDe0O7sLavvLqLODLC+EnLf8tW9HamiHWr3uXr4eVrTYCNM1ozMoDGLeklIS2FF81upHi3M4ilTxBH+43SEofb17+GBWFrRDvdvvb2QUPZnoGRSBw3Cmn3347cj99F2ZaNsJSWABZLwBMunwXAaoWlpATGA/uQ//UXUi2deMVIxA7u5TGycMLDi7ePDb0+t/QVicx07yj5X7KV3bUtVoQFYUGIb0j6uIo4MsL44n//ig9b/As/tjtNKqMp0r1Xt6Pd0i8bO18xWMboL1MxqMNoL3qxcyN3v/oUcbSDQwK5OKQl1nRpLXkt3JrgU2ZjG0OPdx9m9LqOv2QY0u6bgtyP30HJL8tQEX1MCIjPEqhAunCSxfIyaTO2Xd6n7yPjsfuQOG4kYvr30LGn84/X9wEuvqw4JYHcEG5zp2EupDfrQjqbOHIr+p0z/xdfBZ0ildGrQlphR7UFoK6H7lsPHcH6aM/Osh1NpxcSxuXV9oDOrpC286rGvPokcbTfILUf6Siwvktb7IroILktKgvgXZ3/hAHCKGS/7ki+6WpkvzUVRYvnw7BnJyrjY2EuLIC1yhRIdMy775W5i8XFMCUnwbBvN4qXLULOW68i+YbxIgB/QtsqefJ68qRt1lmCDEd62txpWJFNXUhvdadpLnFkZJEWgNRcfP+sf2Jm61OwuNOZ2NKljdYLeOl8xQccBsN2RLTH+q5tZEt6Tmf35jDaOVZdrz5NHO03xbLzBZ1bSARyb3etwPalxSGmf7WUz6vPi5RPZWI8zEWFsJSX2zQhrbql7TZ2abEI5owssg1MqSki7p77wVtIufkaxPSNwPHIYCVHXrrg+NK496Zr/bM7jU3Sh1FIbyioaSpxpIwOCaNdSoee0Vu7tMFhlbfzyvnLXvBi74trurSR7Wg7x/G2V78gjgSV4VtWFs3rbPO+VukAL4882hdfyvj07gISSIqJJ149BhnPPILCH7+F8dAB21a2akK6hTuai4tgPLgfhbNnIfPph0WbM25YX8QM6Inoc7oqabT3WX31ysW3OWSUCzcjPaxU5dYgo5DczfJ0EU1TiCOro98965+Y3e40rAkNwt6IDuIZzXxPTenyznWRnt5bw9theWgQfu58lnAZb9iSrouw+g1xtN8gwf6p81lYFNwSv4QFYVN42+otbO/sMM2Z7Pzxs/Zq7ISxw5F8w1VIf/BO5Lz7OooW/CRb2lVZGbBWVrqFSPnzl9Bf3JSZgfLdO1C0YC5y3nlNilyIObEnYVSyqHOGP84x9d0TiRWjPnZ3mi0R7W0kMjTIIxFIR4kjPaOZu0iR7uWdW2BjWGvsDLfZACpZ9M5xzLS6Pd3aYz3zFykZ1bkFWL/hzYTRzrP8jjjab4yvNauwN3ZlHmR7cRuob+LQ97xrkJFIxg8fjOTrr0L6Q3cj+9XnkffFRyiaPwelG9bAePigWB3K1rZWap/IdVnUUlYmbj7EqnT9GpHOyfv8I2S9+ryNLF5/JeKHD0J0nwi/iyTpePau8exL7WEnkXu6d8BWVrTSlSPMpg3prm3s+ogjyeIbZ/wDtABkZfSKzi2wuUsbkWtRsuid/f5otVi9PX9xRWiratFu78phrMmjTva7XxNH+w2TwXMLmwnQJJC7u3WQwaWFNN45uBpaXGIG9EDCpRci9c6bkTX1OeTP+AzFSxagdOM6iUoajx0Wj2Ta3llKimGtrPBvC0SrFYwgspClKjtL7r3i2GHBomzjOhQvmY/8GZ8KVql33CTYcfu5IZz1fd8cH9puzm83ErGDPTpJ8GFDNYG0u9O4kkTWJo7chmbeIqOLXwT9Bz91OAPrQ4NEd1HJovPb3VljiWkQjGKTMK7rapPU8ZXoop1H1XwNCOJY84aZB7mwcwsJDzNMfLiHutE4a3B49DyRIaBjDXMk0x66S7a3C+f+gLKNa0ESZcrKEAtEVm4zl89SWmpztDEaZevbWlVls0f0pnxKXovFLJXm3J63Go1SNGQpK5V7kHvJywUFuCuOHpZClsI53yPnndclkpg0foxNWzEqREmi5iVqH3BSHyBBY9Xrtupt7KXV9oauIJAkjowqMrr48ml/xVtn/APftjkVq6vJokfnXCfh6a/3wH7CvNJDPTrKA8fqsNaYH9wC33tAsLsmB3LG7wFHHAkaI5D2QpqVoa3E55EN7K8dOGDui441Z3cBNSMZUaMgNQtu4s7vh/hRQ5E8aRzSHrwD2YxScrt73hyU/LYShl3bURFzXKJ1lgqjd0QnWeFsNMo1Ue+yfOc2udbCn2cjb/rHss2c9sAdSJ54hdwb75H3ynuWYpa+EYLFcSWNOq51gXd6HxBSUJ0PSW3ILeHtZBvb2f7YJI4ftfw3vgz6j+Qu7q7OW2QESyOM3hthtD9cbO7aVgS753Y60+sLXhpDKAOSONoBIoFkgy4IbiHimtRMokUVB2XAkK1AWVSiQkArvNghvRF34UAkXDIMdDthhDJ54jgk33QNUm6bhNS7b5FoXeYzj8rWbs7bryL3o7clr7Lgm+lS7c38yqJF81CyfDFKfl2OklUrhNSVrvkVZZvWo2zzBtu/jevAv5GcyjG/Lkfx8sUoWvQziubPlXMVzPpSzp374VvInvYKsqY+i8xnH0X6I/eI3zevideWNPEKudaEy0cgYfQwuQfei9r7ee/ioXNIYLQNhZoPVYuL23LX6E7TGvTIbkpVNiOXi0NaYVVYa6zt0hoburTBtq42G0Bazmm/8s5+RbJIfdCdEe2xJqx1tcOLrULazjn85TWgiWPNRqSYOMPIjECyyokTAD0h9anOOwepKyfP6N5htojluX0Qd9FAxF98nuQF0jox6ZrLJHJJEeyUWyYgZfJEIZwpU65H6u03IvWeW5F6z2Tbv7tvsf1tyvW2Y3jsLRNEQDtp0pVIuvYyJF55MRIuuxDxo85F3IUDbF7PA6vlbwKF1Ot9+g4ZoIB/3262aLZqep7Qbty5sueybaoWF6fEiiORSB7DPHxq+DGCKbn4TKXS8XECzq6c/xt7brb5Pimgaida0stCWoqkji9UR9fkQI35XYljxzNQG7CfOp2FpeJI00aeHjgRaBQy8AhkYycQPV77iM/3Aeqqnt0FMQN72lI8+NB0xUgkTRiLlJuvReqdN8m/uAv6Q9Mg6u/vJHz7unUQfT6SQXGnCW31J1kfCo1TL3JlWGshjNTy43pzrKdGFr15LDGgRNmmvd06SKrb6i6txQaZAajafMIf/6/E8STE0d7QfGKYL4LiQdgZ0U6SXDW3pP7J0psHu16btl3A9wFGCXuFIvrsrrZc4P49EDMoUlI4Ys/rg7jhgySFI+W265H5/OPI+/QDFM77UVIwKuNjYM7PRem63yRaHvBYNiISyHWDaVAbw9uKyDO3ovlvZWgQWKXNPEnNs/f++Um2o6ujylvD22JZSCtJd7NzhkB5VeJYD3FkJ7AX0lBUnFHIDV3b4IBsH+gToS4c3j/RaRtpG9XsAxR1Z/oFUyUors9CsbwvPxEfcnrGm5ITUZWTDXNBPsxFVB8osakPVFTAWmGEKSUJyTdfK6kcNc+rvzfcz+ykQ2R9unUQIsl0KA1GNIydN/Qvth8jjOu6tMaiYJtYN+2O/XlLui4irMSxAeJoB85OIKkHuSSkJX4Lay1bEJRl8IZOrdfgG5OPtpO2k8v6ALeZ+3ZD3EWDkHjVaMm/ZZFV9usvCTmkQxCLtcq3bYZh3x6RcKqMj4UpPRXm/DyReoLZfKKIfPVfKpMSkfPem5KHq9vUTe/HdgLJCCN/d1l/0HM3G1u2D20ot7FqPjRI1n5aAgbKlrSd/9R+VeLoIHGsDdzcTmdhcXBLqXzbHG4TFWfOg04EOhHqQqB9wCV9QIhhBLilHD96GJImXC7FV+kP3y3byqzKp1QTvcaLF8+3kcTtW1Bx7IiNHFIM31xVJzGs742qvFxREqDwPovHXHJ/SnQUVy/pA4wCsziJlsWrwmyE0ZcFu2vzl+b+X4ljE4mjHXg+eTAKSV9sajbtiuggyc2ar6LkQRdX7QON6gO/F6ZE2gpTLjlP8g2Trq0uTLn7FmQ8fr9oeOZ+8h4K536PkjW/wrB3FyoT4iRqCBfYblpNJpGXIkFt1P14CQnQa9Zx6EgfYDETo4skjFvC28qaPq9zi4Dcirbzm7pelTg2kzjWBJb5DtSEZIUVOx+1vXQ7QictRyYtPSYA+klk53oLU+jJnnjFKKROqS5M+ewDFC34yVaYEhcDS1kJYLXUFxh0yXumzHTkvDUVMf26K3FUMux3fYBrtL1CmpbETEWb7QfuLjW5ibN/V+LoROLIxrHnQjIPYnloK2wS4daOONYjABZGnVT9blJVQuukcRvZWWRu4ocPQvL1VyL9YeYevoi8Lz+1Fabs3Q1TSjKqcnOqC1MK/7DFZGEKLTE9YYdptSL/6+miN3pcdRt1fPvRHG/PNd0e3k70m7lzSEe52U7mBM4mbd5wPiWOLuokJJDMiaCcD6ux14S1wY5wemNrHqSSESeRET+axP2hT9DqkhXLdCNi1DDjyYeQ8/ZryJ/5BaQwZe2qPwpTjh2R7eXfC1MM5aivMMUlocQGTmqtrED59i1Ivf0GjTbqWPMb0mzLX2wPOsVRToe7hHSQC8Tq6KaSUCWOLiKONRuEW9iMQC4NaSnb2HQFYFk/O7A/LJh6D0oE/b4PVFtW0hM8YcwFIohNp6D0R+9F5gtPCEHM++IjFMz+BsVLF6J07SoYdu+weaBnZsBSUgxX5B82wP2a/La1ygRTWgoyn3sMcef313lKiaNP9wHmL1IBZXtEO6zt0kZ2A+kUp2TxRAOUmtylrt+VOLqBONYE/4dqb2xWajEBl6Kw1PLSYholX35Pvrx58WVhyjnhiB3cS6wfE0afD7GYnHC5zTHl7luR8cSDtu1limLP/V6qlg3796AyKR5mqViuW8qmyQzOQx+kliOjpOoQo/OSr85L3IrmDh/tAO2EcXFIS8zpHBjuLjV5h7N/V+LoZuJYswGZT0FJH4qKMwJ5mMLiGoX06SdbX51k/f66azim0Gs5ZgAdU6JsjinD+iJ+xGAkjh+DtHtuRdbU55A/4zMULZ6Hsi0bURkXK8TQQxzO7V9rrayU+068+lKbJ7U3E369Np0va/UBe+4iK6Tp7rIytBVo4FFz7dXfmxZptOOmxNGDxJGNYC+mYWIuO/i28LY40kNFxf2eyNSa7PR+XRvZYTQx7sIBUpiS8eh9oOZh/szPf3dMqUpP/aMwpbgIlrJSWAwGWH8vTHF/NbPbGWP1FxoO7kPWy8/YSKMWxCgx86G5ilvSdneXhdW5i5TM0y3p5hFFO2G0vypx9DBxtDcEOzYTdJmouzykpSTuUtKHoXYlFa4lFYqvj+Mr28zVVnrXXIrUO278ozDlm+koXrIApWt/sxWm7N+DiuNHUZkYD1NG2h+OKS7QP/QU8WvO99JBJm/Gp4gfNVTnHR8iTIE8hzHCuL9bB9FR/jUsCNyOFncXL1nb7Wu8P70qcfTCzkU5ACbuUs5nbRebteG+bh1wVCV9dDELxMUsMhgx/XtIvh2dS5ImjLU5pjx6L7JefMpWmGJ3TGFhyrrVfxSmZGWKlZ61Hiu95hAtv/qs2Yzi5YvFqlAtBX38YcrP5wmSxUMi1t1eJO9oB2j3j/Ynguat96LE0QuJY83OwjxIDojV1d7YjEJKMY2fTwyB/AQdcPceFYLoPjUKU8acL7qBSdfZClPS6Jjy1MPIfvNlsHL5j8KUvTClJMFSXOQZjUM/Yo3UiaRvNb2tmfsZcH1Q51OfaHPWALA6ele39qBY9y+hrcS5TbeinbsVXZODnOx3JY5eThxrNhpzNRiGX9/VVo3NbWwOJD596USvGHhtH6ivMIW+y6OGIumaS5F2d3VhCnMPly5E+fbNqKBjiqHMp6RsfI5PWiwiOp7z/jTEj9Qtaq8dRwE6z3N94zpHJzYGTtZ0aS0pXVwPa66P+rv7yKMSRx8ijhwYNYtpfgkNwrbwdjjUXYtpdLL3UuLM/MM+4Yi7qNox5bH7kP32q8if9aVsixr27UZlShKq8nJtjik1C1MqPeiY4nPsr+kXTI3Jss0bEH/xeYjuHaYPoQFK0Lx1DuUOG7WPV4QEYW4nm7uLRhjdRxJPRsiVOPoYcbQ34u/FNJ1txTTMhdwRYXOm8dYJQK/LS8ldMxdKStvEjzoXSdddgdS7bkbGU9WOKVKYMh9l69f84ZjCwpSkBND/mIUYFkM5NP+w6aSvuZ+0mqtALcq0eyaDzjc6Rv1zjPpau1KabmdEe8nxXxbSEvM7txAnNvv6p69KHDXc3EzyymIamzMNrQ1by9OZTRdSK7J9bcL0uuvtFYqYAT0Rd+FAJIy9yEYOb79BHFMo2ZLz3pvIn/Gp5B0Wr1iMsg1rYdhT7ZgihSllmn/YXHbnws8zrzH3k/cQOzgKWhCjpNGT8w+ldFgEujW8nWxH0w5Qq6M9SxDrIugacWwmaasLWE/9nfaG1K+q7UyjeZC6KJx0UWBhSt+IaseUgUhgYcpVlyBp4hXimJJ272RkPPMIct56FXnTP0HhTz+gdPWvMOzfK5Z01Dr0JSs9F3Iwnzu1pbQEhT/PlvzSk/aNZkai9Zw65zTUB0gWmbvIQAfTrlgEymJQFoV6ag3V722YrCpx9DPiWLPTzxFnmhbiTMMnOS2m0YmcE3n0OV2lcpa+y1KYMuFypN17m80xhYUpK5agfOc2VCbE2TyWfY4S6QU3iIDVivI9u6SK+riKfOsWvZsfEhjIOEI7QOovhrfFstBW+LFTw4Sl5vqmv3sOLyWOfkwcObCYC0kC+XMnOtN0I+tWAAAgAElEQVQEyTYAk40behLU9/2UZEaFIPmWCSj4dgaMRw7ClJVxYmGK0QDazlGiBdbAcUxpkGz5ywFWKxhtzHzxKcSe10fnAjeTpkCfW6lHvLtbe6zu0lp2x7g+zVbS6FMRViWOfk4c7U9ldgLJJGMmG3PQ7ohoJyKqgT6RBdT9R3YWspA8aRyyXnlWKpursjJhNZn8hRbpfTSAgKW8DAXfzUTiuFGI7hWqxFGJo8v7AOV0uB1N7UUGMLgdTf9oldTxXNTQzg2a8qrEMUCIY83OQRLJQbs0pKUkIW8Jt+lCHumpxTSBQiKjz+4i3s0pt16H7NdfRNHPs2HYuwvm3JwGaIe+7csI0IO7fPcOJN94tRQ9BUp/1/t0/w4K8xcP9ugoah/ru7bBytBWEmHU/EXfJIs1OcT6yRORsWFto6fCvzT2E5YqEwqPHsaq8aN9KiRbEyx//J0V2fTHpscnCSS3EKjMzydEnWzdP9l6AnNGnRIvH4HMpx9B4Y/fwrBru3g5cztTC18aO9N57/GU3qmIPobs114QC0dP9DX9Tv+fU5i7uL/7H4RxaWgrzO18pqRN+eMaGoj3tPGOG5G1bVOjJzsljn4YqSSJZEX2ui6thUBqMY3/T/K1F/KYft2QeMVIZE97BWXbNoPb2NzalHzHRk8T+gFvQsCcn4+in39EzMBIaEFM4I3t2mPdmf+3F7uwQpopUL+FBWF+57M0SOSHPIFEefN9U5B3YG+jpzcljn7aIbiNza2EeRQWDw3C5q5tRS5B5XwCZKGh00vvsP9n7y3c5LqO9P/vvxBpmLkHZClmiu2gQ7+Qk02cxAE7HIc5Tja02SQb3PAGNhuw0JIsZmZZaDFLlmRZLFlMM/V7PnX7aFrj7pmG2327+5aeR8/tae5zCt5T9VaVRqR2vfZubQx9avjf5fLePQYeUzaTefSCnh45M2uaPPfh9xhoNE6jr9kkfMP6TviLlTKxsVTG2HSXogfMz3zry3L2wHMpGzgDjkUKHF3YPbaYBi6km0zDidLPk6q9Vx4D0qFN2t9xz1teI/s/+n458p/fkRcnjdc0tly7mrLRsBcEtwIXN22Qw9/7prZhMp3LY50rEFALWMQXrGiv0d6Lk5pKZWyDNw7Q+RC7Fj6XMd4ejrutQ7b86bdy7eLFlA2aAcciB46xAgOI9CbTeNXY9N1aE+0LaZHIkDihoU2y64Hb5LkP/ZtWY58a/S85v2qFXDt53CKRKZvPHL6gp1t7cR7/w3/r5B8DjSHR1ywBUOhL2P4lEdLRFVpgSaElPiLWZ9jt4l0PCmOenz8nLSNmwDGkikL7BLgrM6Np7NXttVZMkyUjna9OfvutEdnzplfKoa9/Xk6N+qecW7ZYGF137fQpGy+YljnN3ot6Ll6Uc4vmy3MfeKdSEPJVpux75S+gJThA79/V0WbdTCWjrZuBxeIFh/GA//DGEhl7c5ts/d//kXMHD6RltAw4hhQ4xgoUIHJCY6nMb63UUyipC6qxLQqZv07Adwc9tEn2vP1BnTpzdt4suXb8qNDyxWse3pOWcbEX+bMC7MGVg/vlwKcelR33DDOKScgOeJnoOjYcW06EcZ3yF6tkUmOpDpOI9QF2OyTgsX6QjO6sk8WPf0RObt6YtoEy4GjAUVMTnDoppiGVPbW5TBa3Vcn6jjrZ2hUi8BRyh9RbTHOP7P/I++TE//1ZLu3YJkS77F9wKwBoPP6n38rO+26RbUObDDiGXE9TAZKbuupkRaRaZjSXa89fne5iPi+06fhR7dUy462vlRPPrpVrFy6kbdQMOJoS3aBEAEiMC2lsbSzeUiErI9WyqbPOIpBhcVjDmrWp9J43v0poLH74h/8up8ePkcu7dhgPMm1Tm94Lu8+ckTMzp8qet77WUtRh0b8Mfyf9F+EvLmit1CAA/X1H11tLnbBHVUd31srcR94pB+fOlKtnz0pPd/pjaNMDjtu2yKx/e/MNgCPsm1KMv59+kK6YBgI1UUgai1tFdoiisFRkU0zzyEPywne+LqeG/0POr1iqs7F7rl1LDw3Zq5Jbge5uOb9ymRz6xhdkm40UtEhrP4CSlDTNuokuQjma1lym/EUbBRiSFPQAAbDRXfUy/9GHZe/TY+TquXMZc9jTAI5X5cy+PTL7PW814DjAZhUTmBxeRxSyROeTMqcUgrU3mSZEIKofw51K+qhQn8tkmt0PvkKe//LjcuIff5FzSxdpFPLaiy+KgcjksGAqz7py8IAc/e+fys4HbjXQFHLdi2czAItwF5kdvaK9WlutGX/RgOINuKNhsDx1c6ss+Oj7ZR8t2M68mIoJSvjclIEj4c0rZ15U9Ep1zg1fMkRAKsy/Gy6kTqZpq1QAubGzXkiPWDFNeED09pvbtCKbnoJnF87T4g0tprlyJaGxsQeSXIGeHulhtOuof8m+h99moNFA4w0ygJ31xgHWyrJIlUxrLld6kVVHG2iMxSXDm0rlqZe3yuLHH5Nja1dJ95XLSRqggZ+WMnDkLQGPq7//TRl3e4cBx5CCZVdMQ++vyU1lQhSSCKSBx5CARybTDGMyTafsvP8WbSx+/M+/k4sb1klPt6WwBza9iZ8BaLy0bYsc+MSHZPstkRtAQ7zIk90XEp0b0qD2dW1nnaajJzaVyqiGQWLpaAOMsYBRb9cPkon33yrrf/FjnQxz7fIl6enxrztGWsARk3dw9nSZ98F3GXAMKXB0guoAJNMGmDoAF3J5pFr7hW2ziuzQOH3mJu9+4wOy/9GH5YXvfl1OjRnhFdNYRXZihBjvke5uuXrsqBz+3jdk16vvDI38GPhNDH7pbAF/cWmkSqujGQcI95zMj7PDdjXw6GRgzJAGWfjRR2T3UyOUVqgt1eLZmgzuSxs4XjhyWJ791U8s6hhy4OiElSsgkuo9D0CWazHNqo4a5eFYJDKxYygmpwkPcuc9w2Tfe9+uxTQn//m/yoW8cuig8SCTMNRXjx7RCvbdb7hftt/casAxpGlq7CVFiNhPsjkMapjQWGL9F83fJjwsjGgul6lvuE/W/OBb8vzcWXLx2NEkLE56T0kbOPJxh5cvlqWf/4SM6qiRJ+30k3BDY8FVWG67imyq+6jGXtVeo6lsuDnFBJTst/QDiIc2ye4H75WDn/+EnGBKwZIF2hfy2skTBiLj2OvuCxcUZNMCafstbaYnIQSN2EcoP9hLACP2k+ii8RctopgIO4yggv62dpn98Ntky59/J2f27Jbuq1fjWBj/7soIOEK2fGHpQpn+ttfKyLZKA492GooLnqnIpphmbmuFPNPuRSCtmKYfwFWEDtOryL5XXvj2V+TMjMleMc3ZM9JDMY2P3Bv/TGOO36mnRy7t3C5Hf/UT2XZTo4HGItSBRIdMootuusuqjlqZ11qp9nJ4vYGlRGDJ7n+Z4q2RkSrlMq74+ufl+NrVvhbA9GcBMwKOkC0vnz4lLyycK1Nff58HHg08xQVPYRd0x4WkmIZU9sLWSlnfUWvFNCFykIDHHbd3yK5X3SHPffBdcvz3v5KLmzZIN33FQv6v5+IFOfnPv8qu191roDFEOgFo3NDl8RcnR6OLcBctwmiguV/MUD9IRkWqZekXPikH58yQSyeOK2j0swCmP5OcEXDkjenfdvnUSf3yNJgcc1OjAScDzwllwAFILaZp9IpplkWLaYwHGZIo5NAmrcaGx/fcB94lL3z7q3Jq5D8VRFJRLOJf9V9/xi+fHjszY4oc+MQHjdcYAtCInaP/4sr2Gs3CMKGLSV0GGA0s9gsWqSOoHyRjb27Vdog7R/5TTmxYr/gr11mbjIGjGt+eHrl6/rzsnzFFln3xU/L0XUMSAoeBFsYeD4/yACKJQNJWYnZLuSyOeI3FN3bVWdQlBA7Upe523vty2ffut8ihJ74kJ//+Zzm3aL5cef6A9Fy6lE/YLivfhYrHy3t2yaFvfkl23m+Nvp1MFOPVNeteGqmWOS0VOtLV+Ivh8XeZYpuxt0Zk7iMPybO/+LE8P3+2XDp5IutcxkRGzx/gGH13OI8UzKz6ztdkyuvukZGtFcZ7tOhjUocIQCRRyOnN5UoKp5qQFhTGhQxJFHJIg85i3vXAbXLw8Y/I8b/8Qc5iHLdtkavHj4kU43jD7m6hUOj4X36vzdSLESyF/TcRXeQgzOxoAOOslnIZ31AiFA9mCiTs9cW/hiOaSoX2OlABV37zi7J/+iS5eOxIIjyXs/t9BY7uW9OqZ9fof8nU179CRnfWiU2YKX4B99OIYVRJ3cxprdB2FHCADECGB0Aq2LipUXY9eK88/9XPyosTx3nFNGdelJ7Ll4ummAZu54XVKxU0bn95i0XZiyjKviWajubwSyaFdPQo6zxiYDnJAwOYaVR7tTx991CZ/6F3y76J47LaXsdht2SvWQGO8B4ZS8iYm6Vf/JT1ekxSWPwEX4X+Xo4LObp+kBbTLGirlHUdteZci8i5DhiNGtYs22/r0BQuo/eY23xh1cqiKaa5uHmjHPzcJ2TH7Z0m10Uk1xxy6R4B/YYsCoDRIowWPEnFJ4+7o1Ox04EZUxQwXrtwIa9amGUFOCpqjfIeT23ZJDtH/EMWfuKDMrqz1lLXBiJTPnVCGneTaWa1VAjFNDbeMEQRSMYb3tYuux98hTz3yDs9LuQ//1fHG3afPZvsITmvnnd53145/uffy85X3CzbhjYZcCxw4AhYXNtRKwvbKrX3Iu3H4G9zAE4FMNhzw7tetDSc9MrbZeUTX5K9E8YK2AkeYz7+yx5wjPm1F44elkML5sraH31XZrz9dTKmq16rg0xJwqsk6ew9RpjJNIzcmtlSLgvbqvRkz4QFq8gOCZC8qVEYb7j3nW+SQ1/9rJz46x/k7II5AhArlIrs7vPn5PSEp+S59z9kgLGAASM2hwPsivZqmd9Wqfzs8Y0lNgrQwHJKhwUCIxNaK2Xe/bfIxi8/LofnztT2OrlqrRMD1ZK+mRPgyLfpvnpFLhx+QXYO/7ssfvwxmfyau5T/mA6AsNcY4EQGONFPbS67DiBdMc2AKdACdlb2224EyLteeYe2sTn2h18pgLy4ZZMW0/RcuZy0EczpE3t65MK6NXLoG1+w1jsFqIeARaKL6zprZSWAsdWrjjb+ovmkVHCJFwQZJBw0KAhd0lUvmx+8Vw597fNycvjf5fzSRXJ51w65dupkXqWona3MGXB0H8j13MH9sv2ff5XZD79V+z4yY9FGFpripaJ4sc9FCUllwylaGamRDZ31VkxTgE45E1CsM7Lvu0We/+Kn5PTEsXJp1w7p1mKaS/lTTNPTo/zMIz/5vux6zV0WbSwgGXWAkQgj/RfJeIyxRt0pRdZibXZYb+OrHPVqeku5rIhOUrvB9t3UKHve+lp54XvfFPq7Xn7+gFw7fUq6L14Q6b4WC6UCux0IcKR45uq5c/Lirh2y48n/k+lvfY0379pC3KaIacqAU8jRDYNlQlOpzG2tlLWddTrK6walLCBnZd/7xujigOsxtEm5kDtf8XLZ9963y5Gf/VDOLVss3RfO5wV45HucHj9a9r7rTbJtWLMBxwLRRUAj2YyFrVVaqDeqYZCMMNBovipFX4WPgvvKSMnVHbXaBJ7q+3h2jS4LO+7oEtqT7X3o9ddB5JXnD+aFLQsEODqYTN9H0tdHV62QbX/7H1nw0ffL2FvbTSBTFMiwnt4S/W6MOo114ULSN21ZpEoNPw4gnpLafcW3LlRj73rtPbLvfe+QQ1/7nJz4+5/lwvo10n0umGKanosX5eLWzfLcow/LjjuHmBzmuS46sEjvRaKLjEklq0G0KJHdsfstaxZPBkbVD5bJTb2UKqLWzCZPyu9QGHhLm+x69Z2y711vkoOf+7gc++0vdEiCl8a+6uBUTq+BAsfYX3r+hUNaQLPxNz+XhR//gPYvGtFSbkpqIDIjGaCdz8TGkmgxTaUW09AX0kBk8YHFuIaYYpo7OmXvO96gPSGP//l3cnbuTLm8d7f0XLgQa4Kyd7u7Wy7v3ilHf/6fsuOeYbLtpsbknEaeg6u4613A3xmbAH+RZt2L26r00MlUK+MvGiCMBwj7u8+jT5XI1KYymd9aqfSGDT4Uce64rUMY1Xrg04/J0V/8SIvsLm56Vmk52TNgL33nvAGOfDWqiC6fPiVHli+RtT/+nsx9/0My4RU3WxrbwGNG4BEFR5EBkVObSrVlBjyldZ11mi4oNgdovycBKB7aJDvvu0X2f+R9cuw3P5czs6YJvRSvHjksjP7L1j8m35weN0p2vfZuS1HnIbAk+rOhs07Th0sjVTKz2eu/aL0XDTD2Bw77PoaP4ZAxrrFEI4wAxlXtNXoYyYpNHtYse9/5Rjn8H9+WFyeNl0ubN+gkqmzaMmcj8wo4ui/Ftae7W46vWyPP/vInMvOhN8iYoU0yqrVShjcMzhhE9N1w+ztcBmJ4HX0hvSjk8ki1Og0iDRaFTAC48tDZ+2GId73ydjn42Y/JqVH/ksv79igBXedjd3fHmqKMbvdcuypn58/RCIEf39newx8ZRde3DKnXgyMRRgYMEF00sBguX+CH7wcwQmGAHjWlqUyWRKok1y3i6Ad74NOPypmpE9WW9Zw/J9iebP3LW+DID4YDeeXsGTmzZ6fsmzBGFr73bTL2pgYDjhaBzFgGUHa4kEQhJyhhuULWdNTI1mS5J0UKpkIFTCimubVdo5B73/GgHPnRd+XckoVy7YR/TXcvP7dXDv/ouzoBJ1Rrm+f6gWOn/+KM6HQXHD82wQ8gYe8RnnVEZlxHj2faq3UuORHsnAchhjbJjtvadaAAGZWTT/5NAWQ4gePJEzrL9diffyd7HnuvbLjvZlk+pF5nGOvp0IjKZuh8MPYj6l92vZiGNBWzZdd31iZPYM5zJ2mAZYAolSOgv+Yu2ffwW+X5r3xWjv/l93L+meVCs27p6Und/vb06FztE3/5vex9+4OybYjxGoOWQxw6h8MFrZXKPaOHHgdHA4zhAXp+gfox0YIXZInxkvnUQ3jnXTfJnre8RgtpKAqkErvnypXUbVg/r8iriCNteq6dPCkXnl0rp58eI8f++6fy/Bc+KXvf8XrZfmtESeUoP81Xl7dXy9zWCpnSVGqjnXwAT34pVCG/Dw4EjgotE2Y0l2v6iia/VMEF7fTs8wcAfz6Cd9pg0Eft4Bc+Kcf/+GvlQmpfSNr6JPmPlPe5RfNl/2Pv1RZBtn+527/Ytd7S5aa71Giz7mnNZTKuYbCMqLPq6EK21UF8dzJU8BenN5fp4QOePNzYnEcXk7R122/vlL0PvUGO/tcP5Oy8WXLl8KEkrdfATwseONIU98J5uXLwgFxYs0pOjx0lL3z3G7L3bQ/Kjts7EzpsNmvTkHqtVprT4nXvxyBYuwQ7PfplVIhGTG4qVYdDGoIDy6Yg0hBJGopYh2m3fQAq0fGG+z/8Hjn6q//SZrwXN66Xqy8cEuVCJrCvnO4ZgXjoq5+TnfffmtCG2R75sEdxdEN9gwYY6mRFpEb75qHHI+vNNvplG8PyPgQT8ANEp5lSBhcWTiyc+ILQX7Ipt7XLgU89KqdGPylX9u4W8YH7GBhwhLhJGujqsaNyYd1qoU3G/g+9u1+wmGijtkZPlbRQoN8WG20NWs1I+mXcMB5MiYAPRaSbCKQV02TH6SfS8cDvv6nR4w99/ANy8l9/k0tbN0eLaS6KxBbT9PRolfapp0bIzntfXhjOJQ74Cny90/hOAEb0Ev2k6I2sAQULftkBe5/w+BRsPkEo+ItEGJEnsp2FqBfuO+954/1y9Gf/IVcO7vdS1+lQcKKH5WCAY0+PXHlur5x+aoQc+PSHdfzWjrtu0kaX6fY4w2iwsRu7GAnlNW0d2zhYhtsp0wynD6l8DElsMc2c1gpZTTFNGg7OKbJdCwx8ajFNRHbcPVT7Qh7+/hPaE7L7xRevg8eey5c1Rb3n/3u1MP3B9jg3e0xR21qqo1srtdjNggfhAXl+A3oAI3Sl+RpdrJFNXSk07M5jf6BjWR+4TQ4+/pj2lcVWpfsvd8CRlPTFC3Jx7Wo5/j+/lec/93EljWOEtw1t8tXAcuqkRx8cBHopEYW0NIUZEr8MDAByDKMNo1xIIt3rOmqFyLcBhXCswfZbIrLrVXfIvve8Redjn/jbn+TC2lVydu4sOfStr2R0CDYZSk6GGNcGx2xZpNpr1t3oTXeh2M0vXbf3CcdaEhjwoovlsqitSnt66oSXIYUdZXyJLRnarJmTQ1/5jNqr/ig3/YHK7ANHUjfHjsr5FUu1UpEvvPctr0krJf2SRRgA3SckRls1thlWH6KQOBV3Op3RXCYLr08IqJNEM0hTlWF7fnIgIrB1gkN0a7vsffvr5fkvfVoOfPLDsvvBe+0AMYBtzmS/4Bkz65fuB4wDpMMGEUacvwE9W4NUZMAVQyJHAEYadtOqKRP5zPvXMgjhnmFy9Kc/lEtbNvaHDxM+lj3g2N0t3adP6RcjJX3oy4/Lrvtu9j26mOwmkcYmtQi5lco6QtGj6websTFj64uzwWnhvJhJiozRI44opBXT5DnwyyLASdY22fMGlhGadRNdpDCBBsvaf7FxsDxp0UVf7FcqYKvQn4ut9jJGpSpHHEC86OLAclhMurrnza9Uvva1M2cSAsRED/gPHOlfduWKRhmZCXvw85/Iu8pCnDlp7JktFTKuoUSjRpbesJOqnwYRwwSpmjTahs56K6YxgFbcUYws7S8Hfjhm8BcXMt2l0bPXfuqqvVc4bD9TgXQkYMNgmd1SodHFQi94yRTIPv/Vz8rFDesS4cOE9/sOHLsvXZILz66Tw9/9uha9kMbxm8OY6WJpIQ3tfOBCRlMeU5rLrJWPRR99O71zqnXFNLRyoGUU6bWCaeOQJSCQqe7a68MTFUFXVmh1dJnyz6CFWDo6HCDPbzAPYKQl0yKNLnqZIKMTNeis65P//GtCgJjoAV+B4+X9++TkiH/IgU98UInj24c25/0pmxQIldikQBzJGkeP0/dbeO39wmn0OOm6YhqdTNNWpREUM1zhAUEGeJPba8dfpKiRub823SWcNtMPX0mTdyhpRBfx7fh4fL11wujVxZ2vvF0O//h7ifBhwvv9AY5Xr8rFrZvk2O9+qSO7aDhZiIaSEy4pkaWRao0QYbiotLKWPma8/DBkvIcjY09vLtd2D3AhGW9oM7J7jVkh2g77zunvH44c/qLrguFNdymR4TbdxYIXKWbBHH8RrjmT5QCMDG6wTE98/dxKc/Cvfz4hQEz0QMbAkSbeFzdtkCM//Q/Z9eArdCxgMRhRKquYQTmPk29zqY4awulbqsRApJ8gklZR81orNCXHoQW5sxNxfCNXDHbFfkPv3uLMmfGLnaX/Is6egkW/9MveJxy2Gp/suIuko6EFrWin/2KRV0f7QCfaNKxZ9n7hk4nwYcL7MwKOPUQaN2/QvmX9jQcsZGPpTsNU8jFyiJSjcW3CYZBy6XhwmMgXcoYzxalaKrsXZBSyDbHv3ruP2FM3qIExnrNbvOkudiA3m5qqvUVm8MVMByI7uKTNq462g3evvg1kezbcEpEdX/5MQoCY6IGMgOOlndvl6K9/5vVkvKmxINPTAy0sj8cau9XRpuLGgzRDl6qh6+/5GEF4tZrKboCXU66RGHqRJiOj9hxbp3yXga201OmqUwc/panUDuEppmH7sx9hewx7Ob7BKzokYk10kQOJgcbU7ODqO7tk47e+nAgfJrw/beB47eQJOfn3P8vuN78yVI4N4aTnk2tAa/3EDED6bbS1mCY69mpaU7n2hYTYbTyd1IxivgOpsHw/5JbGyhS8kEqkBZrRfsxupmo3AYtk/MjMMK0LwOiyM2HRJT9/54auell6zzBZ+71vJgSIiR5IGzieX7pIDn72Y3nXasfPhR3ovbwKwBqdYDCrtUJHG1pTcTOIqRrE/p5PZeC4xhJtWo/jXR6hmIbKQOPvDKSf9nhwQBuaBQds5BUO71RXaGhRNuNwpigDmoWJjndluouLMFp0MX39Zu2gRc286yZZ/f0nEuHDhPenBRx7rl2TY7/5uex54wOhijYmckRsAkUNyyM1WvpPwQPV2PAv+gMF9piBzFRkAAM6sTFaTNNerR0ArJgmfeOZSJ/t/vTXlMM0Vax0C6CwcEJjqdnBFIFSKjahWJ8Lbce1MCOrx3SXdRyYjbqTMebiUEcGC7rIhDs6cwQce3qESuoDjz8m24flf5/GXDsBIkFrO2s1vYiTZwwdSkCYvViV3H5X7vd2dMMgjUIutWKajA1prm1EsX0eB2fS0fTIWx6p0olJOH2zC7m3C4W+5kxw44A8gaEJrQxNqDHeog/V087moKtkrJhqBjYZd3uOgGPPtaty+bm9sv+x95rBTrChzpDSm4zJB7NaypXXY33JzJD6adidkaVQa1ZLxfUUjjMSdk0/cmZrl9zaeY6oVhYxDjBa8GIHZbNzqdo5AisARgCNo+NwGEG+TBf9W4O1HXUyo7lc15o9yhlwFIDjvj2y/9GHbUOTEGpSNyB8eBnwM6Y1lcmY+sEWgbQIrG8RGXiQRHiYkkBjceSMnpCW1vHP4Jrz6l1LnDl2jV55RIWMmmNAMVWg6J4PnQs6A70Xl0fpN8iWAcZeffPD9rCeRG8JMMTWYeQOOHZ3CxXV+z/+gaJp9u3Hxgz0HmwcfDSqC3HsRCG9VLaldJwRsWvmDghDTJsKACRNlXHuFClYWx9/DfFA+l6MjxMB4hBMRAjASIU0Bxaj4WSut2GyfUSkqQGgOhoeLPK0rqPW+tYmEYhKx67AaWQqE5FGel7GylrugKOIUByz73Mfl80FMIs6nYXO9msAkThzbzZ2hUxsLLleTGNG2IxwrGKnexs5AkTi3KnGpliBogVO89mWb3v/4gGp2Cpkhgg2Dn5uC/aqVKBJpCub9rrwrZ1LRUOrATBik4iAcRgxe5Ede+GCVdh+GqRDBeirezkFjtRob6JtKyMAACAASURBVP/q52T9rYU5kzqfBJW+kMwqXthWqSkfTvA4fAOQ4TOufZXar7+RJU6aHn+oSucCG38oO8Y6n2xLJt8Fp4OMeC11vKlZkOn9kkl7n3DYN3eAfaoe+1OuwRL6B2Yim/bagW2XC04tjVRrUCoRnsg5cFz/na/LyruHGo/Kh/CyM9IoFCFlpoYQyk+02WZ0w2F0/dxnZIkUEc7/6cZSjRwxBYmDixnigQ1xmNaIzhBEpxe0VcrTTSXRzhAvM3tkvOyUDg4ef7FEo4tErKFq2XSXHNiarnpZoziiQkYNUE+Rc+C4+nvflLl33SQrIzXmeHwAj84xOR6RK6YhSmQg0oCinyASAEkEkpTjzGavRxpRbwOROTDqPtoKZzP8uOrhdUi9FvHNaSm/XvBiKWmzPanYHg6o+KsZ0ekuq9trjWOdI51Hh+nkQocDHelZfyOfMd4+5h44fv8JmXxHlxIuOZ3ypf0wYPYe3jqynlpM00ExTaXMjBbTwFOwSKQZ83hGINX7kCPkiWpsiNPQJTiwYHxMD8Nhz7YM8agyVLTOba3wHI5lO1KKrKWqd8X2fOwImQwOomTLGAcIf3Fjp2UzcmFHFSt0etlKqtPhkRIcSEbOAgGOfCiRCyrs6OpO9U4uFipsn+EZd6+YBgDp2l/EI7smIyz2HAOe8WSANlGQqKnGXhUtpjEuZPHZNByNy2x4E14qtAdjss4mnuzYfeGzKSOi3GkAI11CKPbk0GlBpNzZDPQYGgBgHdtNa7ZUdDEw4MiXHNkwSMvqdSSQgcesgmeUktYFtPSZQvf3hkFWTGPco5SMxUCGhQjCmPpBGuVe2e45AwOQuXMG2ToYYzugI+DcaQs2u6VCD/6WwQgf6BvIBiR6HFlxXGmmu1AdDXCxoFFu7QO6TLeDZ9qrtegx3SBSoMBRwWP9IA1TI0TZMnz2vp5wIjQ4cs8BVMvs1goZ1zBYOAEmUni739YmFRm47iAavJY+pLHp4YfsmR4W5hpQfEeVJe1Q7MBp9iAVe+CeC38RXjQT0TZ21qkfMpuQW3vA4Y9Z08zwZj8yyRQEDhwRLFrJUHJP02GbWpF9YXIAUifTKBeySknJVkxjTsEZej+uVEciU1Ak4DDBh9OUVFf2ZdxAamZrTCQI+6BTq5rLlP+UbnTCD1my9yg820Rl7uQohYUMhPWDzUwn07VpDHFY1VGjXOQJTaV6+Ms0W5AXwBGjwEmWXDs5d+M75E7AAJEbu+qUlMza62Qan4TLjH3hGfts7BlGChK8ByArZElblZ58LY2dOz1P1uk47tOSSJVSDiDMcwDIhlzYexaffSB7hczQ1QPOM23izJ8Ho+cARiKMC9u8fqp9p79kon95Axz5EQgdqVMEjh9s0ypyK3CASJQcsjIRIldMY43Fi8/AZ2I0Mnkt6ZFxDSWatiL9iZ7TBcDSVrnV9Vggydpja+FAu6lUOP/hNuXFAHMSNCZ3MKTLwrTmMgUq6LW16QpGp50uL4/UqJ2liXqmEca+Nj+vgKP7cvQA48RC5d6mTnMqsUY+V7dJVZFagKM2MTpb1gCkAUino35cAZGkshZHqlTWLAKZW0cDYHRFL9CEcPo25cV0PFndJtCDTxhHW64WqGbVsnmItdLJlY/u+znoMq2M4JHSJg2qQLJ7merz8hI48iO8yMRgreCzquvcOhQnkDgWnDkRIfr00a+NU6VFIsy5pGpoEj0f5wN3bjxRyJYKWd1RqzLnZNCu2dN99JoIowLGhkFqc/2OTCTad7u/sG0I7VvISMGBpbCVKBft30xfs6evidbWZQyWRWitU6o1I5kUviSjm3kLHPnyGDEKZxBQ8vRWnZl7oXTCCoBk/iztOBxhHs7E8BT7PyUjlPacwnYq6ewfAHJ0/eDrTcXh25I63WajDX11xkQl1kf7t5HVISVtRS/h07d0dRR5oSewo5ls6LI+zM5H5voKYFwbzQpOberV5Vwc/vIaODrhJsLVK7AASJs4k2shdZ+HsPZOpvGKaQD2pLhyIbBOJuxavM6O9JebSrO4rVILt4hoIHtODu2a2lqwfkzl4NBHGov1ZZ1Nj4pXj/zYWxe8mdxUKkwXWRpxhW2pyZ/pqz/rhQ0kiENmRnW5xQOMHLz92O9k36MggKP7MQgxBo+U6TMdXrWWNRD1RyDTUWyEmCjk8jjFNG7P7JpbhS6m9XZOi8gYEUiAj1VoJq/vVFUSEaJQgSpp17+tmGTEfkt27AtRaIrYFDC2Vnj9F+3wFtjBFZyD7VvdXiNLo4c/L+OXnf0fSK8KCji6H0PxjKu+dvwKi0Yk71DSAYkDvYb1h0oApQBjM8Ym0+T0BOh0o1ivcHboQbagrVLHlHqcqmBlfiCdCOpxuGasD7ZRi9ssumi6mEREioMaUWgoI9oaL+LRw4KSY/vcBs2yEGGkUJUI46TGUgH/BG3nCxI4smhOyCHVz2kp12iENQ8P1pG6MLo7Gc1vrZDx2qE+eEEPWtHs8zOXAafzT2khTblmHQBI5mB69R4OI82W6cdKxAggwLqZ/Nka9CcDFLuoL22tUB47NhxZsoBMr27l2s6w/hz+5rZUKFUPXc51SjqRzBQscHQ/iIWkgIaB6fQexGhSkp7rTbbPu1HBEHotponyqpgMNK5xsFVkmxPPGMQAhEY3vLSQJqxOzvEXF7ZWaoU0dB4i/gYYDSw6PxnvinyMqR8s05rKZGFrlaxqr9WsERGusOpSPvhxRnxC/5rVUiHM9SYlnQ9RxlgZKnjg6H6MpwTefNy5rZW68FaFfSOYC0opKKaBn0a/Pp1M00gxjf9NSZ0s2DU8DhMuliukIS3LpAoOLMXu+DiYUXWOg5nXWqFzpIkY5ZuDMV3MP12kkHFCY6lWR5P+pFOGcYeD9ZWAdaKLVKvPbqnQTjL4yHzVn6IBjrELTEiXptUAyJWRGjWwnMqL3ZkEBQyT/VxH8HXTKajGhqtq7UDyz7nE6lMh3NYoZL03tnR+dNQZwIpDy9YiSGdju7BhHIaZO4uDocoVAGD6Y/ozkI66zJwDjFRHW2AlWLCITjPuF8C4TMf9Vii9JNs9GAeSlWQeL0rg6H44zgSjSpqUkzmRCAvDB6ssDmRuHeIRfqmWndJcpnQD42OZA3S6m8lVsw8Ng1XvqSYGQG4qQN3HsRBZBDBu6OxNX+k4QOufmrfRmExk18/XogeAECKMyAyRLG2wb426A6WyodfgkGe76rTbAU27C+3wV9TA0SmhpzyDNQpJNMIm0eQLePQco/aFbK+RORTT2GQac4g+8ECd08QgU0xDg9xFrZXamqYQIpBe6qpG2xDRd5FCFwCAHa7scOX82kBX+IvTm8p0OhAHDwuaBO/32APAOy0F8XXodL4UvAwkT7GPhwI4uh+M0YVoShqb0xdRSOV2dAUvUC4SF9YrCqVpuHbPWc5sLpexkIJ9ABFu/+0aTqfrMg/IE2RzQCSG2zUzJqIXpN7RDQJCPDxgvhPfjYKFiY0lSuXAufAbTH5tDQaSAQ5KpKORIfybRtuNphWsfkd7MHoUrXKZ0BQteClgnQ4VcHRKhxGGeArHDgAJXwieAQ1zg3Qg9tle3yocOU2LSWNTTMM+UTnv9s+u5kAzkQH0H3kCRDKnGa4g/SEBbXRlwBZkg9YCxxdOE5OviDqsaK/RVBVZEOR8anNZbxVlATuVTPbGXpu6biPPY4mqN5fJvJjCUGgO5lOC8+meH/MCIdeLQhuKY1pTKIFjrHEijU3ImI1dHqlRwKKEehtvFrjRgQuCA+fkPLu1QiPFGEhL16XuXGJl3m6/dP2I1NBzFL4RtgAwBz9yeXu1PNNeo9FADjOASqI4RMf5j3zG/uc+mvXyPJ4PQKRqlWpvIg6L2io1GsQUl0lNZV5U3Ub/2aEwxYMCYFFltrFEm3UjrxRNkbkxsBgcWHQFoOg99mNms6fj7Fcx2d3QA8fYzRyJ42C8GRVnHVZIk08GCBBJOo/2EZOtmKaojFCsDubb7eH19Iz0DpdEvklzU2xHjzUilTTnjf3PfTOayzSSyQQlWgVBjxmZx6018m3N7fskBhkAEA7O0C6IlhMlJ7KFfcwnex2m78LaE90l4LS205vWRDZjZBEXsBlw7HMSIALJSU5nYrdURFPYdorLB0PQq6B1GsWhfx37VGynOXOciR1nEGuDfPEfvi0TNrAR/MeBx/vvHuf57rVBfG/7zPySo0z3A3mCv7ggWuQFYLR0dPCAmX0gK0YRGxSYMGTEDDj2AY5OuXEQRAo4OVCosaSNKGStbLNUQF6cbEnJkCIkPUMUcnqRpgScPNq1uECA7aftZzIywMGDivqZLeUaXSQF6sYB5sNhPqzfAcAOZQUePpFfr0I6PDx8A44JgGOsUnuVah6ApKUHnCdI7pYeCP60xx6QIlgdrcZm7CQpQk5+GN3YfbTbth4mAyYD+S4D2C0q6V33D4IW8GU3W//FwIMW+H38P8V0RBjJeBFhzHeZ8vv7GXBMAVw4hZ7aVCqMN0OAIMMbITl4AMnJFxC5oatOVjBVo7VCAaRNpjGg4LfRtPczmcqGDABA4C563T7Kr/dftABFsP7FZbfw9/h9qtcB9tmQgUJ5TwOOKQDH2E0dXoeSe9XYXgTSGqzmW9qCticUOk1pQtHDwT2JlVG7bQDHZCC/ZYBgBIARIAJgJJJFCjTfbGnYvg9g3St48ehQ9MW0vsK9umTAMU3giEFG6SHCA0omM5mirUpbcTBOL2yKlo+/t1f5vb6QtKwIa2rBAESv0bO1sLXIBxnAfwBGqNCnZRPcRaJbFmEMNsLI+rMXNg43sZ0w4JgBcIw1PpZmCFbZBwKuNHenmGZ1e60WOkE2J42N8Y7dR7tt62EyYDKQLRnA3tDeiX6hVEfH0p0MMAbrQ6iOptiSJupTmku1KIn6hmzJQiG/rwFHn4GDGoYosZmTJKcWKuEQyoHAjT2eG8PBXkA2p0Erk4MopqGC3kCkAYZCNub23fNXfl2LN3p8wpOjIbyOu7X+i4H6RVcdTXN+0tHwF4kC07/V9CnxGhhw9Bk4xgobPEhaKTAlAq4dAJKol/Xeyg1AHAiIc8KnIhsjjtEAQBKFJHpsIDKx0YiVcbtt62QyEF8G6LvoRltSgatUpo5aS0UHDJbd6E+CBwBGmvYbhSm+DCfSbQOOWQSOsYsOGEE44dmRLgWwACAtPZE/IJIKeSLETKbxpn0YgIyVYbudmnG19Qrnenm8d2/a0JyWch1XaZ03grfzAEb2gZGgWjTZXKY1CqanqeupAcccAUeEkyiWx4UskWnNXkPXjZ3WD3KgyGCuHgfEA+ZdKpsKR3qpETkw42JrYDJgMjCQDIyqZ955mdJgrNgleLDofAeAcVVHrVKTxkV7L46wdHTafs2AYwCgAAAJ5wUBhoQ7t9XjvBCFdIJu12CNDgASww+9gHmwTA+CdkA0YSDnYY8bwDAZCI8MYBPGN5QIwwdIfZICtQERwdpv/CfdTZgd7U0W85p162AIA4wZ+zADjgEAx1inAgmXtCjtfODZYXjo40VY3cBj8GtAFJLTqiumgQ9DRMEI1OEBBrH6ardt35EBDv+e3S6VuS0Verhcy3QXO/wH6rfwmxz44a170128cYBk+kx3/dNdA44BA8dYYUa4mY0NOFnWHj25dtYbiMwTEO2KaWihcb1lQ2OJRo+tmMY/oxSrE3bb1jVfZMBRjcg8UEjHQR+AYh0zgj/gA9jhqLMf89sqdX/I6pldzo79MOCYR8Ax1kCS/iAKSbEGEUiMkxXTBG+gXBQYEMnJlpY+DLl/qsGbWWqGKjuGKlY37LatcS5lwAFG0pwARmzyBitsDDSy6KWiY6a7tNdowAX615OWis56dNWAY54CRwwjRRnKhWwYrAPVl0eqZWOn8SAdeAv66opp4DORyqY/28SQDr3PpSO3zzLgmCsZADRCS4G/+Ex7tWyKtlND94O2P2H+fPiLVEfDXwTMM7KRjJ0d3HNjGww45jFwdMYRZUAxIGBPbSrTiQOMqDI+Tf4Y7y1DvGIaACTFNLNaymV8Y4k1ki0A/XJ6ZtfcOJ1CWGeiizSDBpjETncJM1gL+rc7qhABlNmtFTrbG1Bv/MXc660BxwJzbKSwaVINgJzXCim7Wk9eBiLzB0S6dj4ASJ1GEC2msbY+uTdwhQBS7DsGLxcuHU2vXZp1kz0AMNLpwqKLwdpWZ0+XABhbPMA42iZ9ZT0d3Z9dMuBYYMAxdjNH1HlNxVEm1wYC3p0ZumANnTuZsw8AeqLD81u9amyikESPY/fRbgcPHGwPwrkH2FBvukupAkYaQ5MChU/u9NiuubencTM4DSXCNDbT1eB11YBjAQPHWAWCCwnXg9TK+o46K6bJMw4SIJJxkwD86c3lMqbRS7FYFDJ4IxirR3Y7HPsBYMRmPt3gdbHgcLelK/cAyUDpjWvuBjDQ2sg44/mriwYciwQ44vBcMQ39xUi3rIhUW6uIPAKQgEdnGNd11snCtirl6RhHJ38NpAHJ4tsbIv50rFjCIbuzTrMC1jf3RgAXBKAlO4PPwneNtS4VeR1ZNeBYRMDROTmvmGawzsamVQzzsTlRb7KK7LxJPwEioRW4YhroBvCrDEQWH1BxemnX4PbWo/WUassWiiuIaBl/MXiwCH+R6Vw064a3jw0E2Ft1dHC6koydMuBYhMAxduMppqHyjGknFNP0TqYxDk8Qp+p4n8lJG0fG3lBM402mgc+T38YjVs7stu1VvskAYJHsyxSadUd54DqVy/iLgR6gt3Z5tJ0V7dUa1CC4Qf9Fo+0Ujg0x4Bgi50w0y02m4dRNtGtDV51NpsmjdDYn8FXttWpQJzd747LsBF44BjXfwFMYvw92jsOyN8a1UqeJWNeJYKOLZFiwbQD3FRGvWND1XwyjjBb6bzbgGCLgGCusnMYnRYtpiHah1FZJGKxxjY1GOkPrOD+cyHGIFoU0EBmrx3bbkwf0Av1w011ckSDRrVi9stu5XQ/sGKD92U4yKlVaGEgrHZPbwrZj4+/olDX/8W1J9d//S/UF7vmrv/+EgFZNcIIXHFIDGFtAiSumQclRdjOwwa8B++CKaYgOwwOa1FhqTcVDetgzmxnfZg6vf5k225/TWqF8ObiL6I3ZsWBtGL5kTWet0m/IdJE5gTplchxfjgtpXSa84mZZ//P/dLAu6asBxyJyXpzWUWp6DMKv84ppam0yTR4B6Ni+Zsvaq5XkjzEeaX3NzBEVkS1K1nlis0ZF09EcqNx0F8uaBAsWAetUqrvpWdgoeKYjbH50UdmpqW+8X7b+9Q9JA0b3RAOORWqsMci0QnCTaSjYIJVtHKFgDXJsBJjWIXCFtJimpUJHo8HpstN84Z/kkwVOYX2eNzmrRCioWNBWpfxFeNoWXQzOPrH2XnV0jfYRZtzqRBt0UFRAsa+9mfuBd8nB2dMdHkz6asCxSIFjrICQxqY9Quxkmo06mcYqsmOBXJC3ncEmSgzY18k0No6rqI12rI6G4bZGF6MZEQ8wVmpK2viLwYFFbB7RXYYa0OptcRv8xTIZUz/YeNhFjg1G0t7v378mZ/buThowuicacCxy4ejrkJiyQFsLDMT6zt5iGjvpB2u8Y0Hrxk6vge7MlnJND7Fn1uLCopB9dblQ/gYwcnglmg5gpH0LB6VYmbfbubU/2HsAIzxS+i/Oa63U4AI800KRK/ueme3VxPtvlR1P/p9IT4/Dg0lfDTiGDDiibL2TaUq0Om55e7UaEDPeuTXeidbbGXWcKzyjRZEqHUMJgDRjmZmxtPXL7foxk5hsB8AEgIJMG38xWDuDfSHCuDRSLVMZm9rgjU0F4Jt+hGQN6gdpNfWprZuTBouxTzTgGGJlwVC4YpqpMZNpNlvri7yJhmDk4X5Rje0ai09sKpWRFhkwJ5entgu7QqoTm0JmgxQoQMUAY3CAETuyeQi9ZWt0gATFk+MaSnTOt4HFkIDFqL0Y2Vohc973Djm0cJ5cOXcuFg8mfduAY54a31wrs5tMA79ubmtl72QaSynlDYiksIkIJBFipgexV1pMYxXZBiLzwI6Rjqb6dmZzuRZXUCFNhBHQkii6bvdnd20A69cL8G6wGeECS7n2p/n6eSMjVTL1DffL7nGj5MLRI0kDxb5PNOCYBwY334QMEDmh0ZsHS5RLJ9NoxCC7Rs6cSPLrC4gkeuCKabzZsEZozzddKvbv47IWyB9FFUuUO10nVvCSvC77bffo1gB30Rt/WhVt+UXfWKO6FLs+9vf7RjJH/A33y6bf/kIunTwpPd3dffFg0n+nDxx/8C0Zd3uHnfSLHHjCq/Mm01SqITKOUnAOIZGDYU9WttfIzJYKTT8R+bF+axZR6c+JZPoYgBE506EDLeVa8GKp6GBtA4ARW7Cus04BPKMajRdtdgBdH9FUJpNefac8+4sfydULF9IqiIlFlWkDx3U//p48ffdNBhyLHDiq0MVURc5oLpPlkSrZ3FVn6ac8ScGRCrzuNDpqZXGkSqY0l1k/yBDoZqYAMJ3XU1xHRmJhW1XvYXKIVUknOtjl4n4GC5CBmNNSLuOj3EXG0aazv/aa4gObU153jzb6vnjsaMagEQCZNnDc8uffyZQH7zXBDJFzcmkpegxObSrV0XmuUjIXxtE+Y+CIBg5kY0wxzZyWCq1qJTpkDqH4HEKu9hTdh087vblco1no/QboK3lyeAqjbSDCSzqaed60OYJfSoW0te4yPXd2gUKYue9/SHY/NULOHnhOeq5diw0cpn07beD4/Pw5Mv/Rh80ZhQg4OmHkinEiTUXlJIUacCEhYW+xiuy8icT2JcZTScnYMOvVZo4lVpcT3QYskuqkip8pIlRI20Fx4MNbNkEs2QX4ixQeLWyrVF4pB3mLLppOx+rx8MYSGX9Hpyz+zEfkuakT5cLRw75EGh3STBs4nn/hkJCuHt1ZZ+AxpODRCaqrpiS6BYC0aESwziWe43LOhn56k5ujk2nqB9l0iJDrrtPh2KtmFhqiFdIt5arTRBetOjo4vXYdFTzAWKUHdqKLsftmtw08IgOj2quF1PQz3/6KHF6xRK5dvuTwnm/XtIEj32Df5PEy86E3yHATYFPgqAOmIpsIBfNnSaO4YhpzOsE5nb5Akj1ZEakW+KqkH7WYxgBU6HUYwKgFLw0lwtQiCq4sFR2c3mIzAYyA9pWRao36AhbZJwOJtgZ9ZQAcBmic9pbXyLa//UkuHDnsG1Ds+0YZAccLR16Q7f/4i0YdDTyaIDtBdimucQ2DZUZzuSyPVAtj9PoCGPs7OKdEGntTV12UI1WplfNWgRleHQYwPt1Qou2daL+lBz7jLwZms9BPeraSjuYgPhruomUIDDAnOjTUD5JRnbWy4mufkyPPLJPLZ170jc/YFzTyd0bAsfvqFTm9bYumrMd01dumJtrUkN6vKa/6QVrlR7Pq+a0Vys3hFG2gMTjQGLv2FNMQ0QAsLI1UaVQDzpTxIMMBIsfUD9K056I2bySgTXgJVi83dNVrg/85rRUKGF1GwB3K7RoOvUxln58a1ixzH3lI506f3LJRrpw7Kz1pzJ+OBxAT3ZcRcORNr54/Lyc2rpcVX/+8jL9riKWtQwoSBxJ0+gpiBCnQoJiGOakulR0LZOx2cI6LKJMDkDiuKU2lWkxjVZrF5axcOpoK6QVtlXqYoxLfdC/3ukc62undkkiVzG6p0Oi/8ReLS+cG8o8pP06v3pZymf6WV8vqHzwhB2ZOlYvHj4pk0NQ7EUiMd3/GwJE37b5yWU5sWCcrvvEFmXDPMHnSOI8Wfe0HQFMByKQJKjUBkG4yjfEgc++44oEF58zguM1VAGlzbVM27P3If1DvBRWBaDKtWxa0eg39SYnGkwG7L7u6yLoT3aWQEMAIp5SDNenooOTDPrcwwOqoSJVMuO8WWfDow7LtH3+RF3dt97ViOh5Q7HufL8DRvemprZtlzfefkLG3tMnwJhtxZIo4sCLizCY3lWovsvUddVZMk2e8MkAkDg6AP7W5XPvEEbEygv7Asp0P+s8+AUZG1w/SaD/7SIW9AcPsAsN464suARhZfw7L89sqZUJTqYHFPDxk5YPu9v0OTH8Z3VUv0978Knn2lz+Ws/v3adDO4a9cXn0FjnAezz63VwtmJt5/q4LHvj/e/i4Mh5PLfSIVCoDkxD2zuVwrfknfxDO+dl+wDm91e63Q0ufpRjsY5lJH0v2s0Q2DNMJI9FgbdnfVW1udgA5nrD/AfVpzuVJA7ABmvjAVvZ782rtl/c9/KMfXr5ErZ89I99WrWecyJgKjvgJHPoS09fnnD8r+GVO1+eTYWyIWercTVVIy4BXTDNY0Num0+a2VOkZrk1Vk5w2Idim2VR01sihSpQ2IrUVIfjlA9IiOBlBBXGN+CtKMCpL7Q9fmIQ2yuqNGo4sMSxgXHQdoEfv80plUAFwunzuqrVImPXCbrP7uN+TAjClyZu9uucas6YD/+Q4c9ff09GjRzOFli2Xtf35Hpr35lUJePpcLbp9V2IpJes0V08CzWxbx+kJSBWxRx9w7wL5rDggh5aYAss3jaDHyzFr6BKd3RLDgMMKXY8oL6VDrYJB7XaH3Ja10lrdXa3SeQ7DxF4PTi0LEAiMbBsukl7fK4ve8Vbb97pdycsN6uXL2bMBwsffjswMce99fXty1Q7b//c86nvDpe4bJiOYyA5AWgUxJBkbWv0yjkLNbvJ6QrpjGiP25d4p9ASR/b+1qkHWddR7Jv7lcZ+Yy2pBK+kI02oX2nWOLXphbrC11AkrHxpOPMNzHQQp6DZ0iPMDotdOxYhezAcnaE6LQXseDwUpnWHbvzbLr8Y/IqZH/lHPLFsulndvl2skT0nP1agzCCuZm1oEjP4sfemr7Vln30/+QCa+4WUZ31AizFJNdUHueKZ+TASqyJ+lkmkqNqGCsDUDmB4AEIBDhWtNZq9XYRCApyjDn6b/+toAaPQAAIABJREFU4mSs6CV4uQcwIvNEGKEFkI6GV+rslV39l/1iW1Ony1B+GAdLlT18WHfg2j6sRXa/4X554d+/KmemTZTL+/bKNRp8X76cs/Y7feFpToAjH0rhzKUTx+XwskWy9IufkvF3dplyWeQxLRmgmEZPZo0lOpmG8XnG4QreiTpD55xpbDX2yHqbq+unwxtTP1jow7gyYkUvTu5yfYU2A1WDnqe0FyPya4ckA4qp6jm6zIS1Fe3VCbuKAB533N4pO++7Rfa95y1y5Kc/lPOrViiA7AvqcvF3zoAjP6anu1urgWjbs/upEbLsi5+UcbdGLPpoADItAMlJjYgWvC6vsbjXzNgqsvMDRDoepKbvIjUyO+pgAf2pGld7/stkeP0gmdBYKnNaKnSM57qOOjsw5Tgl7/iLRIWmN5cpLYNIkQFGA4yp2ChsIIcNDh2M5F3X6Y35HPDwc1OjbL+1XXa/7h557n3vkBe+9RU5NepfcmnrZpFr13KBGfUzcgocY38V0ccjK5fJ5j/+tyz8+CPy9N1DZWRLuTkUA5FpyQAgEl4dANIrpvEm01hxQH6AyC1dDbK2s1bTeewPvTutGntgZ4tcE5FgvXAyrkra6Bm5k2t3AFrVXqP9Zme0eDxenD/7kwpgsOeGe72weVCtrutyZ11GVKsd9wzTCOShb39FTvz9L3J+5VLlQWZ7gkxgwFFBpFZfn5MXFs+XtT/+nsx5/ztk4n236CidJy0qYQYpTaPsTnOM73LV2IxU22oV2dd5MwOebLMYyaEam76CGE+MKBWnFoW80aGyHqyLOpkWepvWaBoLEBPk3oXpsx138ZkoYCTCyOHUwN+Nsmrr0f96wMtHbiY2lupISVLSfjfh3/7yFtn5wG3y/Fc+I6fHjpSLG9fL1WNHszZRJljgGBOC7L52VU5u3iAb/vu/ZMqD98qYmxqFTumkZ0ww+xdMW5/E6wPviJnLiyNVsj6aDiBaYw44eADCHsCDXNhaJZOYilDvpfzCGsXhdwMYKa4gwriwrVJTWHbgyZ2sIpPYB3e44fCJ0w+rTJpvSexbBlobN9iCYQlzGPGZYXQx2UPbzruHyoHHPyKnJ4xV8Nhz6aLvRTR5AxzBkD1Xr8jl06fk9I5tsvE3v5Bpr7/P0tdpRt0GEuowPU5bGADkUw0lWlBAui+2ai1ZhbTn+e/AcdREdgCQtDGBJD4aRx2yVj4ckOHqEoWl4IIIuRV8+S9v/ekwsghgXNJWpYdNx1000Jg+eAqTn4n9rUQZJzeVRQMWOdbloU2y47Z22fWau+TAJz8sZxfOk2unTsaE6TK/mVfAsfvF03Jh3Ro5/tc/ys5H3ilr7xwiC2lx0FRmfCgDkBlHnnEArpiGthluMs3mrtw6qP6cV1gfw2lT1LSuo1bT2OwNkeIxRZxxILqoDbuby9XBABhp62K83Nzqo4suOu6tTXcxoBgLApO9DVhEdmjAT3CCfsPIFrYtELs+tFl23D1U9r3nrXL0Fz+SC2tWSc+VK5mjRhEJFjj29Ggvost7d8vZebPl+J9+K4e++lnZ+843yo7bO2Tb0EaNDEFKXhidTuHaHiS7mfY8MwLxZIAqSDhkHErmtlbqDFmqf81pB2TkYowrhpYIJDxI0rUYYvhBGgEq8AMUkW9sGHy5ea0VKnc4GEBzYA4mZu0DcXABfD56TiUrDt4BRktJm6+I5ysGug+dnthUqiM+qbbPx4lNu19/nxx64ktyZsYUL/rY3Z0RgAwGOF67JlePH5OLWzbKmdnT5djvfiH7P/aI7Hrl7QmROUYVjhqjtEhnYXytKtMUfSClTuZxQCSRn1ktvY6cVLZVrgYPIl37Exw8bWiomne6T8Qu39OIfEfsFPJFoYuOA8S5dNohJdcgFR8CBQDHrvJk7aEyzuIkY1+L8Tn4DFfwgk4vjVTrYTefD3877xoi+x97r5yeOFauHT2S0QSa3AHHnh7tM9R97pxcObBfXpz8tBz84qdkx903yfahTQkBYzzjwmmRtA7E5bGNg73GqwUeiShG5SrE38TpEQe/iMIEjQQZgIyng0Hddz2t2OJVZGO82TMHIoMEkny2a07Pd6KNDrJERItKSg4j+exYgtrTbH8uhw8iukSxiQhBgWB/CtE+2XcONlji+PL0UyVTxSGkkHR6+7Bm2f3au+XMlAly9eiRtItmcgYcey5d0lE5J/76B3nug+/W0nEaWaYKGp2RYbOUE9VZq721qELEeZhiBatYxbD+zvmPa6Cjf5ksj1TJ5pgRUE4G7Zr7iCR6DxDg8Og4kUSPaC5OuggOaxDgcXidR30AlBAZpQ3U+ijHie/KlJFCcjDFItvIyKr2Wt2TcRZkMP+YQYAJfDGluUyji46LXIg6TeseUtcvTh6fdtFM1oEjgPHChvVy/C+/13T07je/Unbc0ZU2YOxr0GhVwUl+TUeNniYJGxOFwPkXA4ix3xDcPgJAtJim4cbJNES9+sqh/Z17EMmau2gShpzTPz33AJILWiuVc0Rqm+gANiHTgyU2BXkYF007M/IPkAj/ell7tcDFhifLdwGwFKJTKQY5RibIFhitKTjbWSx+C52HGkN2k6wB+h1owYsffGCmz7y8RQ58/ANyZu7MtHo9ZgU49vT0SPelS3Jp8wY5NfKf8sITX5I9b3tQv2y2DBNGGmON88BgzIoS6ukNVyxCbL8jOEPYG1HqnUyDc2IiSrZk2t43vbWFm8phEiMPkGSkFzYBMEl6CbAHn5UJIBSpTGsu0yIpCqXcf+7jcewIToN0M5XegMSlkSpZ0V6jQBEZ2BCNKNp+pbdffqwb9p89Z78pqHI8eEtJB2czC9VfETCAl+ymNaHv2JJiOwjuvGeYHPnZD+XKgedSLpTxHThS7n3l8CE5t3i+HPnRd2TPm18l229uzblzhc9C5AEHMSFaSEO5fKEKs33v/DGARK6QKS8lWS2rAQ8U0/hxGrT3yKqtwPiTOgbsERmkspZsxer2G/9zAOWxDV1e9JC9LTbH4QdgC/I93F6yjwoYWyu91m0B0RXMRuePjU5nLzhkQE9ygNGb8FKXVXsUpP7w2fsfe5+cmTk1WODYc/myXHlur0YZ9779dVmNMCa74DgJKhhprEsHd4TDBtIXtoKnYxSy9RpkCW7dgjavDQNRb5tME1zkKVm7YM8r3D0CMLqoMvQA+K201gqC25otu2Lvmxsfhcxgw5nWpBPG2pgwVtxgMdb2wXU8+uufBgsczy9fomnpnfff6oHGmxrzAq33nkxpw1Cl00MshZ0bxQyDAcT4EIXEeZEiIzW6MUTGJ9YQ2e3CBWSFsnc4dkaIUqgwqqG3oj4MtsZ+o39+C7sN9xlKCj1jNWsUMm7y9juHyKFvfzUY4Nhz4by8OOVpOfjZj3q9GFNsr5MrgwWAJCIELwmO0vzWCg1LQ3g3hfRPIcO6lhgiV0wztalU5YsUGlHvXMm4fY4Bt2KUgU1dXjqapulEhtx0l7DaGvvd6fsrDvm0yYKzDGBcF53WBD4oRt3p7zdtublVnvvSp3MPHGkk+eLEcbL/I+8TyJb9fcl8egwhgQcJjwEBokKSJr30aTKltDXIVAaoxiMCSVXvvGhjcQjWHFzySQ/su4TPWRTKnrvqaLJEFCehS9Yxw2xzOraZdLROCtNRs16FNP4/jGAxVv833dwqu7/0qdwCx2unT8nZ2dPluUcekm0BFMDELkAmt4kI4dSpmGSGMeX3RI6IIKUjpPYaW7dYGaAoC5miQpcJAxReUJwRdqOVic7aa4sT8AIWaXeCjkD5oACNQrSRdqA3X5SiP76eAWosUb8+v61SB4fQU9Xsh2c/1jHa+etfyB1w7Ll2Tc6tWKqzpYtpEwCRRCHhPbh0iFVjGxCMBYKZ3KY4a3JTmTatX98Rrdg1EGmGPIRpsli/wSEK2+v6L6IjZnfN7qZjawGMpKOfaijxOOft1XoYiZU3u+11iVhx102y/jtfzx1wvHrsqBz95U9kxx2dRWf0OZEoF5IRVW1V6uitH5gZsXSMWLzXkMZGnki7QZGgbRQRSDNmxRlFs33tf18BjUQY6bF5vfNFitGleHpm94XPZpOSpuH/vNZKWdvpUYOsy0V8/UPnFtw9VNZ8/4ncAcczs6dr5/FteVI5nQ3j7NImpLF1rFmL19JnuBXTWNrEB8fGyRgAySQSKBJwbWkvsskqsg1EF3kEErDo9dqtkpnN5den++D4DfCFD/BlsudEpum/iBwR6FndXquyZSnp+IARrERgDBrIlDu7ZHUugeOxX/2X7H7w3tAYeMeDBEBC1GbCBGRbokeZCL291tYPGXDkbQoA5kZnHXNgMeOX2Phl47Bo75m99QYs4rCIdPRO9yrRw5PZQbODqcoALfUmNpbqZCcAI3KFfCFnpseJ14A1Qv8oBh5/e2fugCP8xue/9GnZfktb6DYIodw8pF4jQ7TzwdGzAVZMY4YvVcOX6PkcRrz5qF4aG4PoeoyZQUxsEG1t8nNtOPwgv0xYWhLxIox26DZ7mcj+9Xe/x10cLJOigJFADpFr0/3kdH9jV50sb69WSgjBinE5A449PdJz+ZIc+NSjod+s3nRLtc68hbOGYFs1thnF/oxfKo+RhqHn2IK2yusnajg7ZiiTM5S2TsGtE1QfohsUvCxSrniptTuzDFXKGTr8KSBndMNgndIFpYcm8GYHU9NtdJFOBaT1HUbJHXAUkZ7ubjnw2Y/J1jxt9J1LZwF4RIDZFGbeUvI/oQkDaVydVACSPTcx2CYCyYGEKn8m06yIVGsFqqVkUjOcubQLYf8sqD2rOmplZkuFyi3ya7SexDpu9i/+2gBwxkSnu2D3NnTWm+1LIxWPPhLtJ5PlQCMyl1PgSAnOni98UjYNa7bIR8wmAiAJm6/qqNGRWNNbyo0HaSfslE/YiZwICq+TaSimaeotpsEohB2o2O8PHkRvHVIv6zq96CLdArx+uL3RjURybffHB01hXpcx9d7whAWtlcL0LeSK4IzpeWp67rKiTFxCH/sGtHIOHLd97XOy7tZ228gY4OiEms1CyJXT01Yls1vKNd3IySnMxsB+u38OgugNKQdGG2IU4PpQTGMgMjXD6nTWrumtW6+tq5FFbZXa/xbONxFG03f/9D0Ma6nV0Y0lSvsCMLr50ZZZSU83NerfXqPFQ3CKYyONTp5yDhw3/PvXZOVdNxnPIA5w7OuENnR5ow3ntFbIpKay643F422k21C7mtFNVgZw0l4xjQcgKabZaOO07FCbhG3qa6uS/fsl2ZXmMk0pmk0zu5Ws3eJ5w+sGCdXR2K9pTWXXudx2AE4PLKK/AG2K0eAzQm3q7xCXc+BI758F9wzTKEeyxibsz9MNhWvQViVTmr25q2yqGVsztqkY2/6eS1/IKU2l2m4B2gSR7y1d6RuhsOus/f5e2cF+IUsen7tW+47i8IfbOECLrqZISYrlbdN/0fG2Td969S2dtaAgDbtPMSUZqf58BY8FAhwn39Gl83ftdJD8ZnvGt14oi6fZs+MeGHg08DiQkif7OEYZAEl6YlZzuXKEjB+UvI6mY7DD8BpmSJM+xNFbBwmzV8nao77PwzZN1sNt5XXuolVIZ26fAI3wQeG/J9seMBDgSPNIUC18BAOPqW88a8bpYHVHjVY8EVYe23Bj1VNfpbO/zWAnKwMcRq6ngZrLZGG0Se5WI5lbGjvJNDbOCO7swrZKmdZcZgUvKUbWktXVYn8e/EW4r7NaKmRppFpbixE8IZAShkNXNn8joJuOLgwmmdDoNdRPNhAVCHDkQ6nSQSDoRE5e3QQhPUVwxTSLIxTTVOiJjGKaZAWg2A2P/b7MADOUCNr5TNfRhhWaGlrfWStUwmbTqNl7p2cPglw3bLhmRDpqNOU1o9kbctAfV8r0MzP9LMb1I/NBZJroItOwAIxWwOefPUBP6ZG6uK3yeh/pVPFCYMARgefL4pRo8koEzcBj+sLB2mkxTaRaKKZB6YjqEt4vRuNivyn3DgcAQFNxaBIr2j1jzsHF9DZ9vQ0S6Pn12UQXOfzTTowKaSKMoxuMg202KjUbhX2BJuMA48pIjfJizb74Y1+cnpKWZt70+AwCTIECR6dYCAukTIs8+iMgOASiQkQhGW1I2hGlTPVU4fbHrqkZwDCsFzI1tblMK/CYxgB9wgy8f/rrF6jL5vswEpCDA73ySElrvzdLydpBPQUZwCfhm8ZE+YsEkdZ31MlWK8zzLaODXcY+E2WEHgjeIqqbiZ/KC+CI8NC4E67eOos8+iIwCAscBojptFlh3BKGHSXNRGDstZkpXLGsHzoL3YSINnIFTwbOraWwwwEecUTPtFdrr1kcEXJgB1OzDanYN+SFjCPRr9XtNUpzwGfZAdRfG8LBnoMdPEa/Akh5ARwRNoSIKMbkpjJZ2latgCebp+UwvTetMFwxDZxSADppbDP0ZuhTMfSJnguAhFc7sZHRhmUa6SYKZRWP/jqAoG2WS3XBOZvRUq6OyPjUZkMS2YV493t+fpBW8FJ0R9rU5kf7byfQVQ8wVmlmSKOMPgaN8gY4OiGjimpiY6lGyJigwsk2aINZTJ8PeV0n00SLaeCsmfE34+/0L5MrToETLRFIDic4BlpHEfW2KIL/ziFXdgkbTNYC6suslnK1z8adNpuRiq1AXoh40ZJpUXQcoNkF/20CukohEfOlZ7aUawFyNrKMeQccnTACZjjVLm+vjhbOGID001HgyFHcFRBldTKNV0zjVyjb7aNdw+tgqIykUCI2smAHQf+dhZ92wb0X9kH5ix21OpYSwDiucbA17c6QGxYme0gQCD/uACMDLNZ31Mo2Cwb5GgxDV7GrcBgZIUvrIjrWZLPBft4CRxSMCAYhVqo4KfZgcSxy4b/jYU1JZaPYk20yjXFAfXaO6DHUCLhMRCA3ddZpGtt02X9ddsAv3St7AsWAQkUOlVoh7WOKK0zAKay/tZf7XKo6TwTMaCv+67rTVXz3yuiYQIB6LuQur4GjA48a5m4qVWCDQUvXKNrrEguvE0KiDLTV6J1MY8U0uVDEYv8Ml8Z2/dnoIWaNfBPrY1C2akNXvUYtXEsdQAB7V+zyab/Pnz3GVyM7SyO02LNgTzb1mPZ7pKTpnMK651JX8x44OoVmUVwjYhYLA2cRi+w4HiK7nGIAkEsi1cpLYe3ZA7cfdvXH0IZtHR2AJAKJwaPaf3W7cZmz6WAGem9HpKcVCk6fNBeOKGyyab83PZsGvYl0NJQn19/V+IvZ883wjWmrQzs0/HIQulowwNEpNYuEkM5urbjOf6RqeCDjaI+nvkYAcyKQCCpgfXZLuTaAtmKa9Aysk2G7eusHiGRUJjNSAZDLIx6fGSBj+pr9NeCAmAsivcl78dmL4XVes27AC9kpuHV0UrB2XNnRWzKtzHsHMHK44+AdZCCn4ICjM0IQPyc2edXXLCgRMotAZkdoceKsrfKeopNpqMYO6rTjZMCuxeOQvAMhU2kqNWqBE+LQYgDSX51Gj2OJ9IwpzTaR3vS0OPSUgx56it0nW4CukpUyPfVXR53No8G+y/wtbK2MDvPIj0xAwQJHZ4w4+YzTBsSV2jwcITYAmR1BdgLN+iLQ9ISc0lymlXNWjV0czsHpVZBXItrMxl4eqdJCGiuKy1yf0VkKFNDbXBPpg5Ql++zM7ZKjl1Co6vEXq2Vjp/lZ5w/9vnoTmepkTUeNzG/1RgOOqM98H/3UhYIHjiyGE2zaRcxtLdfUqqW7Mnc2/SmEc0ReX0gEvFIjF0GGz/1UDHuv4AwV+owcASCJbDP/GKK9HQjT12m6UiyKVOmABaJGrC/rbHJua9CfDBAQoC+rcpE7arWFGwcQ08X0dbE/vwpoXNlerYMUAOr5GpApCuDoBB9DSNUmDcTpZQTvgvSqCXl2hNwpgItk0FicJsH03ySdQTTY7Y1dzUGlKgPuQIgBndxUqmMNoaUQgXSyZ9fEuk325Zloh4QpTaXa2gxHlOo+2PPDpbuaxWsoUTuOPceuE6m2ljqJdS0TOwRYhJpDBo+ILkB9dJ4f7IoKOMYauNEAyKZSLehgQyjwMC5GdgQ/VmlYY2YWY3DgT+HwrZgmXI4nVg/9uu0OhXCr5lJI014dHVWWfZmOle98v80hmegihUYULUAl4TA9wqKLBpj7kQH0i5G/+EyCLvhMAKP5zOzYF/SUynP62tLNgElbAMZCOdgVLXB0DguFIGLBqCMqgwGQFoXMjjLEOlWnGCsj3mQaACSVYKTJ3N7Y1QBlOjKgY0k1AgmArLnObY6VvzDdJmIBZYQKadqhzG2t0LnhheKE0pEBe40/tgMZwT9OaiTIYlm6bNsNl52jqAjACJebg12hyXPRA8fYDUFJJjSWysK2SlnfUaenKeNC5gJE1msUxIpp/DH2sTId9tsYXU7rRNg4EIalkIaDGU6IiBCAEd2irdHIPCPRh10+8/H3E0yB40o6FFoXLV6Qoa3W1i5rFBinq2TjKHghusg+5KN8JPOdQgUcWRA2y7UUYP6qcaayDxw5xTlHR3h+dXuNRkW8NiAWgUxGUe058Y1srBOkv+u8Fq+heDHzsdAlAOOKaHN+17Db0tHxZcR0p3ddHH/R+b4wHbayHU2M9/7oKodZdJXoYj4XvKSiJ6EDjm5xcDjwIEH+05vL9cSuBGBrPpy1U5dTrNhwPVxIaAQolFVk9xp4J6d2TX5NaFlBBBIASRSSVBA8rWIopiEatK6jTpZGqnX4weQmb8ILvDRS9yYnyctJ2NbKBUvoUDC/rVKDJeuj0Xlnk+3qbwCFoSTQ4shuwsvmcJfvBS+p6EVogWPsIpHCBkDObPGcDYRVOEOmTP4qU9/1dJGT3sk0Fdcn08Tuj902p5iqDKDTGGuqFOH8LQFEttcI8123FkBVNt+RaBCpLbpD0A4FMAzVhmKzVNfDnh8+HVIdaPACI6SjV0QHZRg9Kzt+jXVFZ2MnvGhWrYBT0onshgHHPptKxAJnQ+84ohUIAuTzvqDH/vZf+XDqkPuZeTqpqXcOJyfmRAJs99vaDCQDRLJpD0WqaEFbpaaNAGREXaBO5ENam+/AYZWKaOwOqS2c/Yxoe46RddZ3caB9tsdfptXzRKFdJo2ou/EX/fdVsf4f2sg6BYyezpINYA+KWR4NOCYAJRqFbChR400Hd4w6xp0oWazQ2G3/14M13tBVr1Ei106E/TAAaSDRD2MMkMSxwvMiEoljRb9xAKS1nZ5nQ9d5Tw6ifAafxWdu6KSFldcDle9Eqt26D5ispyLr8FuRmfENZM4qNOqFbJl/8t8/saaqxxz2Ous1kku2ErpVKntWyM814JgAOLKpABUACwLhjVqqUgeTDYdiCn6jgl9XzK467XVFTzqcvYFHc6h+GFzkCACJs4V7NL5xsExrYla215JEsw0cFn3MNgAUafTLZAi4vUTWiU6MbRwsoxoGqa3hO5mMm4ynIuPIDHKETLkZ75aOvtGf+Olf8U3UQ3DohDcKdSRsemvAsR/g6JQXQ66V2I0Md2eChUcwJs3lp0Dae8VXdhwuikp6kV6ccL3G6mQaczBORu2amSxQWIOOQ1WBl0TUD6cwpblUpreUa487QOXCtiotulkSqVbuIW2AYv/DR6Q1DilCeImAQ6IR05rLtRk+7U84ANHTFIdjkfTM9i2sco/cIKdEqJE57U8Mf9cyYlnzyfihZ6IdQVxf4rDqrwHHJIBjrHECROJcOOHNaamQpREv1UUVlQG/7K8B6ReX1rPJNOZ0Y3UzG7fRd5wDHRjIPMCVBPhRpAIIpHFy7H8HDEkZ8nzAIYDUKp9NVjOVT+d7qNI135N9X4M/ByzCheZwSMCItcf/sxeZ7mchv96AYwYCEHvqQ7A49cF5sFNf9pWaNdZimohXTMMJEEeNky5khbTvHm6DbPtv+x8rAwAUzXY1WLYrV4EZfAvZRLjPChhbmMRUaoe/GKxkwDFmMWIVNtXbgEhOI6Sp1kVnfPrJj8qV0hTq58DtoRIeKsHoKF8s7KfCVGXYnm+gxWQgP2QA24VPIWLNRCAyWxRwWVAie0EJ1tajRdUqJYp1h/9sOvFSnTDg6BNwRLhcZRv8pRkt5dpaxirbsqfosSDXKT3Glcgv/DJSihhfU/yXKr6tia2JyUB+ygB8W3wI/NhV7V4Wy1X6x9o8u+2fbwEwwqGHxwzNxKOXeAWypicv1RMDjj4CRydgnBa9Sk2vATHd42npUwiNh4vBGME31WKa9lqtfKM4AUNsEciXGgAns3a1tTEZCE4GsE2xPYRXRfuMAmiKwSbn428gI0imimp0Aj0UxLEHNrpzYD0w4JgF4BhrgIl4jaPVR3OZRsGWt1cr2daKafw7LfZnlIj4xk6mgQtp5OaBDUOsDNttWy+TAf9lALBIZItCK6qjqcS3qWXZ9wtkpVhnAjoARjJTxo1PTb4NOGYZODqDi5Fg+sPEaDsfAKTXeNiKafoDfn495gjPjINiBF3Y2yk4ubRragbT1svWK1MZcDPVKbiY2Vyu88eZUGb8xeyBRo+7WCfPdHiAkUAOAYRM9zKsrzfgmCPgGCtgsWmJpW1V8mxHnZJyzXBkz3DEAlDW2TVwnRw1IESG2ZfYfbLbth4mAyYDfsgAtoUm0VCYJjSVKJeOTMhWa+OWtVQ8dh5u6MZOL8JIwIDOGwB3P/Y0zO9hwDEgsOAMCSHypxtLZW5Lhaxur1FBjwU5djs7YNIZFZfKppiGlNHwOiumCbNBtN9uTtVvGXCBAmalL49UCdFFImAWKMiObcdnxgYH6HYyxjpt+AqWDTgGBBxjjRMnUcLmLnXBKCOajtrYqOwZllhAzqkUY76qgzYM1dHJNEaSjpVRu22AymQgeRkALBIUgBLDoXRFe/X1cYCxtsdu+2fjAYva27fd6+3L5Cca9ht/MXm5TVbHDTjmAXB0m+WMDdVdkHYZb8aII0CNGRj/DEyitcTtWCnwAAAgAElEQVTwXJ9M01Yls1u8MXH0UmNv3D7Z1dbCZMBkIJ4MEAQArMChWxAFjNBirBgye/Zbq6M7apUrykQdwLrZ7OzqpwHHPAYEY+oHa1NxDNAzMSdWS3Fkzwg5UAn3CMC+Ms7p1UBkdo1SPIds99ma56sMuAM//f9oGr2grVJ7Alr7tezZacCi69m7DBvdUmF9e3OIZQw45nCx0zV8GKYx9YM0CskIJE6wxpHJnlFy4NFdr/NlIlUytRm+zGBtLG4A0sBMujptryt82UH/Kaqj4IIII7aZkbPObtjVfxsNfYusENPZ6L84pbnMhjwEgGEMOAaw6Ok4DYyUV5U3WFv6zGulqXitEayH+G+c4hl8wKNW6HXVaTQB3tL4xhLdk3T2015T+MDB9jC8e0iTaIrpyAZhhwEzNt0lu7aYNaad2syWCqUDANqtQjoYHTTgWCDAMdZJoTAU02C4ZjSX61zN9Z3W2iEe4MvGfTgInUyjxTRV4k2mKbGK7ALUpVi9stvBOKFCWXfAItFFbC6zo1d31CqdBXuQDTtj79kgpKTpd7yorVKoSqdZ9+h645wHrTMGHAvc2VExRjENjWTphM+JDG6e8SCze/p1Rp1TsDeZplpmO2K2GTYrJCpwuxK0Y8qnz8fGMriB6S50vAAwGlUoe/bVjYzFl82PAkb4owRM8kkuwvxdDDgWiYH3eJC9xTQo3brOOk2hOJBj1+wZO4D6RlIpkRolarvJNNYKwqJYYXYwhfrbXVbHAcalUW75NmvYnbXoKmAcn+UAIzYU+2lc8vyzoQYciwQ49jXQpFSIQq6AsN1lxTS5BM1UZOtkmih524pp8s/w9dUX+9v2qC+PHB4zQMayN9k9cAMY6b8IYIT2M7ZxsAy36S55HV014FikwLHXCDKZpkTnM5NSRUlzCaLC+lm9xTT1srq9VpsAT2gqtWKaItU3A56FDTxdxob+uda5IntAMdYfYCPXddZq+yJsI+MYKQC1CGP+65IBxxA4MkjdrpiGE92SSJW2M7CTdG4MpCumWdVRoy0kiAR7M1ONs2OAK/+dRDHvEWBlcqM33cWj93gV0mYbs2MbWVcoPYBzBiww3cVsYeHZAAOOIQCOsYbfFdNQGUgxjZtMY4YyO4ay7wm7t5im6joXElAfu0d2u/AMqe1Z4ewZ/EU33UXHAUb5i2YDs2cDsXsUFdF7cVZrhQJGQLtFFwtHb2JtHMBxzQ++Jan++3+pvsA9f/X3nxA+NPZL2O3cCw8Ki+JOafJ6kQEgSRtYtWD2jGcsiOS2FtO018jc1kqZ1FR2fa6qGdPc64PZoOJec8/eDVbajhsHaNSd7No6Wum4tmUARmgA8BefNP5iweOfp+++Sdb+6LsO1iV9NeBYRJFKjCpRLxR7pU2myTkHlEjHhq56bfUxpalM94KoiAHI4gYzBlazv7/okFZI13v9FykWJPrV9xBnf/sHIqHmeOMAvXY6Nigh+3Kea1sy+dV3ysbf/iJpwOieaMCxiIAjQoeBhZjspbJLpXcyjRnZXDgVwKNncEnp1Mj8Vm/2qoHH4jO6uTbyYf08AKNOd2mrVE43gNGadfsHEOPZRdZ4WaRam3UTjLADcHHarxlve53sHPkPhweTvhpwLDLgGOtcAJAo/USdTFOmvBTS2GZ0s2t0nSFmnb0UT41GIXUyTSOTaYrTCMXKnt22Pc5EBtARb7pLmSymWXe7N93F+IvZs12Ov8j4RTImRBiNv1jcerzkMx+VY2tXJQ0Y3RMNOIbAiWOEOTHSzseKabJneB1gjHfFKHuTaap0Mg1ViPSFNBBZ3IY5E/AUtteiC6MbvOkuTG9SwNhRIxs7LVsSz6b4cd/WIfWyvrNOq6PntVYIvFEKjobXWaeIYte/p25ulQ2//qlcPnXS4cGkrwYcQwAc+yoAgGVKc5lwsnTFNAAbPwyRvUf/wNTjQdZpQ/fZrRXiTaYpUWpB332yvw1UhkEGrmdGmkq1tcuy9mrlClt0sX9bkq6tZV2x9+s6amVFe7UAGMlK2XSs8Nib4Q2DZd6H3i0H585MGizGPtGAYwiBo3NGnPABkaRQIZszG9uqsbNjrBMZedacMWhTm8pldL1xiZxs2rX4nRiAcXTDYBnfVHp9sMGWIbnVv0R6WYz3Axix70QYHX+RCK/pWvHr2g173DBYxgxrll0j/yUXjx+LxYNJ3zbgGGLgiDABHtWA1w9WAvrc1gpZ22E8yFw5Doy5K6YhlU0/uqcbSmSkpYrMoRWxbRpVP1h5dAwx2NBZbwfWLANmACP2Bfs+IcpdxO7fACiKWN7sd/aC41EdtbLux9+TF3ftkJ7u7qTBYuwTDTiaslw3Hi5lhGFhKsqStirtCQkPJldAKsyfsyU6G5sGuzjUWS3lUb5Rr9KbAbS1KFQZwL5QcDEnOg6QAyo9UC0lnZ0oK3abYkjsOPYcu06x5Ajrv3jd5xWqLqX7vcfd2i5Lv/BJObllo1y9cCEWC6Z024CjAce4SuQm02BwmEzDGC/SqoCbMIO7XP12OEg41iWRanW0cCEx+lZMY8AxXacR1Ougw1AMNqelQpYyJtU6O2TNhgLC6b24qr1GFrVVKg0JwGj8RbMb4+/oVNB4eNki6b58KSWg2PfJaQPHtT/8joy/sysu6AjKQNnn+q8cWunIHNjoZBpvDmydNd/NcmrJAVQcwaauOlnZXq1pJq+YZrA6AgOR/su72RB/1lSbdQMYGz3ASBEG0UUn13b19wDuuIsUO3LQn9ZUZl0bLCik+Gw4kf47u2T5lx6XQ/PniPT09MWBKf+dNnDc8MufyMT7bzXgGCLhpEXD2IYSPcUy3N6Kafw1/gM5U0Dks111msa2yTT+ABwDiv6tYyxfmipd+LoUYljf2OzYCewBgFEjjB01Mqe1QqkAwy0VbbgkiktGkKka2iTPfPurcmzNKl9AIygzbeC4a9S/hK7jZnj9M7yFsJa9zmGQTGjynAMp1a0WTchJNAVngSMmlU06ilYapKKs71q49DDfbAV24cYODVbwMtBBMJPHHX9xUVuVZoOojrbpLmYDYu3CiMZSGXd7p2z72//ImT27pPvK5ZQji4lekDZwPLV1syz78uPyZMNgA48hijreIJgxk2ngQi6OVMl64y/lBEDidIg2MJlmVUeNciHZA5r3WrWkOZBYPc3mbcAKBxeiXSsj1ddHAmYCiuy18SOUHm2lXnvvzm3xesAyXYc9yOYe23sXnj15alizzPvQv8me8aPl3MH9ci1DTmNfAJk2cLx67pxs/d8/yoT7bjGhDSlwdAaFaAPk63iTacwJxHcCfq6Lcyi9k2nKtRiBCBB74/bJrrYWfsgAMkWhFnQJ2rvQE5CCF8s6ZEfXyS6g2xQWAdCnWKGc2bQEdn14Y4lMef19suo7X5MDs6bJ5dOn0m650xcsxv6dNnDkTY6uXikrvv55GRWpkift1GPCHBXmMdEebd5kGs+pYPwAOH4CJnuvl64nawz3lIbuOBmqWS0qYYDRD8BIZAtZokBrbnTqFHptevhSPcx0TWiEDnfRAUZac9HKyPiLpsvxdHlEU5k8dXOLzHrXm2TzH38jZITT7dEYCxAT3c4IOBL+fGHRPJn2pgdkREu5AacEp4B4Gx2G+5T3VD9IZkT7tpFWJb1qANJ/RxPPUbHOFCcsjOFBkca2KKQ5n2TtD7ICYCR6PbmpTODUocemw9nR4S1DPP7y2s5aWdxWqSDdWumYvibU1/pBMrKtUibc+3JZ/PhjcmzNM3Ll3NlEeM+3+zMCjj09PXL55Ak5MHOqPH3PMBneWGrg0cDjDTKA4wGsME5vYlOpzGut1FO0OZ7sOJ6+AJJ1BqwThaSlz6yWCnmqYZA1ATY9vUFP4zkmGkWTkiZyTSGWdVHIrs5S9IaOOq4ygH2EyemAchpPdsNy36jOWln4sUdk36TxcunEcY/L6EO7nYEQZkbAkTfvvnpVLh47IrtHP6lV1iNbK2yjTdnjygCGEEc0obFUZjCZJlpMs9Waimc93ecAJBHIZzqivd6ay3Q/wmJk7XcmF7lBTyc2lih/EVlBZjh89D2U2N+ZA0nWla4URHKnNZcpT3y0ZQXi+g/T36j+EmWE7/r+h7TO5NjaVXIpzZnTAwHERI9nDBz1jbu75eLxo7JzxN9l7vvfIaM6amzjDTz2KwOJJtNYJDJzZ5SMQ++dLlEVnS5RatMlQqyzHq3E8RcrhD6tAEbTR//1kTUl3U9TdHpdTm/2+Is2CjC5g02YAeTYm9tk9nveImt/9F3ZP2OKnD/0vAbvEgG8bN3vD3CMfrvLp05q+fe8D79Hxt0aESp8wrzJ9tsHNgTOYVGhSTENk2lwWEa6999hxQOUkPBxYksj1dfHkxEVNic2sOwWg35DI2G/KXhhJKBOeOm06GI8XcnkPsAiNo3q8xXtNTK/1WunQ3SxGOTIfkP27MXwhsEyZmiTTHvTK2XF1z4neyc8JReOHJGea9eyhQsHfF9fgSOfRpPJY+vXyLIvf1rG3hoRqn1MqLInVMW2tuMaBisPD+O60YppcpoehGO1uqNGU5S0VsKpWTFNceruiLpBGmGmByMgZl1HbU5lLRMQVkivBTA6jjFRXKKL8L2LzW7b7/HfThB4G9VeLcyYXvCx98v+6ZOUFjggqsvBE3wHjhTMAB4JodLnccqDr5DhTRZ5NMVKTrF6i2m8vpD0iaMlhXGschOBdI6OKCSODi4qESmT3+TktxDWiQMBEX76L7LP6Bb7XkiArBC+KwexdZ11mkmZ0FQiTHfhIFYIMmLfMXh9H3/nEFn6hU/K8/NmyYUjh+XaxYuBRhlj8ajvwNG9OWHUc88f1CaUK7/5RZnwiptNYULMoUrHEFFRqMU0TSXa0mdxW5VGRszJZd/Js8Zeas1xsbzUGtxUwH06+2mvCW7d2DMvml+ugJGCDPbXdMlfXWI9AeOAcjoYMLOb3pcGGIOT/UKyO8ObSmXiA7fKym99WVPSJ7dskssvns5qT0aH2VK5Zg04ui/BhBmqfrb86bcy/7H3aq7euI+mRKkqc9/JNHAhMdDm+Px1fPEiOUROWGvWfEFbpVZ/jmW0YZ1FT1KV41w/nwppGkfPbCkXDl4WvfdfX9whC5oH1dE06wYwWkra/Fyy+j66q16mvvEBHaiy419/k+Pr1yhgdDgq365ZB47uB1M488LCebLsK59RkudTQ5ts2oxFblKOXBE5IdUGmZ+KRMAMhHNLt/nvEOOCyCHwIGt17ac2lSkosShk/jlI9gTASIsX17SbQqh4e2r3pbcu7kDFrPjFkSqZ3lymjdItIp9/+pAsgMvl8wigPXVzq+KhJZ/5qGz7vz/J6Z3bpPvqFQeb8vaaM+DICjAC58qZF2X32JGy4CPvk7G3RET7PhrvI2UAlUsBz9fPwkCTymYyzUrja+UcFGzsqtcq3KnRfpBEt8xpBuc0WXtSoo7DSKU8e2TAMD1gGG/diC4CGFnX1e21OtCAQjIbBRic3Oerf0r0vSgYHt1ZJ0/fM1SWfO5jsn/6FLl49EjegsR4XyynwNGBx6vnz8vZ/ftk76RxQuseRuYkWmS73xSyPxlwztKlsimmIWW0dYg5zHiOz8/7nBOFK8dkEdZenahF0gOxZxRfEGEkCs+UFwCOUTn8BY1QNgDkU5vLNbpohyXzT/35p76PDW8okSmvu0fW/PDf5eiqFXLh2JG8KnqJBxLj3Zdz4Oi+RM+1q3LxxDHlPxKinR/t/dh3oe1vU8xkZYBoCzN1mXoxo7ksOpmmTixF55/zTAQ8oQrgVAGQpEaJQo5psAhksrKb7vM4OMUWvdBWx2gb/sm74y8CxjkYUY0+rqHEmuXb4TDpwyEp6TFDGmTeB/9NNv/x13JowVx5cfcuIYAmORgP6DCXn9fAgKP7EVRfXzj8ghycN0s2/PqnsuBjj2gFNtVF6RpTe124wSbOlAgkPeooCljY5nEhicJYBMY/pxoPRLK+pPGeaffGGs5o8caoEZkxvfRPL1lPorvMNbaiF/9lmmgtIJzqaGZ1AxihxdjsaP9kuNjtwQiq6h+4TRZ+/IOy8dc/k4NzZsi5A/u9edIOABXoNXDgGLtuDOl+YelCWf+zH8rs97xVJtwzTGcyFruA2e/LrjEiCjk5OpkGQINDsFYk/jvbvkASEEnhEoUDNofXHxmnUhfASCNpAOOzHaSks7+Xffe2GP920UVaFS1nFnBLhUxoLJXhduixQ1+SEdYRTaVChfTk19wl8x99WJ795U/k8NJFcq2Ao4uxGM3dzivg6L4UDcRPbFgna3/yfZn+1tdoCx94kIzeMZDljwMK4zoSiQRE0tSa5tZEIC2tlxvQsXmIV0jD2pPqM25Y8nqM3LJeTnZXRKr14FOM4C2I3wRgxA4w6pQIIzQL+KJhtJH2m5PXy9i1IkM6uqNGxt91k8x95J2y48n/0zqO7qtXHawpqmteAkc3fYYK7NPbt8ruMcNl4Sc+KKOHNMiTBh7NoCV5+otVbHcbJ+xVng7WaAK8JSIMpKaCcFph+swtQ+oV8NBLkLnkVkgzsJMiNTq+oUSrd13TbpNV/w478J9pp0M6GnmE4oJ9wE44m2FXW4uBZECbdn/zi3Jg5lStkKZ/dbGCRhBwXgLHWGh+7fIlnc94YuN62Tf5aVn9/Sdk2ptfJaMiVabYZtwykgEchE6m0WIaL/VHatUqsv1zzPGAMcCHaK/2v2vz0tjsw0DGOSyPA1qYNkJfwEVtlbpOFB5ZStofuQQsEl1cor0Xy5ULTTQXexAWGbPfmRkYJvv51MtbZc773i4bf/Nz5S+e3rFN6FdN4KvY/+U9cLy+AT09cu3CBTm5eYPsGT9a1v7ouzLvQ+/WAeAjmstM4Q1EZiQDrtiAauzrxTRdVpEdD/j5eZ9r5bOwrUopBER9wpjGBiyOpiNAU6lOHoG/CLDe2FVnkXAfGpe7oi1X9U/vV4rnwihrBhrTBI1Eo1vKZfKr75TFn35UNv32FxphpLXgtUuXrkOVMNwoHOAYsxs0Er947IhWYq/5wbdk7gfeKZNeebuWvJtSpKkUBjwVeKoDj06mYbyeN5mmzjhlPjjv/gAnaWwtpGmrkuk49aZSr4q1iKNAyBqpUTifk5pKZXZrhSxrr5YNXVb935+spPJY3zZRRHEtum0+IhWcMJyK+pe3yNQ33C8LPvqIAsYjK5fJlTNnYlBJuG4WJHC8YYt6epQHufV//0f7JDHCZ1RHjVDdlIpw2HPNmPSVAaZB4GSsmMafFGGyDh8QyVjDea1UtXq8s2KJDAEWSYl6gJF0dLksoTraWkX5FlkluggdgmitNqZvqdBel6x9Xx23v21N4skAlfRuwgstdRY//pjseXqMXDp5QmghGPZ/hQ8cRXS245WzZ7WK6cCsaToofMK9w2REU4kZCjOWGcmAc/SMcZvQVKJNgFe311gxTZYjkK7SFUBF1HdOi1dMA4CMZ+gL4T5kSQ8iLeWyNFKlEVZS9YAcfm+ywNqel3it4CcTsQWMT7FRmAWrK0HrM6CRCCOtAQ8vWywXjx+Tqxcu6NjksINGfn9RAEe3kT1Xr8rl06fk1PatcnD2dNnwy5/I7IffphHIJwvY4QStRPb53ql8RDQCObGx1Gu8HKmS9Z1WkZ1NIOMAJMUMRCFpl0Il/GSXys7jg9HwOq/4iu86p6VcizG0j2hnrTZJN7CYGACmKlM0nXfTXVjv/7+9M/Grqsz/+N/wQ1FcL6sguKQ1qWWZmW2W1qRTTWXLZGXLtFjTYjXTNO01ZTVlu5XsIMgiKrJIgAKKLAIuoCAKKvt+4QKf3+v74G3UUTxwL3c7H14vXgqcc8953s9znudzvs93MVd3oZWRFkWt65dUeIm5aiYynngQUs3uZHYG2iqPwNTWpouAF7OO0vKvSwnHsxsszqpS1qcqKR6Fn7ynfBPiFlzOhOIOvNBqfcDtfZwsRrLVKIEcso094As5QW03DnXB4/FDEw/mfHs5ARNUAmwRkeK3JkElYs2z55a2eftZ7kXuKcXXQ92j3Kv4b8q9s7+H1t+D8RKewvX8lwmKRYpFrWuEKgcYZMDWOxZj98vPoeyHr1H7W5pKqcMt6bMV1bn/d1nhaG6mBNKIE2ttZjqKPn0fOx97AFtuWYCo2VPAsoacYLROMIMdJ9vYYuVI8/NA7hmRwMo01hMIlxIP+SIeAiaoXIcSFS99Ib6RYnUSMSnVVqwhKEWQhEwe8E+U9C2SMmeT12iVD1QqE233HavyU4qQYW7Qkel/sdKK76LkAhXO5vyLzuzCMNjcwr+NzBoV6jcO0VcGYuuyxch6fjUOh/6ClvJD6O3qMksH/jsIAZcXjue3vaO2BlWJsch+YTVi5s9CxHQvFWLPreyReUD1NPGJsIgwuEFSfewKGLBAilWEW5IjIyIuJihFtIuwyPIfEJNSz9m8fRlhECE5IP7EQqjlW46XbxGhYmWWyiJSjk5SCEkVFxGuUhmH/Txy/SxspV8LxX/RfzwSvN1V3+lpfmFbLVujJPeipNOJmOaJxJvmI/f1l3AiNXlALOog9+L5WsiSn3UnHMX8LE6u4uzaWLofZd99pfwgwwMn0ZGY29gWjwFllTojNKTObYrfOCViKCpGTlRcSEAKbwk6EeEugkO+xQ9Ogm1kezNv6iTlEyelJyVQRfImnv0t4kTEv+RSFOuh+FgWnfkM+Sz5XPlmYMvI96tw3iPVXSQ6+vfqLpaJCIow/fETwbj9T7eh7Puv0bi/SCXr7jV2ARSNQ9aQuhOOZkKqrGG3ER0njqNuby7KI4Kx+5XnkHDDPIQFTLBYQHBi0t/EdH6f/7cyjbuyQoow2Td1EsqCRn6xvZCY4u88lVVQRKVZ+A0IyskoDjzv+4zYVOJw2sB55Ge7cSt9ZK7usk3l9RytanXTf5Hz6vnz7GA/B3u5q+jo3DdewpGoUNTn71FrvhKMZjHAf4dMQLfC8WxS4gcp0dj1BXtRHh6M/HfeRPoj90LqTzKlDyeqwSYmrX87O5hGKtNIdK2U3aMl0nZihMLPsVnLsyDPhDwb8owowejljjBP503BpHV+4HHWW2ekklz0H6Yi+e6lqkSxrOkNRfvQ09J89rLP/1tAgMLxAvA6T9WiJn0HCj95F6krlyPxxqsRMcObwTTcyrbYEj3gBzkKCd5jVCCFOeJWLF8UNo4tbNg/I9M/st0vLgSSrHun33gkeo9RvsK0LlpPTLm6MBX/xfDAyZBk3VI/Ou8fr6AybhMkpqGvp/sCqzx/ZQkBCsdB6MmA66g5jorwjUhfdT9i589Sg1PVxmZeSItFlKtPZlraJ9G5krpll/94FS0qW6O0Qo6MQKHwcxyuMsZFMIqLQH7ARKT5jUOM52iE8OWU8+oQxoAk6pZKcdFXBKhYhZKvPlP+i30m0yArO/9kKQEKx0EIih+kCqbp6FC1sSUhaOHH7yJp2Q1Q4nEIA1yLiOAx+nvDPjuYRiJ2JS+hRARLlC6FjuMIHfaFdftif9BkFZEueVAjPN2ski6J86e+5k/xX4y7fg5y1r6IE2nJyrrY09aqLIyydvNr5AhQOGpl298PGZStlUdwancWDv36A7KeewJx1/0BIT6si81J2/JJW6wtkvJFchDKgpphDqZhOTqKaBcYA2JNlwj1dL9xKqWR5MCUNEecOyyfO/TCUCyMUbOmIO3he1Dy9TqVTqf58EF0tzSzHKBWLWOF4ygchwOxrw9d9adxKicbhzb+hLw3X0byPUvVgJaBrZeHmO0cuQlfgmlkYZWE1ulTxqvUMeIHxm1s61q+aEkceZ4S8CLlAKXCUpLPWJWYXTIOcP4YufnD1dhKvuUtSxYi+/nVKFn/hbIwtlcfQ1+3cTgrOM+xkACFo4UA+0w9aD9+DJXxm5TJPOW+PyorpOSMcrWHl+2xz0QfZhgFqUwifmCyAEtKHwmmoYgcedFDYTk8xmJdlBed3KkTlYVRgsFoXbTP/OGs87Yk65bo6KTbFyH7hSdxYMO3qC/ch76eHtaOtlC3WHo6haOlBM86X9L6NB8sQ9kP65G6cgUiZ/kpx13xxWBlGk6alk7g4g8ZaRiltrF3szINt68dbPv694CXoMkqcbr460pZxhADn31Ln329nC/R0aFTxiFypo+q7pLz2guoSU9RybrPWmr5XzsToHC0cgeIBbKnrQ1t1VXKnJ679kXELbiCwTQMJLKKBdocTCNb2Zu93VV95j2SVJzBNBSSdhSSIhplS1qS3Cf4jGHAC+e7Ic93KqXONE+kP/YADof9CuW72NyEXqOR/otW1imWfhyFo6UEL3K+pAMQh10Z/DU7U1H6zZf4bfVDiJk7HcFeo4f8UOnljZPt1G6dCT1TP3mzl7vyhfzNf7wqpydpTrjFOrwtVnIbGjdxmZAXFwl4ifdxV/6L8lLD51j7c6x3VpJ/MfGWa5H7xt9QlRCLhqICdJ46yfyLF9EWjvBrCkcb9EK/yYSOmhOozUzHgZ++UcXVJZhm05wgiki+mVu8yIoVUkSkpPORaGxWphma+KFYHBovsS6K/6K4S6T6eWCLVOrwHI1gbklb/CzrRURKOjvJi5z2yL3Y9/5bOBIdhobiApg6O1k72gaaxNJLUDhaSnCI54slsr26ClUJMdjz1qvYcc9SFUwTPnUSRSRFpFUWHkkqLtuFYgWS8m1S81eCFSiQhiaQyOtcXjKGZCxJgFaanwfivN1B6yIti1rFruy0ie9iwuKrkPbQ3Sj46B3lv9h1+tQQV1Eebm8CFI527AFTZweayvaj9JsvkPyn29U2tpjtQ3zGWkVAaH2geZxrTv5iiZTghGTfscjxn4jiQIMSkIzGPlcQUSBenIeMFRGMKqWO/wRs95WE3aMgY4vzBhlccgwY3DBQ3WUSYubNwM5VD+Bw6C/oPFmrimvYcfnlpS0gQOFoATyLT+3vhwTTmNrbIFg00+0AACAASURBVG9dtb+lY9+HbyNp6SJs9BzFiZmLk8VjwLyNLYu9pPTJmDJObTOWBl1cLFBIkY2MAfGVFQujWK4lECtcRUi7UTRyXtI8L4X5j1cWRtmOlsIZ4rto6uigaLRYPNj3Aygc7cv/nKt3t7ag9WgFarN2qpxVmc+sQuw1sxHi66H5Qb3kGyAnPV2yNAtIsUDGebkj2dcD2f4TlIikUKRQPHsMiIUx70z9aBkrMmbEh5ZzCy2MmsaAwU35L/725MM48MPXOLUrE61HymFqb2d09DkrvvP+QOHogH0nVsiuulM4uSsTB3/9AXl/fwU7/nwnNl0ZSD9ICl+rLODhhlGQaGzZepQUKnumTmRScTumszlbuNnj/6WSTifI7L84UBJQBCO3pCkWtYjFYE/xX/TF1jtuRM6rz6sgUDGAdNbWOOAKy1uylACFo6UER/j8/t5elROyakvcQDDNvcsQt/BKSAkmyXul5aHmMZz8LzYGzPWxk3zGDAjIgElntrIZTGMPAWfra4p1USKkzSUBxZ0h3JPWxYs9L/z9WXOpwQ2yFR171UxsX34rdr/8LA6H/YLWo0dU7sURXhr58XYkQOFoR/hDvbSUWmo5fABlP65H6kN3q3Q+vwfTcCuJItpCa6zUD471clelDfdOnYTiIIPyc2MwjWttZUt/iv+iOQdjit84lU6HougsUWThs+TKLEO83RHqPx6Rl/lh69IbsO+Df+JUTvZAKp2hLmo83ikJUDg6Ubf1SzBNjwTTtKOjtkY5Gxd9+gESb74WYQETKJw42Vs8Bsy+kJGeo5DoMwaZ/uPpB+liW9jyQiA5GKV/pZ/Ff5Fb0hSNmsSu5IudNwOZzzyKI1FhaDtWqQpd9HYbmX/RibSEpbdK4WgpQTudL3WxRUC2VR1VAvLghu9UIfi4RXPpB0kBaRUBKTn6oiUnpPcYiFVKUvqIlYoWSOezQEqf7QucjIwp41XC7k1eo1UORgpGCsZLCUbJvxg+zYDku5ei8JP3cGxrPBpLi9FVd5rR0XZa/+19WQpHe/eAFa4vlsjO06dwOm83Dof8jD1vvYbUlSsQM286Qn2ZE/JSEyP/PvjiGTLZTVmm4r3dseNMNPa+wEkoZX1sh0+qLj6M+VMnKf/Vbb5jVXUhRkgPPt45HwzwCZs6EQk3zEPG6odQtO5DHEuKQ0tFOXqlugu/dE2AwtHFur/f1KNyZR1PTkL+O28ideVyxC+ai4gZ3gymoSXSYkukiMhYr9FI8fPAroAJSpTQCul4FkjpExGMknJJIudlS1oCoSiKyGCwMSDJusV3UdyfRDCWfPWZ2tHq7ejgVrSLaQVLmkPhaAk9Bz+3r9eE5sMHcejXH5G+6j4VTBMRZBioTMNgGi6iFgqJcIOb2sY254MU6xa3se0nIs1BL8qH0X8CJFJe+mgwocC/UUgGG9zUzlR4kEGVv818+lFUxccoAwT6+x18lePt2YMAhaM9qNvwmgOVadpVXsi6vbko/Pf7SFp2A0L9mFSci6bli6ZYIMUXUiqLpPmNg0RjUzzaRzwWBRmQ5T8B4lIglYIkSp4+jJaPcVeeJ0Q0hviMUel09n/1GRoK82FsbFAR0pIKjl8kcCECFI4XouKKv+vvV6WeJJjm5O5MHA7egF0vPYO4hX9QubhceXJk20Z+8RS/OdkOFQEpW6O7/CegKJAWSFvkZZQ8jJlTxisLY7TnaEZJW2hJ18N8ETplnMoHvOvFp1ERGYLTubvQfvwYeru6XHH1Y5usTIDC0cpAneHj5E3S2FCPuvw8lIf9ir3/egOpD/4JsVdfRj9ILjoWbW2KhUu2R+O8B8oaiqARK6RsY9tCROnlGpKHUQKUhK8IdfE7ZdDLyL8gObOolOhoqT6Wct8fVTEJCaQ8vScHPa0tjI52hoXbge6RwtGBOsNet9J5qhYnUrerRK4p99+litJHzvRBsJe7RSLCmSdZ3rvli7CISLGAbfMZq7ZQf08q7mJ5EW0pViXoRQSjBCbt8B2r+Iq7AMer5ePVJRka3CC+i5uvuwI7/nyHEoxShay9+hjrRttrwXWB61I4ukAnWqsJfT3daD9RjYrwjdi56gHEXjMbA8E0Y7CRTvZcnC2wxoZOHgikkYTiInwYSKPdD1J8RoVXcdBk7PIf2JIWH0aXFDoWjDHyOCOexW/R2x2STif6iqkQY0DJt1+i5chh9JtM1lou+Dk6JkDhqOPOP7/pqjKNyaR8Ibvq65Tfi+TvkmCaEOaD5EJt4aIu6WAkkCbGazR2+HkwkEaD5VVEY0HgZOycMg6bvdwRYWDQCwXi4NZVyd0r9aNz1q5BTdoOtB+vRk9bG0Xj+Qsefx42AQrHYaNz/RNVZZpjlaoOqfhC5rz2gsrvJY7VnLwHn7zJ5+J8JNpXLGYihGQbW9L5FAVOxoEg7VY4W24P2+NasiWdGzARKb7jVJR01JkoaY6ri48rvbMR66L4qu//8t+oyUhF86EDqhwgo6Ndf622dQspHG1N3AmvJ+UNu5ubUF+wV0XgSWLxtIfuRszc6bREWmiF0/tip1L5eEkgzVgV6GEOpNFjSh9z0m5JqSMWWSn1KJHqTKlDsXiheSLYc5TyX5Rk3VnPPYGSr9cpX3XJnCFzNr9IYKQIUDiOFFkX/Vx5e5XyhsdTtyP/3b8j7eF7kHDTfETN8sNG+l3REjtMIS0BHhJIIxHCWf7jsWfqJEiaGVePxi6d5qmsrSKYpd3SftnKDzZQLF1ILOn+d2fyLkZfGYitSxcj69nHUfbD12gsKYLsEPGLBGxBgMLRFpRd+Brt1VU4silcTWCb5k5HxHQvVYVA3oZ1P8kPU0TpnZv4QsZ6DSQUz5s6CWKJc6VgGnOwS1HQZOXnmS7+i96jlf+n3vue7b/wC4Ok0hEXocjLfFXWi9zXX8KJtGS1E+TCywub5qAEKBwdtGOc5bb6TCZV9L6r7pR66y1Zvw7b77pFRWNzEbjwIkAul+Yi27PmpOLxPmNUcIjUXnZ2C2TpNAPyAiYi1c9D5boM93Rjwm6+YF3yJTtqtr/a3TkUvAGtlRXobmpEr9HILWlnWShd7D4pHF2sQ+3WnP5+9Bq7VDofSSpbERGCvDdfRtLSRQj1GwcpbUXBdGnBREbnMjILSAkO2ew1Gkk+YyEWOgkckfQ0ju4LWRrkiX2Bk5EdMAGpfuOQ6DNGJesW30Um7D63rzn2z+JhcEOY1Btfugh73l6Lo5uj0FC0T9WP7u9lSh27rXO8sCJA4ciBYHUCktZHgmka9xfiSEwEzME0khcyxJc1srlAnrVADtHaJGIr2mu0ChwRf0ARkRKVLT6RsvUrQs0eUdByTRGxxWcSdIuwlZyVIhZF7EopxoHI6OG3nePG9dmF+nlg87WzkfbIvdj3wds4GhuJxtL96Glrtfo8zQ8kgeESoHAcLjmep41AXx+66k6rYJqCj99RE6JEAUZf7o8QnzG0Qg5ROFE8nCsezHkht54lIkW0SbCJ5D+UND/iIylBKNayTkq5P/lMsXhKAI9soedNnYjdAROQMWU8kn09kOAz5oxQpKWdY/bcMXs+jxCJnp/pg4Qb5qn5seDjd3EibQeMTY3cita2yvAoGxOgcLQxcD1fTiKyO2prUJUQi+w1TyL++jmImOYJectmZZrBF5fzFxv+fBFehv9TOSKlVvZ2Xw9k+I1Tgk6EpIg8sQiK6DN/i8/kYN/m4waEokEJURGKu/0nIMN/PFL8PLDFe4yygnLr+SJ9wpej/3lBFtedEJ+xCA+cjM3XXq4qdUntaAk2FL9xfpGAIxOgcHTk3nHBexPxaOrsVG/TdfvyULL+c+y4d5mKGKR45MJrDUEsfpESmS1CTr7FKhlucFM5ETd5jUa8l7vyNRQrpeSPTPX1QNqUced8yxaz5FLc6jMWW3zGqCTcsV6jEWUYpT5LPtP8+ZJKiLkWOXa1jl0lGr3HIGnpDSj85F1VYKG7sQE97e0UjS645rlikygcXbFXnaRNpo6O34NpJKVP7toXVWWa8MBJ//OGrnVS5nFcwC82Bs4WlGYxKRVsJFDlQt/yNxGcZpEoYpQCkePrYuPrUr+XnZW4BVcge81TOBz6C05m/4bWyiPMv+gk6xVv878EKBz/y4L/sxeBvj6Y2ttQX7gPR6LDUPDh22rrZvOCK9R2DiOyuVhfalHm3zlGHHEMSP7FqFlTsH35rerF+NCvP+J03m6148ItaXstOLyupQQoHC0lyPOtTsBYX4eT2RkoWvch0h+9D1tuvQ5RKphmLC2R9BfjGOAYcOwxIK4R4rt4zWxsX7FECUZ5IW6pOIx++i9afb3gB9qeAIWj7ZnzihoJSL1VY0MDjiXFY9dLzyBu4ZW/B9OwMg0tTI5oYeI96XNcyq6IWBfDAiZAknUn371UvfjW5+9BX0+3xhmPh5GAcxCgcHSOftLtXYp47O3qgrGhXiXAPfDDeqTc/0dEzPRxbKsDrULsH44B3YwBiZCOmTMN2S8+jeqtCWirOqpyL4polLy2/CIBVyJA4ehKvenKbZHKNF2d6DhxHPUFe1Ulhb3vvKm2guQtnxHZ+rT00MLHfrfnGIi6PAApD9yF4s8+xInUZDSVlahygNySduXFiG2jcOQYcEoCUkmh6UApKhNiIYnFdz62EnHX/QFhARN1Y+Ww54LJa1Ow6XIMKP/FSUhYfBUyn/4Lir/8N6qTk9B6pIL+i065kvCmh0OAwnE41HiOwxCQvJA9rS0qmKb484+RsfohbLltITbNCUKItztrZHO7lC8SHAMWjQFzsu7oKwORdPsi/Pb0X1T+WfFfZClAh1kKeCM2JEDhaEPYvNTIE+iqO4UTacnIe/NlZYGUUl6SP43BNLSQ6dJCRtE4fNHoOUrNHTKHxC2ai5zXX8TxlG0wNjaM/ETGK5CAAxOgcHTgzuGtDZ2AWCB7jV1qcm8+WIYDP65H6srliJjhPfwFhIsv2XEM6G4MSP7F1JUrcPCXH1QqHRGMvUYj60cPfVrmGS5GgMLRxTqUzRkgIJGMEtHYUXNCBdNUxseg4KN/qUS8EdO9dLcI0tpGiyvHwKXHQKivh6pelfv6S6iIClVzR+fJWvSZehgdzcWFBM4QoHDkUNAFASlv2FJ+CFWJm1H47/eUL2T84qtYI5uWNL5E6HwMhHiPwaY505By353Y+683UBEZgoaiAnQ3N+libmQjSWCoBCgch0qMxzs9AWNTI07l7lIO7hJMs3XZDSqYJnTKOIoInYsIWuUubZVzBUaSrFuqu0gmBhGMe/65FlVbNqPz1EmIuwu/SIAELk6AwvHibPgXFycgycV72ltRm5GmgmmktGHkDG9lhWQwjT4EhCuIILZB+1gN9nZH+NSJ2DR3GpLvWYbSb75A86ED6O02uvhsx+aRgPUIUDhajyU/yQkJqMo0xi70tDSjqXQ/ysN+wc7HV0L8IMUqwUVZ+6JMVmTl6GNg84LLkfPq86jelqisi5JOh/6LTjhx85btSoDC0a74eXFHIiDR2F2nT6KhuADV2xJQ+Ml72PHnOxA1y48CklvYHAPOOAY8R6na0RIdXbr+CxxP3a4sjN1NjQx2caTJl/fiVAQoHJ2qu3iztiAgEdmyddVSUa4sE8XrPlJJfxNvvhbhQZNZ3tAZBQTvWT/C1+AGKUMqz2vms4+j5Ot1Kv+iZFjglrQtZlBew9UJUDi6eg+zfRYREBEplWnq8veg7PuvkPnXx7D1jsWImTdDJQdmjWxuzzr69qxe7k8S/UdfEYCk269XL3plP6xHfWE+TJ0dFs0BPJkESOBcAhSO5/LgTyQwKAHxhTyZnYF97/0DiTdfo7axQ/3Hq/KGelmg2U6KZYcZAwY39QInPskJN83H7pefxfEdW2HqaAP6+wd9lvlHEiCB4RGgcBweN56lUwISTNPXbVQ53lqPVqAiMhSZzzyqLJC0PlJQOYyg0sPWvMEN4QETseO+O3Fgw7do3F+onkvxVaZo1OkEzWbbhACFo00w8yKuSKC/14SuutNoLC0eCKb59AOk3H8XwoMMjMjWg3BhG+3iNykW/sRbFiB37Ys4uikCdXvz0Flbg96uLlecZtgmEnA4AhSODtclvCFnJGDq7IRYIKu3b0Hxl58g69nHIXkhI6Z52mVxpeWL1k9XGgMhPmOU/+KOe5f9Xt1F+S+2cUvaGedL3rNzE6BwdO7+4907GgGJyDYaUV+QjwM/fYPsF57EtjtvQuxVMwcSixvcKCRpqeMY0DAGgg1uiAgyQHIvquou/3gFlQkxqv48q7s42sTH+9ETAQpHPfU222pzApJguC4/F/nv/QNbbrsekTN9EeY/Hhs9R1E8aBAPrmQ1Y1s0WIENbpDa0eGBkxA921/lUd3/1WfKf5F+izafvnhBErggAQrHC2LhL0nAOgRUME1Pt0rp01pRjiPRYSpVSNRsP4pHCke+PJw3BmRLWupH5/39FZzM2on2E9Uwtbeh39RjnQeSn0ICJGAxAQpHixHyA0hAGwEpbdZVfxpNpcUqIXHJV58h/ZF7senKQPx63gJK65QG6xSZuYTwlLrw4gu84947ULTuQ5xI24Hm8kMQaz23pLXNLTyKBGxJgMLRlrR5LRI4Q6DfZEL78WM4kZqMkvWfI+v51Uhaukj5dLFGNkWjHl4cwgImIn7RXGQ8+TCKv/gYx7YmqACzvp5uzhMkQAIOTIDC0YE7h7emDwI9bW1oLCnG4eANKphm+4oliJ0/C2FTJ7qERUkPIoht1Cb25aUoYoY3EhZfhZ2PrcT+/3yK03m7B6q7MGG3PiY8ttLpCVA4On0XsgGuQkDKG/b19KAuPw9Fn36A7ctvReRlvgifOhHB3u6QKFMKFG0ChZwci9NAwMtkxMybjp2P3Y/ysF/QWnnEVR5dtoMEdEWAwlFX3c3GOjqBAfHYrfy7JC/ksaR4VUYtdv5lCPFxp3CkX6PTjYFgL3ck3Hi1yr94ek8OuupOwdTRgT6TydEfR94fCZDABQhQOF4ACn9FAo5AQKyP3U2NaDpYhhNpyWpbL/0vf0bkZYzIpkXRsSyK5/eHWBijZvsjfdUDKPv+K9RkpKGlolwJRqbVcYTZhfdAAsMnQOE4fHY8kwRsRqC3pxtt1VUq4lSCabLXPIWk2yUvpA+3sGmFdBgrpERHb1lynfLVLf32P6jZmYrOk7XKBcNmDwsvRAIkMKIEKBxHFC8/nASsT0CiTqU+9uGNP2H3S88MVKa5+rKByjRMLO4wIup8K5yr/izWRbGCS4lNKbV5YMO3aNhfiL5ebkVb/+nnJ5KA/QlQONq/D3gHJDBsAj2tLRC/sYKP3sGWJQsRdbk/wgImgCl9HHsr19lFpARqhfp6IDzIoBJ2Zz6zCtVbE2Csrxv2WOaJJEACzkGAwtE5+ol3SQIXJCCVaXq7jehuaUZHzXFUxm9SOSE3zZ1Oyxu3sEdkDIhoFCvjtrtugZQDbCjMV764vV1dQF/fBccpf0kCJOA6BCgcXacv2RKdExARaWyoR1NZCY4nJ6lgmtSVKxA1awqkOoezW7l4//a1ogZ7j0HMvBnIWP0wDgVvwKndWSqJvRKMOn/22HwS0BMBCkc99TbbqhsCvcYutagfT9mmBGTWc08g6bbrER44CRuZD5IiWqM11lwOcOuyxSotVNmP63EyKwPGxgZI9SN+kQAJ6I8AhaP++pwt1hmBnvZ2NBQX4ODP3yHzr6tUaUOpjx3q50EBpVFA6c3aGTZlHDbNCVKBVxLBfyjkZ5UWSlJE8YsESEDfBCgc9d3/bL2OCMhWdk97q8oJmbv2RSTesgCRM7wZjU3xqF4gzL6L4YGTkXjTNch942+ozcqAqatTR08Jm0oCJHApAhSOlyLEv5OACxFQwTTGLnQ3NylfyMNhv2Dn4ysRMd2Lkdg6F5AS8JJ487Uo+vR9Fanf09KMvm4jmLDbhSYANoUErECAwtEKEPkRJOCMBEQUdJ0+qbaxj22NR8GHb2Pb8lshSZz1tjWr2/Ya3BB9ZSB2rrofB376BiezM9BWdRSm9nZnHNK8ZxIgARsQoHC0AWReggQcmYDUx5aUPs2HD6IqMRZFn36AzKf/goTFVyFs6kSKSFezREo6HV8PxC+aq3xeS75eh5r0FHSdPoX+3l5HHqq8NxIgAQcgQOHoAJ3AWyABRyEgIlKSitfn74GUNsxY/ZDavoy+3B8hXu4Ukc4sIj1HqRKVCTfOx85VD6ho+/qCfPS0tTrK8ON9kAAJOAEBCkcn6CTeIgnYi0DHyVpUJcRi15qnsHn+LOULGeI7lnkhnUhASkqdUP/xkEh62ZKuiAyBsbER4u/KLxIgARIYKgEKx6ES4/EkoCMCsnVp6uxEV/1pNJXtR+k3n2P7iiX0g3QS4SilJyNmeCH7+SdQnZykqguZOjooGnX0DLOpJGBtAhSO1ibKzyMBVyTQ368ibNtPVKNuby7Kw35VCaHjb5inys/pNrjEQQVkiI+78mHMefV5VMbHoLGkWEXS04fRFR9OtokEbEuAwtG2vHk1EnB6AuIHKaUN6/LzcDj0Z+S+/hK2L78VUbP9WZXGjkJStqTD/Mcj6baFyHnlORza+BPq8vdALIxMqeP0jx0bQAIOQ4DC0WG6gjdCAs5HoM9kQtuxSlREhyFn7Rq1jb35mtlMKm5LAWlwQ/g0TxUFn/HEg6pCUMvhg+g1Gp1vQPGOSYAEHJ4AhaPDdxFvkAScg4BYthqKC1G07iNsWbJQWSDFAiZ+dtzK/j+rM1BBL1PGKc6pK1coC6Oxvp7+i87xuPAuScBpCVA4Om3X8cZJwMEIiB9kT7dK59N+rApHosPw25MPI/qKAKuLJr0LURGNUhpQqv5UJm5Ge3UVpCY5I6Ud7Jng7ZCACxKgcHTBTmWTSMDeBCQIo6vuNBr2F+Lo5mjsees1lQ+SCcUtszyqoJfr56jApKOxUWgo2gdjYwP6TSZ7dzmvTwIkoBMCFI466Wg2kwTsQWAgoXgrGkuKlAUy/503kfLAXYiZN52BNBr9IGWrPzzIgG133oSc117AYQl62Zs3UBawv98e3cprkgAJ6JgAhaOOO59NJwFbE+isrUH1tkTs/dcbSL77dmy+9nKEBUygiLyAiAz19VBJu7fdcSOyX3gS5WEb0XqkXKVFsnW/8XokQAIkYCZA4WgmwX9JgARsRqC3qxPNh8pQ/PlH2PbHmxE1y0+lkhHfPV37L0qVFz8PVaFHcmTmvLYGNWk70NvVxZQ6NhudvBAJkMBgBCgcB6PDv5EACYwMAQmkMfWoOsltlUfUNnbG6oeVYNKreAw2uCHyMl+kPrgCB3/+fiBpd1Mjeo0UjSMzCPmpJEACwyFA4TgcajyHBEjAagQksEMF0hQXoCopDvs++CeS/3SbElEub300uEEChiSBev67f0dl3CbUF+ajo7ZmQDBajTI/iARIgASsQ4DC0Toc+SkkQAKWEujvV2Kp+dABHEuKQ9G6D5H5zKNIvGWBSj3jKvkgpR1Rs6dg67LFyHruCRR99gGqEmLRfLBsIODFUo48nwRIgARGkACF4wjC5UeTAAkMn0B3SzPq9+1F2Y/rkb3mKSTfsxRxC69UlkinEpEGN+W3KPksE268Gin33anKNEq5xobiAoi/J0sCDn+c8EwSIAHbEqBwtC1vXo0ESGAYBPp6TSqlz4EN3yJj9UOIvfoyJSDDpk5CiO9YbHSkoBqDG4K93FWwT8Q0T5UAfcutC7DrpWdQHhmC1qMV6O1mOcBhDAOeQgIk4AAEKBwdoBN4CyRAApcmIME0pvZ2GOvr0FJRjsqEWEheyO3LlyBypq/DRGNLVHTs/Fn47alHUPrtlziZlYGOE8fR3dwEKcsoPp2S35JfJEACJOCMBCgcnbHXeM8koGMCIrpEfBkb6pWAlGTY1du34OCG71R+yIwnHkTSbdcj6nJ/jGiE9pmyf3EL5yD1geXIfW0NStd/jsrN0TiZnaEspO3Hq9HT1sZSgDoer2w6CbgaAQpHV+tRtocEdEhAamR31dWhqawEtZnpOBobibLvv0LBx+8g742/IevZx5H+yL3YvmIJtixZCMmRGHvNbGyaE4TIWX4qDVDEdK/f/42c6aO2mMVyKMfKOdvuugWpK1eogJ3ctWuQ//5bKPl6HcrDfsXxHVtRX5CvLIu9nZ067AE2mQRIQC8EKBz10tNsJwnojYBEaXcb0VFzAg3FhahJT8HRmAgc/Pk7JfgKP3lPWShzXn8Ru/7213O+d7/6vKqvXfjJu+pYOaciKgzVyUmoL9iL9uqqAUsit5z1NqrYXhLQPQEKR90PAQIgARIgARIgARIgAW0EKBy1ceJRJEACJEACJEACJKB7AhSOuh8CBEACJEACJEACJEAC2ghQOGrjxKNIgARIgARIgARIQPcEKBx1PwQIgARIgARIgARIgAS0EaBw1MaJR5EACZAACZAACZCA7glQOOp+CBAACZAACZAACZAACWgjQOGojROPIgESIAESIAESIAHdE6Bw1P0QIAASIAESIAESIAES0EaAwlEbJx5FAiRAAiRAAiRAAronQOGo+yFAACRAAiRAAiRAAiSgjQCFozZOPIoESIAESIAESIAEdE+AwlH3Q4AASIAESIAESIAESEAbAQpHbZx4FAmQAAmQAAmQAAnongCFo+6HAAGQAAmQAAmQAAmQgDYCFI7aOPEoEiABEiABEiABEtA9AQpH3Q8BAiABEiABEiABEiABbQQoHLVx4lEkQAIkQAIkQAIkoHsCFI66HwIEQAIkQAIkQAIkQALaCFA4auPEo0iABEiABEiABEhA9wQoHHU/BAiABEiABEiABEiABLQRoHDUxolHkQAJkAAJkAAJkIDuCVA46n4IEAAJkAAJkAAJkAAJaCNA4aiNE48iARIgARIgARIgAd0ToHDU/RAgABIgARIgARIgARLQRoDCURsnHkUCJEACJEACRjyiEgAAAehJREFUJEACuidA4aj7IUAAJEACJEACJEACJKCNAIWjNk48igRIgARIgARIgAR0T4DCUfdDgABIgARIgARIgARIQBsBCkdtnHgUCZAACZAACZAACeieAIWj7ocAAZAACZAACZAACZCANgIUjto48SgSIAESIAESIAES0D0BCkfdDwECIAESIAESIAESIAFtBCgctXHiUSRAAiRAAiRAAiSgewIUjrofAgRAAiRAAiRAAiRAAtoIUDhq48SjSIAESIAESIAESED3BCgcdT8ECIAESIAESIAESIAEtBGgcNTGiUeRAAmQAAmQAAmQgO4JUDjqfggQAAmQAAmQAAmQAAloI0DhqI0TjyIBEiABEiABEiAB3ROgcNT9ECAAEiABEiABEiABEtBGgMJRGyceRQIkQAIkQAIkQAK6J0DhqPshQAAkQAIkQAIkQAIkoI0AhaM2TjyKBEiABEiABEiABHRPgMJR90OAAEiABEiABEiABEhAGwEKR22ceBQJkAAJkAAJkAAJ6J4AhaPuhwABkAAJkAAJkAAJkIA2AhSO2jjxKBIgARIgARIgARLQPQEKR90PAQIgARIgARIgARIgAW0EKBy1ceJRJEACJEACJEACJKB7AhSOuh8CBEACJEACJEACJEAC2gj8P9/j1w3jIh4MAAAAAElFTkSuQmCC;" parent="1" vertex="1">
          <mxGeometry x="690" y="483.75" width="72.78" height="70" as="geometry" />
        </mxCell>
        <mxCell id="tSnX5RXje4xO9rxQiIv1-6" value="" style="outlineConnect=0;dashed=0;verticalLabelPosition=bottom;verticalAlign=top;align=center;html=1;shape=mxgraph.aws3.classic_load_balancer;fillColor=#F58534;gradientColor=none;" parent="1" vertex="1">
          <mxGeometry x="450" y="483.75" width="69" height="72" as="geometry" />
        </mxCell>
        <mxCell id="tSnX5RXje4xO9rxQiIv1-7" value="WAS-2" style="shape=image;verticalLabelPosition=bottom;labelBackgroundColor=#ffffff;verticalAlign=top;aspect=fixed;imageAspect=0;image=data:image/png,iVBORw0KGgoAAAANSUhEUgAAATwAAAFDCAYAAACncbISAAAgAElEQVR4Ae19B5cc1bX1988etoEH2MIG2yQbMGCDeYAQyjlLo5xzzkISipNzzjlnTc45amY0mvOtfUYtVfd0T6fqiqfW6tW5wr737rr3hH3+H8kmCAgCgoBNEPh/NrlOuUxBQBAQBEgITzqBICAI2AYBITzbNLVcqCAgCAjhSR8QBAQB2yAghGebppYLFQQEASE86QOCgCBgGwSE8GzT1HKhgoAgIIQnfUAQEARsg4AQnm2aWi5UEBAEhPCkDwgCgoBtEBDCs01Ty4UKAoKAEJ70AUFAELANAkJ4tmlquVBBQBAQwpM+IAgIArZBQAjPNk0tFyoICAJCeNIHBAFBwDYICOHZpqnlQgUBQUAIT/qAICAI2AYBITzbNLVcqCAgCAjhSR8QBAQB2yAghGebppYLFQQEASE86QOCgCBgGwSE8GzT1HKhgoAgIIQnfUAQEARsg4AQnm2aWrsLnaM5Gpzsoc7RJmofaXB6lHVnUG5bjNtHUUcS1fQVUNtwvdN/usaaaer5BL2Ye6HdRciRLImAEJ4lm1X9iwKJzcxOM5G1DtdSXX8xVfRkU25bNGW2PKHExjsUWXuJHlWdpoeVp+hmyV66UrSDLhduc3qcyF5OhzJ+cPs4mrWUzuSuoUuFW53+c7VoB90rP0oPK0/y/qPrrlJG82N+lHdnUnVvPjUNVdLAZDdNzIwKMarf/JbZoxCeZZpSnQt5MTdLz56P08BEF3WMNFLjQBlV9uQQZl/ZLZEUU3eN7pYfpitF2+ls3jran/4t7U75F21K+DutjH6Hfgr/n5A/Vsf8kXYlf8EPEOTFgs10q3QfRddeodSn9ymvLY7JuGGglFqHa6hnvJVGpvrp+YtpdUCSvZgWASE80zZd8Cc+N/eCZl5M0+TMGI1MDTDJYQkKgktouE13yg7RqZxVtDP5n7Qi6n9DTmRqkuW2xE/oePYvhNlhRM0FymqNpKeDFdQ30UFDz/pobHqInj2foNkXzwmzV9nsgYAQnj3a2e1VYibXMlTNS9I7ZQfpQMZ/aV3sn2l51Nv0S+SbtCzyD/RzxO9pacQbpiI7EOfS8Dfo54jf0bKI3/O1/BL5Fq2Iept2Jn9Olwo2U3j1eSruTKG+8Q6Z+bntHdb8UAjPmu264Kqev5ihoclequktoMTGX+lmyR46lr2M9qR+Q9uSPqP1cX/hWdzSiN+Zjtz8mRmCyNfELKFN8X9j8tuf9i1dLNhEUbWXqbQrnbrHmml69tkC/OQDayAghGeNdlxwFVimYanaNlJPBe0JFFlzia4X7+YlaljKVzyTWxbxB0uTm69EuCr6XdqR9E++AcDJ8qjqDGU0P6H6/mIanRqQJe+C3mXeD4TwzNt2C84cDgfYpuBFLevKoJSn99nBcCRzKROcrwRg99+tinmPwlK/ZvtffMNNKupMJjhA+ic6aXp2cgHu8oF5EBDCM09buT1TxKbBFjf0rJfj1/LaYjkkZHvSP9gGZ3fyCvb6YcPcEP8hncldS/H1N6m2r5CJb2x6mGAmEIeH225p2A+F8AzbNL6dGOLOSrvS6FbpXtqa+MlLJ8Pv2Ggf7GCX/78OsYHjBk4QOHWOZy+n5Kf3qHe8jUnPt5aSXxkBASE8I7SCn+cAo3ptXxGHW5zMWUmYza2LfZ+9kUJSr0kqFFhgxgeb3+aEj2hP6tfs/Mlvj6PByW4/W1F+rgcCQnh6oB7AMUFy8CAiLeu3iqN0MmcFe1fNFh8XChLSc5/wbh/M+J5uFIdRUuMd9oKPTg0G0MLyFy0QEMLTAuUgjjE+PUzNQ1WU0xpF9yuP06HMH2hllDYZDXoSidmOjTg/eHovFmyhhIZfOScY+cSyGQsBITxjtQefzezcLOeEIiWqoCORrhfvoi0JH0sIiQZpa2oQLVLfkDOc8vQ36hx9ylkscHDIpj8CQnj6t4HTGcDrhzQv5K5i0KyKfk+IziRE50qWCHJGUHd8wy3qHW8Xj65TT9fnjRCePri7PSpmdKlN9zkpHzO6ldHvsmfQdSDJ+9A6JtTCF+ltIL2N8R+yOszj6rP0dKDcbdsb9cO6/iKepRr1/Pw9LyE8fxFT+fdY6sDDh/g5ZELA84clkVqDTvZjDHKEjW9r4qd0Nm89K860DNeweIHK3Um13SG+c/hZHwtIIOvEKktyITzVuoh/O4JKB/TbKnqyKLLmIh3J/FGWryZduvpzU8GMb0viJyxnBR3BtuE6mp6d8q/zaPBrnFNRZxLfgO+WHeZgaw0OG/JDCOGFHGLnA8zNzdHEzBinfyF4FXF086El5lMk8Wegy28XzjQRKH6v/Ah7dDGbMkrmBmTDRp71c2odAq1P564mCK1aYRPC07AV0ZGgwQaZcxAdcjaFCBYSgd0w2Zb4KcXWX6f+iQ7WJ9Q7XQ0xn9AORDA72gKSWnH1NzQcKaE7lBBe6LB12jNqMtT3l9Dt0v20PekzVge2uhST3Ygr0OuF7uCGuA/pSNZPHFiO2Z6eG0QSoB6NjBJcE5bhUJGZeg7hBHOLpQrhadCz2kbqWEH4VO4q9tghJzPQwSH/s+aMEB5dmDb2pX3LdTsgUjDDtj1tCQa25bq+ItqX9h8n8YkjmT9R40A5IUbUzJsQXohaD1JNyJKA7QN2mt0pX9GyyDeF6GzgmAj2poSQJMyosloiWJJey1ocqGWCuEF4lX8Kf21X3pXyJaU2PeAld4iGjCa7FcILAcy4M0NJA6EmqMS1WoKHhej9JHoQDkQhYNuDPQ2qOKHeEIrisC+7kvaGuA/oZunel8vaUJ9J6PYvhKcqtnPsaUMhnIiai2wDMWM9CNfOLu/1XUajOlx5dxYvceH4CtUGhWyESLkTpIA6dljqVwQdQL2dKsFcvxBeMOi5/BdGXdRpRelA1E0QstOXKKxC1Cui3uHaI+E153mJi9CmUGw5bdF0OPNHD1qKb9DG+L9SSVeaJrPNUFwf9imEpwKysLFgCRtVe4UOZ/5Aa2L+JEs4P5dwViGnUF3H8pdL3BslYVx4HLMxtTbM2ManR1jiarEsH3z3oPIkk65ax9Z6P0J4QSKOjtcwUEIPKk/QjuTPCR0zVJ1e9mvvGSO8+2tj36fz+RvZPqyW/BRu2IUdibQ37d+L9l2EpxxI/y8HzQc5bHT7uxBeENCjmj2MvLdK9r0scfjaqyXkZG9yCnX7I0wEXlMITiAiINBtdu4553Kfz99Aa2OXvCI8kCtKWaJGseNaHKEzKGdp1lKWQngB9BQsAWCvy2wJZxUMR4eQZyE5LfsAgpV/Kz/GBZzmSc9/2x6cEAUdCVyX2HHuIDaYZe5XHOcgecfnjmeU/OwZaw1g5Oj/FyE8P9sArnuHNwv1XefjlWSgOwaDPGvXFzALQ7jIhYLN1DHa+DJQ2b8OjZKecFQoTTEgOzjekHFxLn/DglopVwq3UUN/iX8HMsivhfD8aAhEmXePtdCdssOcX6ic7stA126gC9avsUZRoXVx8wn+8KD6U08DfTmy9tKC8Kk9qd9QSWcqBxkjvAq5vkrMEYSc3x7vx8gxzk+F8HxsC9R+hRji3fLDtD7uAy6HqOwE8vr1IBQstMViXmj0LTqVs4pyWqNpaLLXa6+GDS6vLY72p3/nRGYoSoR8bxR0R8wfipAfy17m9JuV0e+wmICanmKvJ6zSD4TwfAByanaSQwGuFe9yMuLKwNZ2YAve3vE+nvUL25aHvAgQtAxVsybf8qjXUQVYIp/IWc4k5xgWmAXCKYfvlPjfKt1HCLA32yaEt0iLwTmBNLGmwUq6WLCZlJ1D2fjy2vtAFIy0wwiJ/+nNjzhAGDZn1w2zu/Dqc7Ql4SMnEoOXNrL2IueAK/8T33CTVrvElh7LWsYFppS/M8NrIbxFWgnadVU9uXQ06+eXUjkSdiLEpR1xBYo10sC2Jn7MZT1dpaZghy7sSKJDGf+3YNaG+L6q3lxeyiqHBZa1cGwoz2dzwt85fVL5OzO8FsLz0ErDz/opty2W5XqgCyZpYsYf6MoBaffX0NjblPA3elJ9ljpHm7iXQ/ppcKKbPa9IfXRgBF3GzQkfsRYfMi5cNyx/fy07+Or3+B+CkK8W7Xg5G/Q/HMb1GFq9F8JzgzSMvtktkXQkc6mHvEIZ/I7BIs/G7gtQXIGntX2knovyQLkYAcVK8VlEGzysPMkRCG6GA5NaWtPDBeEpx7J+5vAUd8tmd/sxwmdCeC6tgJqw2a1RdDx7udMdTQa2sQe2tI/n9oFEOwgtvfkh7Ur+wom4oIyCdLHmoapFsyeqevNoS+LHTkS5O+VLQl0WZGuYZRPCe9lScFA4XPWu9goZTJ4Hk2BjDmwQSoJ4PWV7wfMK0kIZRoRdLbY1D1XTufz1TirICHq+VbKXZmanF/urob4TwnvZHCA7GGzh4UIwp7JjyGtzDGppp8Xa6Y0F5hkU6blZspcgHoAb/mIbsi6wHFZq5cGujSBkBDsHk8+72HHV/k4Ij4jzYhsHygiudkfhEhk8iw0e+c7s/QMpkZCRR8iVLxtyxxF4v8pFvRuhLdW9eV5niL4cQ4vf2J7wMJWv7s2nK0XbCUKL4o0VMjM7mfly/sezf6GC9oRF7XZKAkLWBWZ5CGdRzvJQtzaq9jILGCh/b9TXtiY8TMNx17pevFsyKESw0xZmDNzQdyT9k+B1HXrmPQVNSVwoSgXdRygfO0h1ZdQ7XGO5a2w+9EX5eyO+ti3h4Y7VN97B8UUiAiCzOscAtvIzCw28nJFBodvfDbWV89pjWTjDgRP2uTH+Q2ocLCczhKfYkvBQEwBL2Ttlh7gAsqPx5FmIz8p9AF5a5MAOPevx6qRwR4bI0hiY7OJlrRIniBfktsUsSElztw+9P7Ml4aHkHewOiE9CGo6y8eS1kJ4V+wDqUZzNW8sJ/4HWuYUn9/mLGbpatHNBbm149XnqGmvWm8+8Ht92hIeUMRQ43p3yL7Hbid3OFjc7CHpC/AKlHkFY3kJQvLEGilXBDqi8MZzJXUu1fQXe/qr797YiPOQJFnemEuoBINdQ2WDyWmZ2VuwD6Ocnc1ayskmgMztXliruTCGklSnxQngKSpQaPR7PNoQ3+2KGavsKeTqubCh5LURn1T4AhwICg7Nawv1SQnYlONf3qGdxvXjXghCumLqrhq9ZaxvCQwwRipIgxcaqHVyuS8jb0QeQNrYmdgkVdyZzzVlX0gr2fUTNBad4PBwXSsltw3XB7jqk/7c84XGO7PNJLpKNxGmlSoSjc8izEIWV+gCWsSgwVdSRRBDDCMUyM6ctmvanf+s0ecAyF/VtjbxZnvCgWJzfHjdfmUlRY9NKHVyuRQjb0QdAdsiGyGh+zDO7UJAdCK22v5AuF251IrytiZ9QbP11I/MdWZrwIAgA8cLTuWu4zqajU8izEIQV+4CD7FKb7qtqs3PHYCgADnFRJY5IOUNsK8adUTfLEh6ivrvHmulR1RkRBJDwE6eBqRykVng9X7XsTQpL/Zpndv6UagyUmFD+IKPliVM9W2B5Lm+9RyHRQI+l5v8sS3iTM6OU1xbL6g7oEFbo2HINMjN11wcgt7416VNCuIg7iXY1CUO5r8qeHNoJu7hifEFMFCakYGP9lMdR87VlCa+sO4NOZP8iTgqZ3Vn6Zge5phPZy1nmaWJmJCQOCk+EA5VkBDQr9SO3JX1KyLoQwvOEWgg+R73Me+VHxG4nZGdpskORHtRKxkzLFxFPtYcaQr3i6286BfEjhe18/gYhPLXBdr+/ORbzTGi4zfYMd9N/+UyWhVboA8hsuFt+iIPp1cqgcD+mPH8K9RSohENM1IEpZnv70r41rAqypZa0UHOAcvGJnBVOhUocjSHPQnZm7wPwxG5L+ox+qzjGEQie6Uibb+CtXR/3gdOydnvSZ1TXX8yTD23OwvejWIbwYDOYnBnj2CBo9Zu9Y8v5Czm79gFkT2xJ+JiyWiNCHnbiK4UMTnbT6dzVtFoh/Q6B0MTGXw1zjsprsQzhjU0PUX5bPHcIdAzXziLvhUDM3AdWxbxHZ/PWcf0IrZ0TSsJwfY0QGDgpNilUkOFIgRRV33i76891f28JwkNdTBQjQeFsUS8WYjMzsbk79x1J/2BpdSwT58spLl5hTEtWQTxeSWcK7Uh+LRcFO976uL+w9p6W5+LLsSxBePAWJTTcouVRbznFBLnrPPKZEKJZ+gCcAaiRjPKISMqffWG8gtc4J4w/lDd1xbWiJ5umZid94SHNfmN6wgPgJaxxt3QB4K4NIO+F7MzQBxBIvCH+Q46vy2uPM6QtzJWhTuWsWuAohB0PkvBG2kxPeKi89KjqtJCdxNxZog+wFzbxM44j7Rlr0TSQOBhigvTa5oS/O7UBiny3DNUEs1vV/2t6wkt5+hvtSf3aCWgz3MXlHGW26a4PwDEBDbux6WFDLmE9MVB686MFy1qotlT15Hr6iy6fm5bwEIbSO95OVwq3E2pjuus88pmQihn6ABxtu5K/pOi6K1TfX8xkpwsbBHFQ1HdGeIoSbyzLjaaPZ1rCg84X7ipQiFCCLK+F5MzSB7B8hYbcpYItlNkSwcZ/vbImguA6/uvIs34uaK/EHrbI5Kf3CJ5co2ymJDyQHZRcMf1H7p4SZHkthGf0PgB1kbWx79OhjB/Y/oxaK1bYHledXSD7/rDyJCEbwyibKQkPdWVLutIWGEmN3tHl/OxNxksj3uC80/Wxf+ZZHfJQJ5+PG4ULgj6PtKYHvDRX9nOoqVT35ge9b7V2YErC6x5roTO5a6Qgj3hmTTW7Xxu7hFC/tawrnRBdMPNi2rCqIoEQTFFHMh3PWubUJqh7gTrQRtlMR3gQOCzoSCR0Hkkhs/eMSTmTMO5rLF+X0Ln8DZTa9IBah2toPjXshVE4QLXzeDpYQTeKw5wIDxJWMfXXVDtGsDsyHeE1D1UT4nuM28GFhKRt/odvxuti/0zHs3+hmLprnAM7/Kwv2PFq6P8jyDi85oLT2IQH+m75EYKUlBE2UxHe1PNJnh5vS/zUCVQZYEKyRukDyCPdGP8hOyR+LTtARZ3JL/NfjTDcQ3sOIDXY8ZT6eGgXeKF7x9tCe3Af924qwoOS8a9lB4XsxHZnqD7gKKKDpev2pH9wH4VDwsjVu3zkB79/hroamxM+cmqfE9krqKavwO99heIPpiK8zJYntD/NufivUe7sch72nWWuiH6Hi1LDRtc+Us+FdJ6/mLGUQ8JX8qnpy6ejWT85Ed6e1G/YfunrPkL5O9MQHpwVmN2tjH7XCUwhGvsSjd5tD2VfFKNOabpPKGgDGx0Kv8/NGUe+KZTk4W7fwAF1Nn5SVDKDaOmjylPufq75Z6YhvMqebDqa9bOQnSxndesDyyJ+TxviPqAjmT/SvfKjhBUHUsEQYiLbPAIQ/YSTRlm6cWX0O1zYxwgYmYbwHlSeIBQu0fuuLse314wSoU8oGRCW+hWdzl1DUAXJa4uh/okOwrJVNmcEEHJT1JHkRHgYM4jHQwmGF3P6huMYnvAAEFReobyA3EMhHHsRjh7tvSziD7Qq+l2eze1M/pwuF26jjJbH1Dn6lJeszkNc3ikRgD7l08Hyl9p4b7war7tT/sVFh7Dk13MzPOEhjSy/LY62JH78Cjw9BoEc0z5Ei74GO1RuWwz1jLdw9S3M5vSenehJFP4cu3O0icercoKyLfEzrjmDWZ6em+EJD/LRuMOuifmTEJ7Y71TvAygLgLKH5/LWU0TNRcpvj6OGgRJC+iIKQ8my1X966pvooJM5K3iW7JgooJJZVM0l3dWbDU146GxPB8ppU/zfZDkrZBc02WHGgeyHsBTY41bTr6UHKL7+JkFGHXFiILnJmVHTqAz7T0Xa/ANOnHvlRxhrB+GtjVnC2pWDkz3anISHoxia8ODmz2h+HHRHd4Auz/ZYlsIGtybmj+zkgu0IMkynclfxMvVh1SnWaCvrzqCOkUbDpDx5GJ+m/Bgz45Sn92mTQvIdKWZ7Ur/SPePC0ISH0otXinYI4cns7lUfwCxtRdT/slLOmpgl7EFFKhfqKUBME8rB+9O/o/P5G+lBxQlCCQAmt9FGQwlRmpLJfDxpCH4i0wRxispJBtqubaRe1zhFQxNeUWcSQW1BCZq8tscszVM7w952NHMpncpZycumJ9XneBUAUsMNEmYQPOAtRL1iiMXC2YCSALJpg8Dsixnqn+wkzK6V7QjCgzbe9PNn2pyIm6MYlvAwLY5vuCm2O5PP7lbH/IkQ2rEv7d9Oj2NZP9Otkn1OD6hqRNVe5jSktKaHhEdBewJBdsjxQH3WrtEm6h5rpoGJLoJNaHRqkGO87Ji76mZM6/4Rbi646exN+7cT4UFYIbMlnCAHr9dmWMJrGCila0U7nQBT3i3ktTYzPdyVIUeOpHg8IHeEAFx4Na8UbedAXATj4gGychCV4zm7NZIVQ0q70kn5QDUrSH0pHyAzyIHD6A37LR4IS5LNnAjArLAq+r1XYxiEF159nnrG9JN8NyzhZbQ8WXCHEJJTn+SQAoTkd9jBdiZ/QQfTvyeoW8CLiVi0O2UH6XH1WUpouM2Pwo4ktomhqnx9fwl3XnRgPDDTkk0QcCAwX6v2dXbU0ojf0dWiHRyA7PiN1s+GJDzYXh5VnZECPaovZ9+g5ZFvcUwjQn0wY8OyAx5MaLfF1d+g/PZ4JjIUUDaKaKPWg0KOpw4CsfXX2ZzhmKjg5nok8yfSs2iRIQkPa/xrRVBcUH9GY+d9YkkBL+bVop2U3HiPYDaYnBmnOc5vFKO+OsNc9uJAIKP5iVNxbhDejuTPqaI7y/ETzZ8NSXhYLsFWZGdyCv7a3+DwjYMZ39Pd8sNsLG7oL+F8UGSvYPkJBWlJl9J8zNnmgAhNOeZS1AdqyHBE6bUZkvAgLwPPXvCD3l4zxGWRb3Kw7UkO2ThKsINW9uRw7BPq+CJUgyQ8Q6+xZrvjIkwItmDXcZze9Eg3NWhDEt6lwq1iv/NxOY9lKuSLoCZzrXgna5GVdKVSx2ij5IHajmKMdcGDk910qXDLAsKDrViv0BRDER5sSYjSPpD+3QKQXO8Sdn+PbINN8X9lyfvrxbvZ2QDxRcQ/ySYIGAUBOMNQgFw5Xu9XnmDTih7naCjCQ+BoXX8x7Ur50gkgJVh2fw3XPnJFkT4VXXeF2ofr9Og3ckxBwCcEfqs4zrZk5bhFfB7se3pshiK88elhSmq8K8rGHpazq2P+SOfy17OEUcdIAzseZman9eg3ckwTIgAHFUKN5r3y2lwAlq/IcVYSHux6ZV0Z2pyAy1EMRXiIsEd2BSL7lQDZ/TUS42ELgXIM1GSRdjc7N+vSlPJWEPCMAIhOD8cVxBtcc2pReTCnNcrzyYbwG0MRHor17kr+goNj7U5yqKUA4oeQYmTtJdZrg9S9bIJAIAgg57hluDqQvwb1n7y2WDqc+aPTBAYqKiBCPTbDEB5CJuDG/iXyTSdw7EZ8sNEh/xAilTeKwzisZGx6WI++Ice0CAJYwqKIfVl3uuZXVN6dSWdy1zqN6fVxf6HYuuuanwsOaBjCw3QbieZIVrcbyTmuF2QHOx1mdQUdCaK8q8uQsN5BEWBe11dEOa3Rml8csirO5q1bMKaRZ6vHZhjC6xlvo8jai4S4MgcB2O0ZwdYxdVepY7SBK7Xp0SHkmNZDoGW4hhVr9MhhRaU3yL27jmVk/+gh52UYwmsdrmF1DtiuXMGx+nsUKobUEhL3JZbOeoSj9xUlP71HiY132Nml9blARQc1pV3HMPK5e8fbtT4d4yxp6/qLWEnBNUjRFSgrvUdeISSZUMUed1+9S9hp3vvkgCFHAKSC/gUxXT02OEvCq88tILyLBVs45VHrczLMDA9xOSj6AUUFK5Gap2vBrG4+ePgqIQVHy9gorTuZHE8fBKA8nNUawZqGeoWBILIgvuHWgjGNeFKoWGu9GYLw5ubmuOixJ3Kw1udvsGMGua9w2ethx9C6k8nxtEfAIbOOtMOHladYCkz7s5g/YnrzowWEdzRrKdsVtT4nQxDe6NSA27uAtYhuXrkFhZ/P5q0lLOHhPZPiMlp3eXscD30LQeq7U77ksYUoCL02d4SHG35uW4zmp2QIwoM+G4JrrUhwymvakvgxPa4+Q40DZeKF1byr2+uAA5PdvJRFPGdBe/xLaTB9MMhpi2aVbeVY2Jf2LYEItd4MQXgtQ9UsMa4ExGqvdyT9k1AEGm56SQvTupvb63hwfiHgFzmsFwo2U8NAma4AFHUmczkB5ZjekfxPiq69ovl5GYLwIFKJKlhKQKz0GjM7kF37SL3mDSwHtB8CqP52p/wwyzLBO4sVlJ4bagajTKdyTKOmyv2KY5qfliEIr6QzlStlKQGxwmt4nFdFv0soFo2ZnWyCQKgRgB4iPLIb4j+g5VFvU01fvu6OMSE8l1aHCoirooIVCA8inbBNdo01EyqxySYIhBoB2IfhmUU+9pHMH7l8pt6OMSE8l1ZPbry7QDPL7IS3Mf6v9FvFMZ7ZzcxOuVyxvBUE1EcA/QypiTChoP+hTKIRagVX9mTT4cwfnJa0WPlA8kzrzRBLWsyClBXKzU52UINAqljrcK1Irmvdo218vPr+YlYmQQbPntRvqHmoSvflLJqjYaCELuRvdCI85MyfyFmheWsZgvDc5dqZlfRWRL1NZ/LWUmlXmuaNKQe0JwLztWDGeUWxJeEjVty5WLCZyc4IGTwo6n6rdJ8T4WF8I/hY6013wnsxN8veGrMSnPK84aTYk/o1ZbVEaN2OcjwbIzA1O8mB7I7SprCHJzXeMQwiQniKpoDLHEZWJXGY9TXyYzObn4gIgKJ95WXoEeib6ODZEvofxg5sYwOTXaE/sI9HEMJTAIX6qZcLt5qe8FAEO7zmPHWPNYsQgKJ95WVoEQDZxdXf5GUsBGQR3xZVe8lQtmMhPEUfaBupp0sFC4v1mmmWB5ViyFgjY0TEABSNKy9DisD07BTbig9mfP9KZQgB/PCKGsS2XqgAACAASURBVGkTwlO0htkJDzU4IPNU2pXOJfAUlyYvBYGQIgAigXIwBCkwQcBzTN01GnnWH9Lj+rtzITwFYs1D1XQhf5Npl7SbEz5i+R3FJclLQSDkCEBnLrLmEm2I+/DV2IHTorgzJeTH9vcAQngKxEq6UulY1rJXjWampey8gXgrdY01Ka5IXgoCoUcgry2Og3mVgrlPas4RsnqMtgnhKVoEIpiHMpyjsM1CeljKwisrmRSKBpWXIUUA5UzhqICmIrIVMFYQxLs+7gMuE2DEviiEp+gSKB0HMUCzkJzjPGG7e1x1hr2yisuRl4JAyBB4MfeCUCMCyjtIHXP0xTUxS+h22X4amDBOKIoSBCE8BRpmJTwEGCObAndc2QQBLRCAMwK1mzcl/I2WRczXb8bsDoHGdf3FhnWaCeEpeofZCA82E8zuImouUPdYi+JK5KUgEDoEEO4EUc9DGd+TspTp2tj3OW8bGUtG3YTwFC1jNsID2W1N+oQ6R5ukHoWiHeVlaBFoHCynGyV7XsXbOZazsH+XdKURCmEZdRPCU7SM2QgPkeyx9TcMIbujgFFeWhiBoWe99KjqNK2Lff+V3Q6Eh74IO/LEzKihr14IT9E8ZiI82Ev2p39LPeOthkrdUcApLy2EAIQ74XWNr7/pViAXtV2renIMf8UQJUV+r2NW6ni2pVqKmQhvQ9wHLHNj+B4mJ2h6BCDrhGI8RR3JhApfyyJ+70QY6IsocK1n+UVfQa7uzaNj2QtjbYXwwudrtzruAEZ7Ppz5IxV1JPnazvI7QSBgBJBJgdrFIDuUCnAdCxcKNhEEP82wuZN4h/MPCQdab7rr4Zlphne1aAeNTBkrT1HrDiPH0wYBqGVDxBPqxa5kh/dFnUn07PmENicT5FHcER6cf2fy1gS5Z///LoTn46wSdTQTG25LMR7/+5j8w08EGgfK6Xbp/nnJp/A3nAgPyjw3S/YSUsiMoGbsy6W5Izwsye+UHfTl76r+RnfCQ03akzkrnRrV3R1N78+whKjuzVcVfNmZIOCKAIgMntfNCX9fMCYwK0LA+9PBcpp6Pun6V8O+z2+Pd8oMwVi2bV3apqEqOu9S4ENvcnM9/rLIP1BU7WVCeIBsgkAoEEDgcO94O0XXXaGw1K8WkB365NbETyi8+jw9fzEdilMI2T4zW8I5WF85rlB741HVqZAd09OOdZ/hmUEPD3mLBR0JnjCUzwWBoBBAjuzY9BAlNv5KMJ0oicHxemXUO2zT60LA+9yLoI6n9Z/Tmx8tuCZIWaGkpNabEJ4PNryzeetM4xHTugPJ8YJHAOEn1X35tC3p0wXhJw7CO5D+HWW0PAn+YBrvAbGE6U0PFxAeVJrhsNR6E8LzgfCwnO0Zb9O6beR4NkBgfHqECjuSOLB43iPr7KQA4S2PepueVJ+j4Wd9pkMECi6Pq84K4TlaDmkxv5YdXACI485mhOfizmSpROZoMHlWDQEsY3Nao7jiGOzEnvr6pcKtrHVnZIEAT6D0jLWSu7rTRzJ/0sVMpPsMD0C5A8RT42v5OSR44E1CBXczdjZPnVA+1xcBLPMmZkaY7E5kL19g0Hf0cfQ/2LoK2hPYxqfvWQd29KbBSrpREraAzE/lrqaavoLAdhrEvwxBeI+qztBidzhHB9D6eVX0e4QqUL2ynA2ii8lflQjAQYFVDWpPIHMH5T3d9WuUXFwf9xcu/YnazWbdUNzqdO7qBdd4sWALwWGp9WYIwoutv07r4v68ABR3HUHLzyCbDfudGW0nWnckOZ53BOZndqNU05fPM7fFbvIoqn0062canOw29eoCs9NjWT8vGNtYpneMNHoHTeVfGILwUpvu044k9+54LQnO9VioSIYGg2FZNkEgWASwjIU9eGfyFy9TxhY6KBx9EPVSKrozTV8vJfnpPdqV/MUCwrtXflQXxSFDEF5uWwwdSP/vAlAcja/X847kz7lmxYzJAj2DHZjyf/URGJseppy2aIKxfn5m55nsdqV8yfVlcaM1srCnLyhF1l6iDfGvS0k6xvL9yhO+/F313xiC8LDOP2Ww9DLIaO9L+w+n8Ji906nea2SHfiAwR+PsoIimEzkrPNrsHESwLvbP9FvFMWofafDjGMb9Ka5lRdTbTpOZtbFLKLr2ii4nbQjCg8zNlaIdTqA4OoBez5DkOZmzwtT2E116lBz0FQKzL2Y4HTG/PY6OZP3k0Rvr6OMQmD2fv4GgH2eFDRJX14t3LRjXKDqE7As9NkMQXufoU8OFpkDN4XbpPoJXTTZBwF8EHCUVk57eJfQlB6l5esaKAiFQ5d0Zuti2/L0+X36PcK7TuWsWXDuyRrC812MzBOEhaRqR5J46gx6fb0v8lMKrz5kub1GPTiTHXIgAimVDkRg1Y5VVxjz1Zcg+FbTHc60UeHOtsBV1JtPhzB8WjGukalb0ZOtyiYYgPJSgc5dg7KlzaPE5pt3JT+8K4enSLc190IaBUrpfcdznyIN5qaTjXGR71sDlFv1tFYghYBy5jtfbpQeoZaja392p8ntDEB6uBNLpK6PfXQCOK1havUdYQF57nOm9ZKr0EtmJVwQwK4NsE2TZfy07wFJOvvRVBBdDSRsKx89fzHg9jpl+cLvsgFsPLSSu+sbbdbkUwxAepriQxoHWvS8dJdS/QYERGI+tsrzQpXfZ5KDw4k9MjxDEbK8UbaeNbsIw3PVXiAKczVtLpV1pFkNqjpXBkTaHa3S99qTGO+y51uOiDUN4WAYgNAUpNa4A6fEe54J6mkJ4enRL8xxzPlVsnux2JX9Jyz3UoHDtw7DrhaV+Tdmtkea5WB/PFHnno1ODrM7set2IQYQCsl6bYQivfaSelwK+GHhdQQzFeyE8vbqkuY6Lok7IJkBWDsJKfvJhhbI04g1e6kEPzuhFtANpDYSjYLa7Pekzp8kLVm97U7+hqt7cQHaryn8MQ3iDkz3ccaAQEQoC83efQniq9C9L76R5qJruV847J+bJznuZUdzQ18a+TwkNt6hvot2STrHRqQFWM3Zd2mP1diF/Iz0drNCtXxiG8HBXqOjOMoxqihCebn3S0AfGEhY6drC7oXrYlsSP/bpBozhPeM15gk6c2WpT+NowCMk5lbOKoDaknGiA7B9UnKDO0SZfd6X67wxDeFj3tw3XEVJrjLCsFcJTva+ZfoezL54TBjNEO2GQdx3QysHt7jU8steLw1gBxUrhJ8qGxThuGa5haSvXWS/epzU91LUYlmEID6BB9wvJ1ZDGcddhtPxMCE/ZjeU1BCSgiwgPI4LS/Y0mQMjV5aLtVD9QYmkwUZ+jpCvVDT5vsMe2tq+QEHer12YowoMBGAGbvqTihJr8hPD06pLGPO68cu8etr8FEklwvSSMEIkwO/fcmBeo0ll1jzVz1pTrDQE1dVGkCN+TjpkkhiI83B0gFbUt0dm7E2pyc7d/ITyVRoCJd4PlGcRf4YWF0gmWpP6aW/B7xOahiPuz5xMmRsO3UwepQyXc1Vu9JuZPXGYSgqZ6boYiPBhxISSA6uruSEjLz4Tw9OyW+h8b5NQ4UEYPKk/S3rRvCOo5/vY/1JI9lPF/VNGTpVugrZZIwsYJwVw4Zlyx2pTwd4KyORw+em6GIjxErGN9v1hhE1cgQ/VeCE/PbqnvsfsnuliZ+GbJHloT+yc39ijv4SdwaKBmRVZLuCVj7dy10PCzfoquu7qA7DBGUYyoqieXpnSe5RqK8BwgomzjhriFKqmhIjd3+wXpNg6USqaFo1Es/jw394JvtgOT3YSk931p37oduO76iutnSKcC2eml+aZXUyGP+HLhtgW4YVl/MP17Ng/o7Z02JOFltjwJqsO5dsBA3iMiPKP5iSUDQ/UaEEY+LpawDQMldCJ7RcCOCUc/O5jxPWW3RlneQeHangkNt2lLwsK4xLUxS+hq0U5DTB4MSXitwzUvDZ/elw6OTqb2857Ub/gOjTu/bNZGAOUCI2ouUljKVxxb569jQtn3oP+W1xaru61K6xaDjP2dskNuVZ2xnI2pu6b1Kbk9niEJD95aSOwsVsZO2clC8Xpr4ifsXhfCc9tvTP8hMiYGJrooqzWSZx/BVs2DUwOFqBBlYMeynsidhRnI3VjE5/BSG2EzJOEBGHh0IIzoDkAtPkPGx7XiXSLxboRequI5OFLDavsLuZAMCjUF4oFV9kGEq5zLX09ZrRE0Pj2s4tmaZ1ePqk67TbNDdsWNkjBCfq0RNsMSHuShj2f/ohvhwct2Nm+9FPExQi9V6Rxgp0O2REFHAp3OXe1Wq01JZL68RnwZikrXDxSrdJbm2g1uIFiRHcta5nZFtiZ2CecOG+WqDEt4kIu6W3ZYN8JDZ0c8IIJPZbMGApW9uXS5cCutinkvoFATdwR4tXgnZ1DYVTdx8vk469ttT/qH27GKOEQs842yGZbwHHUugl1uuOukvn6GRoT2vp65f0bpKGY9j6nnk+RIC8MNDDOyQFLDlH0GenbI975Vup+wNMYx7LoNTHbRsexltMpDeQaEmLUO1xkGHsMSHhCCUOChjIVVj5SdL5SvYUPMaH5sO4+bYXpnECcyNTvJMy9Uvj+Tu8atekcgfQc2KWQSYL9PB8t5ORfEaZr6rwgiRhkE6Pu582yvjnmPUpru0+TMuGGu09CE50hEDqRjqvEfNOTd8sOEYFTZjI8A7Emw0zUNVXKGw7WinW7TnALtG1hthKV+RQ8rTxJmNlYruuNvC3ePtdDjqtPkSbQXDiGk1RlpMzThQRS0rDudY3tc1RcC7bT+/A8dHMV80LCyGRcB2Fkhld412kSl3el0vXi36h7+FVFvc9hJXP0NJju72uwcvQBkDxHU3SlferSH3is/QrDFG2kzNOEBKKijIiYO8jL+kJWav0UFddmMiQCIBwnpRZ1JdCZvYZV7NfoBbrb70v7NAcViz53vByizGFFzYdExCQVzo9k3DU94SEiGJPb6uA8WBVeNju1pH+lNj2wZTGpMips/K+jKDU/1U2rTfbbRIaXJk+HcU7v68jmcE5cKtlJNXwHPIiFwIRtRVkskIRvJHYaYnCCQG7M7owXuG57wcEeFpxQ1a92Bq8Vnt0r3sWy1dHT9EcDSFTY6aNRdKtzCoUP+Sq370meQ5YM+d7/yBDUMlBHMK7LNIwAJN9TzgPyVOyzXx/6FHlae1lXK3VNbGZ7wHJJR5/M30OqYP7oF2B3oan62O+VfLBckMXmeulFoP4fOGuT/4RFMfnqXbXRwHriKTKrV5lA7QfwY8j8xS5F2d7TvHDtq4htucd6xO7wR8rMr+Quq7y823HIWV2F4wnNAjTv6fCfXR1Agtu4ajdk0bcjRBlo+OyL4UTQHdSCgxHEyZwUXeXI30NT4DPF1iNM7krWUMloeE0oOyPYagdkXM+wYOpr1s9usCrTBfIbSWp4RG205iysxDeG1DtfSmby1Hj1CanT4xfaBvNrGwbLXrS+vVEcADggQHWZ0yEmt6Mmm26X7aWP8X0Pe7iA72ACRE4v4OquWUAym0XDDR87sYjnuWA0lNd41hBSUu2s1DeGhalRU7WXakvCRLsta1B9FSIJsoUMA3lZ49hDUeyTzR9qc8BHPuFzL/S12YwrkOxjZsXrAEha5trAb2z3sxLWVEWQMgU+MP09xd8Ae9SyMHMZlGsJDA5R2pXPSdyCdOtj/YFBcLNhCbSPGSZNx7ZRme4/Z3NCzXp7JwS4EVY3DGT/Q9qTPVEns96XNoYqDdoWGXd9Eu9jrPHQi1Iy+WrRj0fCwbUmf8U1jZnbKw170/9hUhAf9MsT+6JVfuzP5C5at0r/ZzHsG8HYiQBgzOUigY4l0Nm8te0S1rEeMWSOWXw8qT7AzZGJmxLyghvjMUWkMy1TIYC2WAADHItJBjbyZivAAJGZ5e9P+o8uyFt47SFaNTA2Q3tr8Ru5UynObt8eNUM94KyGAu7AjkZ5Un6Xj2ctoXdyfg07k92UWp/wNiA4pg/DCJjTcYu+v8nzltTMCCBzOb48nOCqUOLq+RqFxmCIGJ3ucd2Cwd6YjvJ7xNoqqvUIwMruCrsV7BLimtzy2rdCjt/4LzxxIDssa5LUiIr+4M5luleyjHcmfa7ZUddcXEFu3If5Djt8D+do9F9ZrW9Icx8C6K8zjiu/B9P9SeXeGt13q/r3pCA+DCcV+4blbFvF7zUkPtjzIRsFrjHOR7TUCwAPy5ijHBwfTqdxVvFTdEPcBhyuAcBZbErkOIrXfQ/QTxXX6JzrYCyuOiddt5/oK2GB2h1KVa2OXeB1ncOghhMjom+kID4BCvQQFkn1pCLUHDQYsSO+3iqPUMdJg9PYN6flhhgS7am1fIaU2PWBlGZDKwYz/IxiwEZPlTjZI7TZZbH+w9yIFKrLmItX2FXBsnQQSe+8WmJ2DxJBtsph+IMYCAo3hwTWys8JxxaYkPIQNQNQxLPVrjwGQiw0CNb7blvgpa+WNTulbSd3RkKF+xh0fsWkwKSCKHra4xMY7BEWMC/kbaW/av3W5AXlqS4ROYCZ+vTiMclqjeGk9Mzsdapgssf/RqUG220EwFSoxnjDG5+ti3+diV3BsmGEzJeEBWER9I58Py6XFGiSU353P30jl3ZmWVURG3mr/RBe1jzRQfX8JlXSm8lIVNh1onaFeQSjxDXTfEOiErFdk7UXJgfaThTCzQwWyI1k/LRqCgrbB7G5v6r9NpQpuWsJDDBc3TObSRafcgQ4aX/4Hr+214p3zqhBkbhUNLPMwA0KAKYgOQcAgc9jiQOxYouppf/PWHlg6Y/mKuDqEukBwQmZ0/rEdbLBPByu4RKo3vPE9Mi7ulh3iyYd/R9Lv16YlPECGDg1bnl7SUSCATQl/Z9sV7oxGzB30tWtBXbqwI4nCq8/T2bx1HFEP8lgd/R4va0Kd7eDLAFvsN9uSPmW7avNQJZM1VgDilPC19ed/1zhYzsHfvsZDnspZRV2jzWQmySxTEx6aCQV+MQNZbDCE8juH1/Z+xXE24JvBIA57CxwNGc1PeDYEGxzirPamfkNbEz+eL3QTrk/Yj79tBVsqPIl57XEE0obhXIjOP6KDtiDIDvniG+I+9GksIRsmuu6K6WbRpic8JDQnNd5RtXaBv4MO4Rab4v9OETUXCVphRiE9eFERCNo0WEVl3RmU3RrJqT93yg4RouIPpP+XlyV6e1L9xRszEGRJ3CgOYwFQLMPGpyVTwj+am/81TBjAD2l9G+N9Izv0dziDmgYrAjmkrv8xPeEBvcaBMtZI0yMuzzFYeXkb/zeuZg8NNa2lwCGuAO8aMhpgv6rtK6KijiSKr79JEDA9kb2cdiZ/vmjit+NajPqM1Kb96d/SlaLtlNhwmzpHG00RCqHrCF/k4DDDQNz017IDfqlFI8USnm8zBm5bgvBwlyrryuBgZL1tTTDk3is/+spoHorlFYzLIFRUfIdzAQn4LcM1lNcey0tUlCVkcov8g0/LE6MSHG4iyyLfZOFXLLWw5IIjBU4V2YJDAEt/TBRQN9b39n+Db5hwCnWMNgZ3Ajr92xKEB1KBrM9vFcd0U0V2dBoEaUJEEgZd1EEIRTAmAp6LOpN5Ngn7Gwz27GCIgYPhfzlcQG/id+ARzPMvkW9x+EtM3VW+gYDcMasIxU1Ep/Gn22HLu7PY9o1IA1/bCEtZzO6Q6WTWXHJLEB56DYgFS0kEwGKg+NqIofgd8nwhRw8b2eOqM9Q2XO93GhrsgKPTg2xMLmhPYMVfBPmeylnJmQxhKV+9dDAsoXlyM4eTwRveuBbkK18r3k1pTQ85/g81YFmjbu6FbgRhhQM7VKSzWiP4hgwRBW/tofwev4dqCtIHzbpZhvDQACA9pMMgwl7ZUHq9hjMAJSZh4M1sCef823kl3dcxe+iEyFlEihaUdmF3S3n6G6dCoQj4hYJNHEQLI72eQdahxBAzB3hbsRR/WHmKsYK6NCTWJV9ZHWrBDQMB5BgfhzN/9HslhDROOLq6xppNrQZtKcIDeWBpi0LMeuTZeiIFhK4gTQe2vaKOZGoZquHKWwgNQTHjrJYIwrINnrIjmT9xDJw/Sw1PxzXy55iFIyPiYPr3LMCJAGdo5MEeaeZ4RnXoSd29wJlV3ZfP9l2oSC+mWOyuz+CGBDmtwvZEUzoqlGhaivAcFwY5opPZK3RPXHftPFiurYv7C10p3M7BvUhqN2p6luu5q/EeJI7rhdLNgfTvCLGLcEJIcSRHz1XzGfVBZtlzjxhFBJMHKpwLRxwC/LESMbv91JKEB+8lpu4QmFRjoKq5D4fnEXdNLHnxXs39G3VfmFVA9BMikTV9+SyiOj07xUtWsw8iNWlKrX2xks1kF4ecwKyC/hZoWUt4x1uHUdrgtSlGrfPUej+WJDwsbbFshJHfqARg9fPCbGJ3ypd0uXAr33xQgQz1QCDtBZl3tJFsoUEANXwhn4/YSwQTz5NdYOVND2f8SPntcZrHlYYGGROVafQXAIfqA1Km9PbaWp3ccH0gOKSlQaUEKjaJjb9SQUcC15TFAJRwEn97sP+/h/0Tsl3IpEGANmzHga4gEF6FHPXkxnsEL7lVNkvO8ByNMzo1QDmt0ewp9ddQaweSCuYaMZgQ+4cAZ8wkbpTs4dxK1D/A8geZH7KFHgEIaDhyo1GjAzccX5P/PbU/SBJhVXD+IVXSSpulCQ8NBXsewkIQ0hHo3c5TxwCJonPBI4zB73gg8NibcKKnfRr1c9zxUagF14g4OcQYXivaxalrqA8BnGXTDgFHKiGwRy45vN2BOiVc+9yKqHfYK4tc2anZSe0uSoMjWZ7w4KnCkupM3lrVl7YQDDids5q9jSgf6XggNxFufNeOZOb3q6LfZQzhdKjuzePgU0gwIeJewkg0GKkuh0C2Dfobwp1go1OzqBWC2jFT1zof3OUSQ/LW8oQH1GA/Ku5M4aVXsKSDuyjUfhE3B2kqSBIhaBiqJI4HisQg6wMhF4i9m89rfdM0BIjBg5nr4cwf6HbZfkppus81C1BRHnaieafDbEg6pOzUMwIIxIZmIWykBzO+p03xf1W9Chxkn55Un+OqfGbSufOMmvM3tiA8XDJqyaY23WeyCpT04N6/XXqAa+P2jrcvegdEZ8Edsm2knj1m5/LWcz3UQI8d6v9hBgevKuK1QNIZzY+poieLRQlAcpLx4DxwtHgHTzZIDjnZyY13WfUGWRJQjQmFTXptzBK6Xbqf6wdrcX16HMM2hAdwMUPBzAyBr4tVYnJHLiA7hLnAZuLvNj49zBkVCNEIJkTA3XkF+hmCgBGygCXR2by1rNqc/PQeZzt0jTbJMtXfRlbp91D+QegOilRhWRlTd40uFWzhdEk4igJtb2//Q7901GjBisiqm60ID43YMdLICrmrY/7kM+lheQdXfyBk5+g46ESwfSEnVg8lExA8luOQWUKu8bGsn+nX0gNcXhFSP1a01ziwN/Iz+gXESzGLxg0ZdVqSnt6ly0XbeCanpm3OE+khAH5Xypds9gHhWnmzHeFhaYaOhZxVeB09dQLl53D1V/XmBt0PMNND2hu8uMr9a/Ea13og/XueMUDhFppyyHCQLIegmzWoHaDsJYqD44YK0sFNaT6aQLsMHJgzoMgD+S2rb7YjPAxwzGZQdhD2EF+WmJktT9iWEmxngMcYDg7k+aJIdSiJDjODLYmfsDow1FdgB4KDBTYhhBpIpkOwrenf/x3xcqjpiywIFHI/kb2CZ/wI80G4z/LIt1T1tvrSv2Cqiau/yTNM9E+rb7YjPDQoSA+J0LltMZzfCVVdd50DhmEkTkO2CYVO1NhwXBigQyFhtSZmCcfHwYsX33CLo+4xm4P3OBRCpGrgYbV9TD4f40BgmD+ghAMpdBAK7L+w4Z7MWcGajVCKAcG563dafQblFEiQ9Y23q9a/jd6etiQ8R6NgCo/ZD4oJu+tkmIXBuwrJKbU2LKnbhutUidPD7BQCCfvTv6OLBZtZ/geFejDYJmZGxPGgVqO93A/CcSB+OTTZwxLnrcO1hBlbZU82FymHZxs3GoR1oJIaVK8RPoJZlFpBwe76aSCfwWF1q2Qvr3RUhsnQu7M14aFlsMyLrr3CVcdcDcTIzoitu0bDz/pVa0ReUj+f5Dt9IB0VBmbYAJG3isF0vSSM9fSQmA/dMxAdQnAwMPHA3Rs2S+Wjc7SJSRfEGMgDQa/K/S32um+i49W5OM7J3TPSAHHuyIEO9QNZIUqMHOcDxwHCjXpe4gVvNcKKmoeqGaeSrlQO18FNEnJJqAdxLn89Hc74gXYlf+H2phlIG4f6Pyuj3mFTB1Rr7LbZnvDQ4LCrJTTcXnAXRpFtGJRDodd2One13wME3t01sX9i5VnMJkDWWGrD04c0oNq+Al7GYpYRWXORH5j5wemifOxL+zao4uVYjiv3t9jrq0U7Xp2L45zcPSM9CmIDuIZQP0q70lncIKr2ktO5Pak+ywrTJ7J/4etDAv58CJN2DoRQkx36ELKA6vqL7MZ1fL1CeEQcVIv0s/j6W6w27Oh0WIrAO4uljNqbv4SH5SsIGAndlwq3cGwW7EFIA9qd8hVtS/qMl06wDWFmiuBUPFZHzxf2wZLK8UAMXjChMYgHc+zL2zOS0B3nstjzhvgPWQEZmIf6AScBwnNczweOA5gxEIaE6wJOoQjwdfQvrZ9xPWGpX1NVT45tc5+F8F4yGWxrWH49qDzB9RXQGUEeMDojnETtzV/Cm0/ef4eXTlsSP+agYYQTaD1o5HiB6crpjRvCko5mLuVYOzvbd4XwXJgMNi0k/2MpgxkAai3AxqPWNu8hnqATOSuErMLNSR56k5e/xwfZQcIL5hl469EH7boJ4blpeRhzUVAHhuirRTt55ufmZwF9BJtbx2gDHcr4QQhPCC/kfQDLWMzsHGQXUKe10J+E8Dw0JlLQHladoh3J/2SPplp3RQT9pjU/YgUVf+/U8nuZEfrTB2AGCUv5mpexEoc5P9CF8DwQx6fpzgAAChdJREFUHjyfiL+b9x4msqaeh5/69TFi/07kLCexvwl5+UNe/v4WQc27kr+k8u4sztVV64btV2c34I+F8BZpFAhcwnuL+rGIzwIJBrMhrQs1aGEfRDydv51Yfi8k6UsfgLcZMl8lnWkvde2kYJJj3ArhOZBY5BkBqXggIDbQDTO7os4kju8KpcyPLwNCfmNd4kQGBWIfIT6L/F0ringGOgbxPyE8H9FDLN58PN58gWN/anQiAwKKyxcKNsmsThwVIesDWDnA2VbVm+djr7bfz4Tw/GxzKEpAWglGYMTuebqDQo0ES2CQJPJbIUclMyvrzqz0bFukRCJQ+reKY5wK52eXttXPhfD8bG7Y9QYnuqmoM5lrriIn03UD0cH2l9ceRwgwNoIyhp4DUo4dWqJHZg2yhOBkC9bO7NqXrfZeCM/PFkWFLujpIWEeNTKginGtaOernEwklEOSG2lfe1K/odUx74mDQpaxIZndQ9YMmo5whPVPdAnZ+TCWhfB8AMndT3AnresvpgcVJ1heypH/CSWTYPJUZTYU2tmQVfBFPzuTu5ZTH0MhbuGuz1vhMyG8IFsRldkhLwVNPRQwVrvYt1UGqFyHOkSOmymcE5cLt7EnNhTCFkEOCUP/XQhPheaBE6OsK4Nld6C24W9FNCEDdcjA2ji+weUIYA9mleKJDhV6rv12IYSnQps7atBCGBM2PYgOWHvwCUFp3b6/RL7F+dfZLZFcbMcO9SdUGJoLdiGEtwCSwD9AoCeWuImNd1SRcNd6UMnxjEnk8MKiADy0GREVIGligY9RIbzAsfP4T4SkoEAQIt5hb/GlMpqQjTHJRs92wawOXljYiFGYW2oHexxyPn8hhOczVP79ENXJWoZqOBj0QPp/dalFq+dglWMHTuAgOlQUQz5sTms0od6HbOogIISnDo5u94KlB4gvvz2eO+98yIqIBggZeiZDZEzsTvkXPaw6zYHEYqtzO7QC/lAIL2DofPsjSO/5i3nbXmz9dVFKkSDkRR1ayLeu6MmSYum+DS+/fyWE5zdkgf0BDg3Y9lCcGQZo2PZkpuN5pmMnbKCNiEpi6U2P2AyCMCfZQoOAEF5ocHW7V6SlTT2f4BqnEBZFpLyEsNiX9FZEv0N70/5N98qPcCFvqOrMzs267TvyoToICOGpg6Pfe5mcGaeK7izu7Li74y4voqDWJz9k4sApsSPpnywXhqLeKCcgmzYICOFpg7PHo2D5UtmTQ6dyV3M9VlSFl/Q0axIfhF/Xxf2ZUOA7tu46E52om3gcGiH5QggvJLD6vlM4NbCMQYxVaVc6e3NRacpONiy7XOvO5C8ovOY8K+2gmBNMHLJpi4AQnrZ4L3o0zPbahusoo/kJL3dWibSU6YkfedVHMn+kuPobVNdXRAOTkHGalmyJRUdC6L4UwgsdtgHtGXFXSB+q7Sui5Ma7dLlwK5d0RHyWXWZCVrhOOKOgiRhVc4k9830THUx0AXUK+ZNqCAjhqQalujuaFySYorr+IkpovM0FwVmCKvodUWMxYCwf7K5IIYQu4rGsZXS/4jjXMRmfHiYJHlZ3bASzNyG8YNDT8L8Dk92sbHsyZyXP+FCKD94+K8yGzHwN8KyvjH6XZfz3p39Hj6vOUkN/CU3OjGnYO+RQviIghOcrUjr/Ds4NR2Ggp4MV9KT6LIWlfiWEp/Nsb03sEvawZ7dGEeLo2D4nzgidR4vnwwvhecbGsN9MzT6jockeVtBAPQPU0NiW9BmJd1ebcJaV0e9wcabwmgtU1p3BXlfIrM8vXecM22/kxKQuran7AMpEYlbROFBGhR1JFFFzkb27u1K+kJmfyjM/mBAOZ/5Ad8oOUlrTA6rtK6DuseagirObuvOZ9ORlhmfShnN32rDzVffmUVLjXa6kdjz7F9qV/AWtjvmjEKCfBIjZ8paEj1iPDjPoR1VnWOOwfaSBkBctmzkREMIzZ7stetaw9cFoXtNbQHH1N+liwWYKS/mKPYjrYt+nFVFvSxqbCwEui/g9axZC1GFH8ueEm8WDypNU0pVGg5M9UgJx0R5nni+F8MzTVkGdKZa+WPbeKTtE+9K/lVmfC+FBRh0xjwkNt1ncAbnOslkPASE867Wp2ytC+hoyOTBbQRHx2r5CSm9+xIrMJ3KWv5Sif9MWS18INRxM/55ulOxhgivvzqKO0UaW78KNAWl+mCXLZj0EhPCs16Y+XdHM7BQNP+sj2KRAfpj9wRgfXn2BrhXt4iyBPalfm1qaHvFxCATel/YfupC/kcsbIsUrry2WqnpyqGWomkkOqtSy2QMBITx7tLNPV4mZzcBEN3t9SzpTeQYYXn2ebpfu54JE5/I3cKlA2AO3JX5KWAaCVPSswwvvKZwLcM5g1gbbG2pB3CgJY0cDlqiZLeFU1ZvH5I7wEdnsi4AQnn3b3ucrx2wQS+HW4ToqaE8giJc+qT7HRHg+fyMdyfyJDqR/R3tSv2HiAfkgLhCFaDbF/83psTH+Q1ob+z7r/2Fp6Xig3gfyT11/j8LTmKVhn3ig3gNEMw9mfM+PG8Vh9KDyBEE+H5XiKrqz2QY3Pj3i8/XJD+2DgBCefdo6pFcKUuwbb6f6/hKq6y9+RYwxdVdJ+UCGyLWinXQye7nT41LBZvqt4qjTb/G/+IablNHyhPeJfTcPVXPQdUgvRnZuWQSE8CzbtNpeGMQOZl/MsMEfS2N4OZE4PzY95PSAU2DoWS8NTHQ5PTCDHJnqd/rt/H+H2dmCfeIBYp2de67txcnRLIOAEJ5lmlIuRBAQBLwhIITnDSH5XhAQBCyDgBCeZZpSLkQQEAS8ISCE5w0h+V4QEAQsg4AQnmWaUi5EEBAEvCEghOcNIfleEBAELIOAEJ5lmlIuRBAQBLwhIITnDSH5XhAQBCyDgBCeZZpSLkQQEAS8ISCE5w0h+V4QEAQsg4AQnmWaUi5EEBAEvCEghOcNIfleEBAELIOAEJ5lmlIuRBAQBLwhIITnDSH5XhAQBCyDgBCeZZpSLkQQEAS8ISCE5w0h+V4QEAQsg4AQnmWaUi5EEBAEvCEghOcNIfleEBAELIOAEJ5lmlIuRBAQBLwhIITnDSH5XhAQBCyDgBCeZZpSLkQQEAS8ISCE5w0h+V4QEAQsg4AQnmWaUi5EEBAEvCEghOcNIfleEBAELIOAEJ5lmlIuRBAQBLwhIITnDSH5XhAQBCyDgBCeZZpSLkQQEAS8ISCE5w0h+V4QEAQsg4AQnmWaUi5EEBAEvCEghOcNIfleEBAELIOAEJ5lmlIuRBAQBLwhIITnDSH5XhAQBCyDgBCeZZpSLkQQEAS8ISCE5w0h+V4QEAQsg4AQnmWaUi5EEBAEvCEghOcNIfleEBAELIOAEJ5lmlIuRBAQBLwhIITnDSH5XhAQBCyDgBCeZZpSLkQQEAS8ISCE5w0h+V4QEAQsg4AQnmWaUi5EEBAEvCHw/wEHK41qHBNwtQAAAABJRU5ErkJggg==;" parent="1" vertex="1">
          <mxGeometry x="554" y="558.5" width="81.2" height="83" as="geometry" />
        </mxCell>
        <mxCell id="tSnX5RXje4xO9rxQiIv1-8" value="&lt;b&gt;Request&lt;/b&gt;&lt;br&gt;- method : POST&lt;br&gt;- API : Login.action&lt;br&gt;+ user_id&lt;br&gt;+ pwd" style="edgeStyle=elbowEdgeStyle;rounded=0;orthogonalLoop=1;jettySize=auto;html=1;strokeColor=#808080;align=left;" parent="1" edge="1">
          <mxGeometry x="-0.4444" y="50" relative="1" as="geometry">
            <mxPoint x="240" y="480" as="sourcePoint" />
            <mxPoint x="440" y="480" as="targetPoint" />
            <Array as="points">
              <mxPoint x="320" y="560" />
            </Array>
            <mxPoint as="offset" />
          </mxGeometry>
        </mxCell>
        <mxCell id="tSnX5RXje4xO9rxQiIv1-10" style="edgeStyle=elbowEdgeStyle;rounded=0;orthogonalLoop=1;jettySize=auto;elbow=vertical;html=1;strokeColor=#808080;entryX=0;entryY=0.5;entryDx=0;entryDy=0;exitX=0.855;exitY=0.855;exitDx=0;exitDy=0;exitPerimeter=0;" parent="1" source="tSnX5RXje4xO9rxQiIv1-6" target="tSnX5RXje4xO9rxQiIv1-7" edge="1">
          <mxGeometry relative="1" as="geometry">
            <mxPoint x="518.9949999999999" y="504.19000000000005" as="sourcePoint" />
            <mxPoint x="564" y="452.25" as="targetPoint" />
            <Array as="points">
              <mxPoint x="520" y="600" />
            </Array>
          </mxGeometry>
        </mxCell>
        <mxCell id="tSnX5RXje4xO9rxQiIv1-11" style="edgeStyle=elbowEdgeStyle;rounded=0;orthogonalLoop=1;jettySize=auto;html=1;strokeColor=#808080;exitX=1;exitY=0.5;exitDx=0;exitDy=0;entryX=0.5;entryY=1;entryDx=0;entryDy=0;" parent="1" source="tSnX5RXje4xO9rxQiIv1-7" target="tSnX5RXje4xO9rxQiIv1-5" edge="1">
          <mxGeometry relative="1" as="geometry">
            <Array as="points">
              <mxPoint x="726" y="580" />
              <mxPoint x="919.5" y="305.5" />
            </Array>
            <mxPoint x="645.2" y="452.25" as="sourcePoint" />
            <mxPoint x="730" y="550" as="targetPoint" />
          </mxGeometry>
        </mxCell>
      </root>
    </mxGraphModel>
  </diagram>
</mxfile>
